%TF.GenerationSoftware,KiCad,Pcbnew,7.0.2*%
%TF.CreationDate,2023-10-17T20:48:40+09:00*%
%TF.ProjectId,Bridge,42726964-6765-42e6-9b69-6361645f7063,rev?*%
%TF.SameCoordinates,Original*%
%TF.FileFunction,Legend,Top*%
%TF.FilePolarity,Positive*%
%FSLAX46Y46*%
G04 Gerber Fmt 4.6, Leading zero omitted, Abs format (unit mm)*
G04 Created by KiCad (PCBNEW 7.0.2) date 2023-10-17 20:48:40*
%MOMM*%
%LPD*%
G01*
G04 APERTURE LIST*
%ADD10C,0.200000*%
%ADD11C,0.150000*%
%ADD12C,0.100000*%
%ADD13C,0.120000*%
G04 APERTURE END LIST*
D10*
X112871190Y-132405238D02*
X112871190Y-130405238D01*
X112871190Y-131357619D02*
X114014047Y-131357619D01*
X114014047Y-132405238D02*
X114014047Y-130405238D01*
X115823571Y-132405238D02*
X115823571Y-131357619D01*
X115823571Y-131357619D02*
X115728333Y-131167142D01*
X115728333Y-131167142D02*
X115537857Y-131071904D01*
X115537857Y-131071904D02*
X115156904Y-131071904D01*
X115156904Y-131071904D02*
X114966428Y-131167142D01*
X115823571Y-132310000D02*
X115633095Y-132405238D01*
X115633095Y-132405238D02*
X115156904Y-132405238D01*
X115156904Y-132405238D02*
X114966428Y-132310000D01*
X114966428Y-132310000D02*
X114871190Y-132119523D01*
X114871190Y-132119523D02*
X114871190Y-131929047D01*
X114871190Y-131929047D02*
X114966428Y-131738571D01*
X114966428Y-131738571D02*
X115156904Y-131643333D01*
X115156904Y-131643333D02*
X115633095Y-131643333D01*
X115633095Y-131643333D02*
X115823571Y-131548095D01*
X117061666Y-132405238D02*
X116871190Y-132310000D01*
X116871190Y-132310000D02*
X116775952Y-132119523D01*
X116775952Y-132119523D02*
X116775952Y-130405238D01*
X117537857Y-131071904D02*
X118299761Y-131071904D01*
X117823571Y-132405238D02*
X117823571Y-130690952D01*
X117823571Y-130690952D02*
X117918809Y-130500476D01*
X117918809Y-130500476D02*
X118109285Y-130405238D01*
X118109285Y-130405238D02*
X118299761Y-130405238D01*
X121156905Y-131357619D02*
X121442619Y-131452857D01*
X121442619Y-131452857D02*
X121537857Y-131548095D01*
X121537857Y-131548095D02*
X121633095Y-131738571D01*
X121633095Y-131738571D02*
X121633095Y-132024285D01*
X121633095Y-132024285D02*
X121537857Y-132214761D01*
X121537857Y-132214761D02*
X121442619Y-132310000D01*
X121442619Y-132310000D02*
X121252143Y-132405238D01*
X121252143Y-132405238D02*
X120490238Y-132405238D01*
X120490238Y-132405238D02*
X120490238Y-130405238D01*
X120490238Y-130405238D02*
X121156905Y-130405238D01*
X121156905Y-130405238D02*
X121347381Y-130500476D01*
X121347381Y-130500476D02*
X121442619Y-130595714D01*
X121442619Y-130595714D02*
X121537857Y-130786190D01*
X121537857Y-130786190D02*
X121537857Y-130976666D01*
X121537857Y-130976666D02*
X121442619Y-131167142D01*
X121442619Y-131167142D02*
X121347381Y-131262380D01*
X121347381Y-131262380D02*
X121156905Y-131357619D01*
X121156905Y-131357619D02*
X120490238Y-131357619D01*
X122490238Y-132405238D02*
X122490238Y-131071904D01*
X122490238Y-131452857D02*
X122585476Y-131262380D01*
X122585476Y-131262380D02*
X122680714Y-131167142D01*
X122680714Y-131167142D02*
X122871190Y-131071904D01*
X122871190Y-131071904D02*
X123061667Y-131071904D01*
X123728333Y-132405238D02*
X123728333Y-131071904D01*
X123728333Y-130405238D02*
X123633095Y-130500476D01*
X123633095Y-130500476D02*
X123728333Y-130595714D01*
X123728333Y-130595714D02*
X123823571Y-130500476D01*
X123823571Y-130500476D02*
X123728333Y-130405238D01*
X123728333Y-130405238D02*
X123728333Y-130595714D01*
X125537857Y-132405238D02*
X125537857Y-130405238D01*
X125537857Y-132310000D02*
X125347381Y-132405238D01*
X125347381Y-132405238D02*
X124966428Y-132405238D01*
X124966428Y-132405238D02*
X124775952Y-132310000D01*
X124775952Y-132310000D02*
X124680714Y-132214761D01*
X124680714Y-132214761D02*
X124585476Y-132024285D01*
X124585476Y-132024285D02*
X124585476Y-131452857D01*
X124585476Y-131452857D02*
X124680714Y-131262380D01*
X124680714Y-131262380D02*
X124775952Y-131167142D01*
X124775952Y-131167142D02*
X124966428Y-131071904D01*
X124966428Y-131071904D02*
X125347381Y-131071904D01*
X125347381Y-131071904D02*
X125537857Y-131167142D01*
X127347381Y-131071904D02*
X127347381Y-132690952D01*
X127347381Y-132690952D02*
X127252143Y-132881428D01*
X127252143Y-132881428D02*
X127156905Y-132976666D01*
X127156905Y-132976666D02*
X126966428Y-133071904D01*
X126966428Y-133071904D02*
X126680714Y-133071904D01*
X126680714Y-133071904D02*
X126490238Y-132976666D01*
X127347381Y-132310000D02*
X127156905Y-132405238D01*
X127156905Y-132405238D02*
X126775952Y-132405238D01*
X126775952Y-132405238D02*
X126585476Y-132310000D01*
X126585476Y-132310000D02*
X126490238Y-132214761D01*
X126490238Y-132214761D02*
X126395000Y-132024285D01*
X126395000Y-132024285D02*
X126395000Y-131452857D01*
X126395000Y-131452857D02*
X126490238Y-131262380D01*
X126490238Y-131262380D02*
X126585476Y-131167142D01*
X126585476Y-131167142D02*
X126775952Y-131071904D01*
X126775952Y-131071904D02*
X127156905Y-131071904D01*
X127156905Y-131071904D02*
X127347381Y-131167142D01*
X129061667Y-132310000D02*
X128871191Y-132405238D01*
X128871191Y-132405238D02*
X128490238Y-132405238D01*
X128490238Y-132405238D02*
X128299762Y-132310000D01*
X128299762Y-132310000D02*
X128204524Y-132119523D01*
X128204524Y-132119523D02*
X128204524Y-131357619D01*
X128204524Y-131357619D02*
X128299762Y-131167142D01*
X128299762Y-131167142D02*
X128490238Y-131071904D01*
X128490238Y-131071904D02*
X128871191Y-131071904D01*
X128871191Y-131071904D02*
X129061667Y-131167142D01*
X129061667Y-131167142D02*
X129156905Y-131357619D01*
X129156905Y-131357619D02*
X129156905Y-131548095D01*
X129156905Y-131548095D02*
X128204524Y-131738571D01*
X131537858Y-132405238D02*
X131537858Y-130405238D01*
X132490239Y-131071904D02*
X132490239Y-132405238D01*
X132490239Y-131262380D02*
X132585477Y-131167142D01*
X132585477Y-131167142D02*
X132775953Y-131071904D01*
X132775953Y-131071904D02*
X133061668Y-131071904D01*
X133061668Y-131071904D02*
X133252144Y-131167142D01*
X133252144Y-131167142D02*
X133347382Y-131357619D01*
X133347382Y-131357619D02*
X133347382Y-132405238D01*
X134109287Y-131071904D02*
X134585477Y-132405238D01*
X134585477Y-132405238D02*
X135061668Y-131071904D01*
X136585478Y-132310000D02*
X136395002Y-132405238D01*
X136395002Y-132405238D02*
X136014049Y-132405238D01*
X136014049Y-132405238D02*
X135823573Y-132310000D01*
X135823573Y-132310000D02*
X135728335Y-132119523D01*
X135728335Y-132119523D02*
X135728335Y-131357619D01*
X135728335Y-131357619D02*
X135823573Y-131167142D01*
X135823573Y-131167142D02*
X136014049Y-131071904D01*
X136014049Y-131071904D02*
X136395002Y-131071904D01*
X136395002Y-131071904D02*
X136585478Y-131167142D01*
X136585478Y-131167142D02*
X136680716Y-131357619D01*
X136680716Y-131357619D02*
X136680716Y-131548095D01*
X136680716Y-131548095D02*
X135728335Y-131738571D01*
X137537859Y-132405238D02*
X137537859Y-131071904D01*
X137537859Y-131452857D02*
X137633097Y-131262380D01*
X137633097Y-131262380D02*
X137728335Y-131167142D01*
X137728335Y-131167142D02*
X137918811Y-131071904D01*
X137918811Y-131071904D02*
X138109288Y-131071904D01*
X138490240Y-131071904D02*
X139252144Y-131071904D01*
X138775954Y-130405238D02*
X138775954Y-132119523D01*
X138775954Y-132119523D02*
X138871192Y-132310000D01*
X138871192Y-132310000D02*
X139061668Y-132405238D01*
X139061668Y-132405238D02*
X139252144Y-132405238D01*
X140680716Y-132310000D02*
X140490240Y-132405238D01*
X140490240Y-132405238D02*
X140109287Y-132405238D01*
X140109287Y-132405238D02*
X139918811Y-132310000D01*
X139918811Y-132310000D02*
X139823573Y-132119523D01*
X139823573Y-132119523D02*
X139823573Y-131357619D01*
X139823573Y-131357619D02*
X139918811Y-131167142D01*
X139918811Y-131167142D02*
X140109287Y-131071904D01*
X140109287Y-131071904D02*
X140490240Y-131071904D01*
X140490240Y-131071904D02*
X140680716Y-131167142D01*
X140680716Y-131167142D02*
X140775954Y-131357619D01*
X140775954Y-131357619D02*
X140775954Y-131548095D01*
X140775954Y-131548095D02*
X139823573Y-131738571D01*
X141633097Y-132405238D02*
X141633097Y-131071904D01*
X141633097Y-131452857D02*
X141728335Y-131262380D01*
X141728335Y-131262380D02*
X141823573Y-131167142D01*
X141823573Y-131167142D02*
X142014049Y-131071904D01*
X142014049Y-131071904D02*
X142204526Y-131071904D01*
X144204526Y-131071904D02*
X144680716Y-132405238D01*
X144680716Y-132405238D02*
X145156907Y-131071904D01*
X146966431Y-132405238D02*
X145823574Y-132405238D01*
X146395002Y-132405238D02*
X146395002Y-130405238D01*
X146395002Y-130405238D02*
X146204526Y-130690952D01*
X146204526Y-130690952D02*
X146014050Y-130881428D01*
X146014050Y-130881428D02*
X145823574Y-130976666D01*
X112871190Y-135645238D02*
X112871190Y-133645238D01*
X112871190Y-133645238D02*
X113633095Y-133645238D01*
X113633095Y-133645238D02*
X113823571Y-133740476D01*
X113823571Y-133740476D02*
X113918809Y-133835714D01*
X113918809Y-133835714D02*
X114014047Y-134026190D01*
X114014047Y-134026190D02*
X114014047Y-134311904D01*
X114014047Y-134311904D02*
X113918809Y-134502380D01*
X113918809Y-134502380D02*
X113823571Y-134597619D01*
X113823571Y-134597619D02*
X113633095Y-134692857D01*
X113633095Y-134692857D02*
X112871190Y-134692857D01*
X116014047Y-135454761D02*
X115918809Y-135550000D01*
X115918809Y-135550000D02*
X115633095Y-135645238D01*
X115633095Y-135645238D02*
X115442619Y-135645238D01*
X115442619Y-135645238D02*
X115156904Y-135550000D01*
X115156904Y-135550000D02*
X114966428Y-135359523D01*
X114966428Y-135359523D02*
X114871190Y-135169047D01*
X114871190Y-135169047D02*
X114775952Y-134788095D01*
X114775952Y-134788095D02*
X114775952Y-134502380D01*
X114775952Y-134502380D02*
X114871190Y-134121428D01*
X114871190Y-134121428D02*
X114966428Y-133930952D01*
X114966428Y-133930952D02*
X115156904Y-133740476D01*
X115156904Y-133740476D02*
X115442619Y-133645238D01*
X115442619Y-133645238D02*
X115633095Y-133645238D01*
X115633095Y-133645238D02*
X115918809Y-133740476D01*
X115918809Y-133740476D02*
X116014047Y-133835714D01*
X117537857Y-134597619D02*
X117823571Y-134692857D01*
X117823571Y-134692857D02*
X117918809Y-134788095D01*
X117918809Y-134788095D02*
X118014047Y-134978571D01*
X118014047Y-134978571D02*
X118014047Y-135264285D01*
X118014047Y-135264285D02*
X117918809Y-135454761D01*
X117918809Y-135454761D02*
X117823571Y-135550000D01*
X117823571Y-135550000D02*
X117633095Y-135645238D01*
X117633095Y-135645238D02*
X116871190Y-135645238D01*
X116871190Y-135645238D02*
X116871190Y-133645238D01*
X116871190Y-133645238D02*
X117537857Y-133645238D01*
X117537857Y-133645238D02*
X117728333Y-133740476D01*
X117728333Y-133740476D02*
X117823571Y-133835714D01*
X117823571Y-133835714D02*
X117918809Y-134026190D01*
X117918809Y-134026190D02*
X117918809Y-134216666D01*
X117918809Y-134216666D02*
X117823571Y-134407142D01*
X117823571Y-134407142D02*
X117728333Y-134502380D01*
X117728333Y-134502380D02*
X117537857Y-134597619D01*
X117537857Y-134597619D02*
X116871190Y-134597619D01*
X120395000Y-135645238D02*
X120395000Y-133645238D01*
X120395000Y-134407142D02*
X120585476Y-134311904D01*
X120585476Y-134311904D02*
X120966429Y-134311904D01*
X120966429Y-134311904D02*
X121156905Y-134407142D01*
X121156905Y-134407142D02*
X121252143Y-134502380D01*
X121252143Y-134502380D02*
X121347381Y-134692857D01*
X121347381Y-134692857D02*
X121347381Y-135264285D01*
X121347381Y-135264285D02*
X121252143Y-135454761D01*
X121252143Y-135454761D02*
X121156905Y-135550000D01*
X121156905Y-135550000D02*
X120966429Y-135645238D01*
X120966429Y-135645238D02*
X120585476Y-135645238D01*
X120585476Y-135645238D02*
X120395000Y-135550000D01*
X122014048Y-134311904D02*
X122490238Y-135645238D01*
X122966429Y-134311904D02*
X122490238Y-135645238D01*
X122490238Y-135645238D02*
X122299762Y-136121428D01*
X122299762Y-136121428D02*
X122204524Y-136216666D01*
X122204524Y-136216666D02*
X122014048Y-136311904D01*
X125252144Y-135645238D02*
X125252144Y-133645238D01*
X125252144Y-133645238D02*
X125918811Y-135073809D01*
X125918811Y-135073809D02*
X126585477Y-133645238D01*
X126585477Y-133645238D02*
X126585477Y-135645238D01*
X127918810Y-133645238D02*
X128299763Y-133645238D01*
X128299763Y-133645238D02*
X128490239Y-133740476D01*
X128490239Y-133740476D02*
X128680715Y-133930952D01*
X128680715Y-133930952D02*
X128775953Y-134311904D01*
X128775953Y-134311904D02*
X128775953Y-134978571D01*
X128775953Y-134978571D02*
X128680715Y-135359523D01*
X128680715Y-135359523D02*
X128490239Y-135550000D01*
X128490239Y-135550000D02*
X128299763Y-135645238D01*
X128299763Y-135645238D02*
X127918810Y-135645238D01*
X127918810Y-135645238D02*
X127728334Y-135550000D01*
X127728334Y-135550000D02*
X127537858Y-135359523D01*
X127537858Y-135359523D02*
X127442620Y-134978571D01*
X127442620Y-134978571D02*
X127442620Y-134311904D01*
X127442620Y-134311904D02*
X127537858Y-133930952D01*
X127537858Y-133930952D02*
X127728334Y-133740476D01*
X127728334Y-133740476D02*
X127918810Y-133645238D01*
X129537858Y-135550000D02*
X129823572Y-135645238D01*
X129823572Y-135645238D02*
X130299763Y-135645238D01*
X130299763Y-135645238D02*
X130490239Y-135550000D01*
X130490239Y-135550000D02*
X130585477Y-135454761D01*
X130585477Y-135454761D02*
X130680715Y-135264285D01*
X130680715Y-135264285D02*
X130680715Y-135073809D01*
X130680715Y-135073809D02*
X130585477Y-134883333D01*
X130585477Y-134883333D02*
X130490239Y-134788095D01*
X130490239Y-134788095D02*
X130299763Y-134692857D01*
X130299763Y-134692857D02*
X129918810Y-134597619D01*
X129918810Y-134597619D02*
X129728334Y-134502380D01*
X129728334Y-134502380D02*
X129633096Y-134407142D01*
X129633096Y-134407142D02*
X129537858Y-134216666D01*
X129537858Y-134216666D02*
X129537858Y-134026190D01*
X129537858Y-134026190D02*
X129633096Y-133835714D01*
X129633096Y-133835714D02*
X129728334Y-133740476D01*
X129728334Y-133740476D02*
X129918810Y-133645238D01*
X129918810Y-133645238D02*
X130395001Y-133645238D01*
X130395001Y-133645238D02*
X130680715Y-133740476D01*
X132775953Y-134692857D02*
X132680715Y-134597619D01*
X132680715Y-134597619D02*
X132490239Y-134502380D01*
X132490239Y-134502380D02*
X132299763Y-134502380D01*
X132299763Y-134502380D02*
X132109287Y-134597619D01*
X132109287Y-134597619D02*
X132014048Y-134692857D01*
X132014048Y-134692857D02*
X131918810Y-134883333D01*
X131918810Y-134883333D02*
X131918810Y-135073809D01*
X131918810Y-135073809D02*
X132014048Y-135264285D01*
X132014048Y-135264285D02*
X132109287Y-135359523D01*
X132109287Y-135359523D02*
X132299763Y-135454761D01*
X132299763Y-135454761D02*
X132490239Y-135454761D01*
X132490239Y-135454761D02*
X132680715Y-135359523D01*
X132680715Y-135359523D02*
X132775953Y-135264285D01*
X132775953Y-134502380D02*
X132775953Y-135264285D01*
X132775953Y-135264285D02*
X132871191Y-135359523D01*
X132871191Y-135359523D02*
X132966429Y-135359523D01*
X132966429Y-135359523D02*
X133156906Y-135264285D01*
X133156906Y-135264285D02*
X133252144Y-135073809D01*
X133252144Y-135073809D02*
X133252144Y-134597619D01*
X133252144Y-134597619D02*
X133061668Y-134311904D01*
X133061668Y-134311904D02*
X132775953Y-134121428D01*
X132775953Y-134121428D02*
X132395001Y-134026190D01*
X132395001Y-134026190D02*
X132014048Y-134121428D01*
X132014048Y-134121428D02*
X131728334Y-134311904D01*
X131728334Y-134311904D02*
X131537858Y-134597619D01*
X131537858Y-134597619D02*
X131442620Y-134978571D01*
X131442620Y-134978571D02*
X131537858Y-135359523D01*
X131537858Y-135359523D02*
X131728334Y-135645238D01*
X131728334Y-135645238D02*
X132014048Y-135835714D01*
X132014048Y-135835714D02*
X132395001Y-135930952D01*
X132395001Y-135930952D02*
X132775953Y-135835714D01*
X132775953Y-135835714D02*
X133061668Y-135645238D01*
X135061668Y-133645238D02*
X134109287Y-133645238D01*
X134109287Y-133645238D02*
X134014049Y-134597619D01*
X134014049Y-134597619D02*
X134109287Y-134502380D01*
X134109287Y-134502380D02*
X134299763Y-134407142D01*
X134299763Y-134407142D02*
X134775954Y-134407142D01*
X134775954Y-134407142D02*
X134966430Y-134502380D01*
X134966430Y-134502380D02*
X135061668Y-134597619D01*
X135061668Y-134597619D02*
X135156906Y-134788095D01*
X135156906Y-134788095D02*
X135156906Y-135264285D01*
X135156906Y-135264285D02*
X135061668Y-135454761D01*
X135061668Y-135454761D02*
X134966430Y-135550000D01*
X134966430Y-135550000D02*
X134775954Y-135645238D01*
X134775954Y-135645238D02*
X134299763Y-135645238D01*
X134299763Y-135645238D02*
X134109287Y-135550000D01*
X134109287Y-135550000D02*
X134014049Y-135454761D01*
X135823573Y-133645238D02*
X137061668Y-133645238D01*
X137061668Y-133645238D02*
X136395001Y-134407142D01*
X136395001Y-134407142D02*
X136680716Y-134407142D01*
X136680716Y-134407142D02*
X136871192Y-134502380D01*
X136871192Y-134502380D02*
X136966430Y-134597619D01*
X136966430Y-134597619D02*
X137061668Y-134788095D01*
X137061668Y-134788095D02*
X137061668Y-135264285D01*
X137061668Y-135264285D02*
X136966430Y-135454761D01*
X136966430Y-135454761D02*
X136871192Y-135550000D01*
X136871192Y-135550000D02*
X136680716Y-135645238D01*
X136680716Y-135645238D02*
X136109287Y-135645238D01*
X136109287Y-135645238D02*
X135918811Y-135550000D01*
X135918811Y-135550000D02*
X135823573Y-135454761D01*
X138966430Y-135645238D02*
X137823573Y-135645238D01*
X138395001Y-135645238D02*
X138395001Y-133645238D01*
X138395001Y-133645238D02*
X138204525Y-133930952D01*
X138204525Y-133930952D02*
X138014049Y-134121428D01*
X138014049Y-134121428D02*
X137823573Y-134216666D01*
X139633097Y-133645238D02*
X140966430Y-133645238D01*
X140966430Y-133645238D02*
X140109287Y-135645238D01*
X142680716Y-133645238D02*
X141728335Y-133645238D01*
X141728335Y-133645238D02*
X141633097Y-134597619D01*
X141633097Y-134597619D02*
X141728335Y-134502380D01*
X141728335Y-134502380D02*
X141918811Y-134407142D01*
X141918811Y-134407142D02*
X142395002Y-134407142D01*
X142395002Y-134407142D02*
X142585478Y-134502380D01*
X142585478Y-134502380D02*
X142680716Y-134597619D01*
X142680716Y-134597619D02*
X142775954Y-134788095D01*
X142775954Y-134788095D02*
X142775954Y-135264285D01*
X142775954Y-135264285D02*
X142680716Y-135454761D01*
X142680716Y-135454761D02*
X142585478Y-135550000D01*
X142585478Y-135550000D02*
X142395002Y-135645238D01*
X142395002Y-135645238D02*
X141918811Y-135645238D01*
X141918811Y-135645238D02*
X141728335Y-135550000D01*
X141728335Y-135550000D02*
X141633097Y-135454761D01*
X143633097Y-135645238D02*
X143633097Y-133645238D01*
X143633097Y-133645238D02*
X144109287Y-133645238D01*
X144109287Y-133645238D02*
X144395002Y-133740476D01*
X144395002Y-133740476D02*
X144585478Y-133930952D01*
X144585478Y-133930952D02*
X144680716Y-134121428D01*
X144680716Y-134121428D02*
X144775954Y-134502380D01*
X144775954Y-134502380D02*
X144775954Y-134788095D01*
X144775954Y-134788095D02*
X144680716Y-135169047D01*
X144680716Y-135169047D02*
X144585478Y-135359523D01*
X144585478Y-135359523D02*
X144395002Y-135550000D01*
X144395002Y-135550000D02*
X144109287Y-135645238D01*
X144109287Y-135645238D02*
X143633097Y-135645238D01*
X145633097Y-135645238D02*
X145633097Y-133645238D01*
X145633097Y-133645238D02*
X146109287Y-133645238D01*
X146109287Y-133645238D02*
X146395002Y-133740476D01*
X146395002Y-133740476D02*
X146585478Y-133930952D01*
X146585478Y-133930952D02*
X146680716Y-134121428D01*
X146680716Y-134121428D02*
X146775954Y-134502380D01*
X146775954Y-134502380D02*
X146775954Y-134788095D01*
X146775954Y-134788095D02*
X146680716Y-135169047D01*
X146680716Y-135169047D02*
X146585478Y-135359523D01*
X146585478Y-135359523D02*
X146395002Y-135550000D01*
X146395002Y-135550000D02*
X146109287Y-135645238D01*
X146109287Y-135645238D02*
X145633097Y-135645238D01*
X147633097Y-135645238D02*
X147633097Y-133645238D01*
X147633097Y-133645238D02*
X148109287Y-133645238D01*
X148109287Y-133645238D02*
X148395002Y-133740476D01*
X148395002Y-133740476D02*
X148585478Y-133930952D01*
X148585478Y-133930952D02*
X148680716Y-134121428D01*
X148680716Y-134121428D02*
X148775954Y-134502380D01*
X148775954Y-134502380D02*
X148775954Y-134788095D01*
X148775954Y-134788095D02*
X148680716Y-135169047D01*
X148680716Y-135169047D02*
X148585478Y-135359523D01*
X148585478Y-135359523D02*
X148395002Y-135550000D01*
X148395002Y-135550000D02*
X148109287Y-135645238D01*
X148109287Y-135645238D02*
X147633097Y-135645238D01*
D11*
%TO.C,Q2*%
X157384761Y-109777857D02*
X157289523Y-109730238D01*
X157289523Y-109730238D02*
X157194285Y-109635000D01*
X157194285Y-109635000D02*
X157051428Y-109492142D01*
X157051428Y-109492142D02*
X156956190Y-109444523D01*
X156956190Y-109444523D02*
X156860952Y-109444523D01*
X156908571Y-109682619D02*
X156813333Y-109635000D01*
X156813333Y-109635000D02*
X156718095Y-109539761D01*
X156718095Y-109539761D02*
X156670476Y-109349285D01*
X156670476Y-109349285D02*
X156670476Y-109015952D01*
X156670476Y-109015952D02*
X156718095Y-108825476D01*
X156718095Y-108825476D02*
X156813333Y-108730238D01*
X156813333Y-108730238D02*
X156908571Y-108682619D01*
X156908571Y-108682619D02*
X157099047Y-108682619D01*
X157099047Y-108682619D02*
X157194285Y-108730238D01*
X157194285Y-108730238D02*
X157289523Y-108825476D01*
X157289523Y-108825476D02*
X157337142Y-109015952D01*
X157337142Y-109015952D02*
X157337142Y-109349285D01*
X157337142Y-109349285D02*
X157289523Y-109539761D01*
X157289523Y-109539761D02*
X157194285Y-109635000D01*
X157194285Y-109635000D02*
X157099047Y-109682619D01*
X157099047Y-109682619D02*
X156908571Y-109682619D01*
X157718095Y-108777857D02*
X157765714Y-108730238D01*
X157765714Y-108730238D02*
X157860952Y-108682619D01*
X157860952Y-108682619D02*
X158099047Y-108682619D01*
X158099047Y-108682619D02*
X158194285Y-108730238D01*
X158194285Y-108730238D02*
X158241904Y-108777857D01*
X158241904Y-108777857D02*
X158289523Y-108873095D01*
X158289523Y-108873095D02*
X158289523Y-108968333D01*
X158289523Y-108968333D02*
X158241904Y-109111190D01*
X158241904Y-109111190D02*
X157670476Y-109682619D01*
X157670476Y-109682619D02*
X158289523Y-109682619D01*
%TO.C,Q1*%
X157384761Y-89457857D02*
X157289523Y-89410238D01*
X157289523Y-89410238D02*
X157194285Y-89315000D01*
X157194285Y-89315000D02*
X157051428Y-89172142D01*
X157051428Y-89172142D02*
X156956190Y-89124523D01*
X156956190Y-89124523D02*
X156860952Y-89124523D01*
X156908571Y-89362619D02*
X156813333Y-89315000D01*
X156813333Y-89315000D02*
X156718095Y-89219761D01*
X156718095Y-89219761D02*
X156670476Y-89029285D01*
X156670476Y-89029285D02*
X156670476Y-88695952D01*
X156670476Y-88695952D02*
X156718095Y-88505476D01*
X156718095Y-88505476D02*
X156813333Y-88410238D01*
X156813333Y-88410238D02*
X156908571Y-88362619D01*
X156908571Y-88362619D02*
X157099047Y-88362619D01*
X157099047Y-88362619D02*
X157194285Y-88410238D01*
X157194285Y-88410238D02*
X157289523Y-88505476D01*
X157289523Y-88505476D02*
X157337142Y-88695952D01*
X157337142Y-88695952D02*
X157337142Y-89029285D01*
X157337142Y-89029285D02*
X157289523Y-89219761D01*
X157289523Y-89219761D02*
X157194285Y-89315000D01*
X157194285Y-89315000D02*
X157099047Y-89362619D01*
X157099047Y-89362619D02*
X156908571Y-89362619D01*
X158289523Y-89362619D02*
X157718095Y-89362619D01*
X158003809Y-89362619D02*
X158003809Y-88362619D01*
X158003809Y-88362619D02*
X157908571Y-88505476D01*
X157908571Y-88505476D02*
X157813333Y-88600714D01*
X157813333Y-88600714D02*
X157718095Y-88648333D01*
%TO.C,J4*%
X107616666Y-89402619D02*
X107616666Y-90116904D01*
X107616666Y-90116904D02*
X107569047Y-90259761D01*
X107569047Y-90259761D02*
X107473809Y-90355000D01*
X107473809Y-90355000D02*
X107330952Y-90402619D01*
X107330952Y-90402619D02*
X107235714Y-90402619D01*
X108521428Y-89735952D02*
X108521428Y-90402619D01*
X108283333Y-89355000D02*
X108045238Y-90069285D01*
X108045238Y-90069285D02*
X108664285Y-90069285D01*
%TO.C,U4*%
X123747619Y-89661904D02*
X124557142Y-89661904D01*
X124557142Y-89661904D02*
X124652380Y-89614285D01*
X124652380Y-89614285D02*
X124700000Y-89566666D01*
X124700000Y-89566666D02*
X124747619Y-89471428D01*
X124747619Y-89471428D02*
X124747619Y-89280952D01*
X124747619Y-89280952D02*
X124700000Y-89185714D01*
X124700000Y-89185714D02*
X124652380Y-89138095D01*
X124652380Y-89138095D02*
X124557142Y-89090476D01*
X124557142Y-89090476D02*
X123747619Y-89090476D01*
X124080952Y-88185714D02*
X124747619Y-88185714D01*
X123700000Y-88423809D02*
X124414285Y-88661904D01*
X124414285Y-88661904D02*
X124414285Y-88042857D01*
%TO.C,U3*%
X132598095Y-113762619D02*
X132598095Y-114572142D01*
X132598095Y-114572142D02*
X132645714Y-114667380D01*
X132645714Y-114667380D02*
X132693333Y-114715000D01*
X132693333Y-114715000D02*
X132788571Y-114762619D01*
X132788571Y-114762619D02*
X132979047Y-114762619D01*
X132979047Y-114762619D02*
X133074285Y-114715000D01*
X133074285Y-114715000D02*
X133121904Y-114667380D01*
X133121904Y-114667380D02*
X133169523Y-114572142D01*
X133169523Y-114572142D02*
X133169523Y-113762619D01*
X133550476Y-113762619D02*
X134169523Y-113762619D01*
X134169523Y-113762619D02*
X133836190Y-114143571D01*
X133836190Y-114143571D02*
X133979047Y-114143571D01*
X133979047Y-114143571D02*
X134074285Y-114191190D01*
X134074285Y-114191190D02*
X134121904Y-114238809D01*
X134121904Y-114238809D02*
X134169523Y-114334047D01*
X134169523Y-114334047D02*
X134169523Y-114572142D01*
X134169523Y-114572142D02*
X134121904Y-114667380D01*
X134121904Y-114667380D02*
X134074285Y-114715000D01*
X134074285Y-114715000D02*
X133979047Y-114762619D01*
X133979047Y-114762619D02*
X133693333Y-114762619D01*
X133693333Y-114762619D02*
X133598095Y-114715000D01*
X133598095Y-114715000D02*
X133550476Y-114667380D01*
%TO.C,U2*%
X132598095Y-93442619D02*
X132598095Y-94252142D01*
X132598095Y-94252142D02*
X132645714Y-94347380D01*
X132645714Y-94347380D02*
X132693333Y-94395000D01*
X132693333Y-94395000D02*
X132788571Y-94442619D01*
X132788571Y-94442619D02*
X132979047Y-94442619D01*
X132979047Y-94442619D02*
X133074285Y-94395000D01*
X133074285Y-94395000D02*
X133121904Y-94347380D01*
X133121904Y-94347380D02*
X133169523Y-94252142D01*
X133169523Y-94252142D02*
X133169523Y-93442619D01*
X133598095Y-93537857D02*
X133645714Y-93490238D01*
X133645714Y-93490238D02*
X133740952Y-93442619D01*
X133740952Y-93442619D02*
X133979047Y-93442619D01*
X133979047Y-93442619D02*
X134074285Y-93490238D01*
X134074285Y-93490238D02*
X134121904Y-93537857D01*
X134121904Y-93537857D02*
X134169523Y-93633095D01*
X134169523Y-93633095D02*
X134169523Y-93728333D01*
X134169523Y-93728333D02*
X134121904Y-93871190D01*
X134121904Y-93871190D02*
X133550476Y-94442619D01*
X133550476Y-94442619D02*
X134169523Y-94442619D01*
%TO.C,U1*%
X114818095Y-108682619D02*
X114818095Y-109492142D01*
X114818095Y-109492142D02*
X114865714Y-109587380D01*
X114865714Y-109587380D02*
X114913333Y-109635000D01*
X114913333Y-109635000D02*
X115008571Y-109682619D01*
X115008571Y-109682619D02*
X115199047Y-109682619D01*
X115199047Y-109682619D02*
X115294285Y-109635000D01*
X115294285Y-109635000D02*
X115341904Y-109587380D01*
X115341904Y-109587380D02*
X115389523Y-109492142D01*
X115389523Y-109492142D02*
X115389523Y-108682619D01*
X116389523Y-109682619D02*
X115818095Y-109682619D01*
X116103809Y-109682619D02*
X116103809Y-108682619D01*
X116103809Y-108682619D02*
X116008571Y-108825476D01*
X116008571Y-108825476D02*
X115913333Y-108920714D01*
X115913333Y-108920714D02*
X115818095Y-108968333D01*
%TO.C,R8*%
X109682619Y-114466666D02*
X109206428Y-114799999D01*
X109682619Y-115038094D02*
X108682619Y-115038094D01*
X108682619Y-115038094D02*
X108682619Y-114657142D01*
X108682619Y-114657142D02*
X108730238Y-114561904D01*
X108730238Y-114561904D02*
X108777857Y-114514285D01*
X108777857Y-114514285D02*
X108873095Y-114466666D01*
X108873095Y-114466666D02*
X109015952Y-114466666D01*
X109015952Y-114466666D02*
X109111190Y-114514285D01*
X109111190Y-114514285D02*
X109158809Y-114561904D01*
X109158809Y-114561904D02*
X109206428Y-114657142D01*
X109206428Y-114657142D02*
X109206428Y-115038094D01*
X109111190Y-113895237D02*
X109063571Y-113990475D01*
X109063571Y-113990475D02*
X109015952Y-114038094D01*
X109015952Y-114038094D02*
X108920714Y-114085713D01*
X108920714Y-114085713D02*
X108873095Y-114085713D01*
X108873095Y-114085713D02*
X108777857Y-114038094D01*
X108777857Y-114038094D02*
X108730238Y-113990475D01*
X108730238Y-113990475D02*
X108682619Y-113895237D01*
X108682619Y-113895237D02*
X108682619Y-113704761D01*
X108682619Y-113704761D02*
X108730238Y-113609523D01*
X108730238Y-113609523D02*
X108777857Y-113561904D01*
X108777857Y-113561904D02*
X108873095Y-113514285D01*
X108873095Y-113514285D02*
X108920714Y-113514285D01*
X108920714Y-113514285D02*
X109015952Y-113561904D01*
X109015952Y-113561904D02*
X109063571Y-113609523D01*
X109063571Y-113609523D02*
X109111190Y-113704761D01*
X109111190Y-113704761D02*
X109111190Y-113895237D01*
X109111190Y-113895237D02*
X109158809Y-113990475D01*
X109158809Y-113990475D02*
X109206428Y-114038094D01*
X109206428Y-114038094D02*
X109301666Y-114085713D01*
X109301666Y-114085713D02*
X109492142Y-114085713D01*
X109492142Y-114085713D02*
X109587380Y-114038094D01*
X109587380Y-114038094D02*
X109635000Y-113990475D01*
X109635000Y-113990475D02*
X109682619Y-113895237D01*
X109682619Y-113895237D02*
X109682619Y-113704761D01*
X109682619Y-113704761D02*
X109635000Y-113609523D01*
X109635000Y-113609523D02*
X109587380Y-113561904D01*
X109587380Y-113561904D02*
X109492142Y-113514285D01*
X109492142Y-113514285D02*
X109301666Y-113514285D01*
X109301666Y-113514285D02*
X109206428Y-113561904D01*
X109206428Y-113561904D02*
X109158809Y-113609523D01*
X109158809Y-113609523D02*
X109111190Y-113704761D01*
%TO.C,R7*%
X109682619Y-104306666D02*
X109206428Y-104639999D01*
X109682619Y-104878094D02*
X108682619Y-104878094D01*
X108682619Y-104878094D02*
X108682619Y-104497142D01*
X108682619Y-104497142D02*
X108730238Y-104401904D01*
X108730238Y-104401904D02*
X108777857Y-104354285D01*
X108777857Y-104354285D02*
X108873095Y-104306666D01*
X108873095Y-104306666D02*
X109015952Y-104306666D01*
X109015952Y-104306666D02*
X109111190Y-104354285D01*
X109111190Y-104354285D02*
X109158809Y-104401904D01*
X109158809Y-104401904D02*
X109206428Y-104497142D01*
X109206428Y-104497142D02*
X109206428Y-104878094D01*
X108682619Y-103973332D02*
X108682619Y-103306666D01*
X108682619Y-103306666D02*
X109682619Y-103735237D01*
%TO.C,R6*%
X126192619Y-111926666D02*
X125716428Y-112259999D01*
X126192619Y-112498094D02*
X125192619Y-112498094D01*
X125192619Y-112498094D02*
X125192619Y-112117142D01*
X125192619Y-112117142D02*
X125240238Y-112021904D01*
X125240238Y-112021904D02*
X125287857Y-111974285D01*
X125287857Y-111974285D02*
X125383095Y-111926666D01*
X125383095Y-111926666D02*
X125525952Y-111926666D01*
X125525952Y-111926666D02*
X125621190Y-111974285D01*
X125621190Y-111974285D02*
X125668809Y-112021904D01*
X125668809Y-112021904D02*
X125716428Y-112117142D01*
X125716428Y-112117142D02*
X125716428Y-112498094D01*
X125192619Y-111069523D02*
X125192619Y-111259999D01*
X125192619Y-111259999D02*
X125240238Y-111355237D01*
X125240238Y-111355237D02*
X125287857Y-111402856D01*
X125287857Y-111402856D02*
X125430714Y-111498094D01*
X125430714Y-111498094D02*
X125621190Y-111545713D01*
X125621190Y-111545713D02*
X126002142Y-111545713D01*
X126002142Y-111545713D02*
X126097380Y-111498094D01*
X126097380Y-111498094D02*
X126145000Y-111450475D01*
X126145000Y-111450475D02*
X126192619Y-111355237D01*
X126192619Y-111355237D02*
X126192619Y-111164761D01*
X126192619Y-111164761D02*
X126145000Y-111069523D01*
X126145000Y-111069523D02*
X126097380Y-111021904D01*
X126097380Y-111021904D02*
X126002142Y-110974285D01*
X126002142Y-110974285D02*
X125764047Y-110974285D01*
X125764047Y-110974285D02*
X125668809Y-111021904D01*
X125668809Y-111021904D02*
X125621190Y-111069523D01*
X125621190Y-111069523D02*
X125573571Y-111164761D01*
X125573571Y-111164761D02*
X125573571Y-111355237D01*
X125573571Y-111355237D02*
X125621190Y-111450475D01*
X125621190Y-111450475D02*
X125668809Y-111498094D01*
X125668809Y-111498094D02*
X125764047Y-111545713D01*
%TO.C,R5*%
X126192619Y-96686666D02*
X125716428Y-97019999D01*
X126192619Y-97258094D02*
X125192619Y-97258094D01*
X125192619Y-97258094D02*
X125192619Y-96877142D01*
X125192619Y-96877142D02*
X125240238Y-96781904D01*
X125240238Y-96781904D02*
X125287857Y-96734285D01*
X125287857Y-96734285D02*
X125383095Y-96686666D01*
X125383095Y-96686666D02*
X125525952Y-96686666D01*
X125525952Y-96686666D02*
X125621190Y-96734285D01*
X125621190Y-96734285D02*
X125668809Y-96781904D01*
X125668809Y-96781904D02*
X125716428Y-96877142D01*
X125716428Y-96877142D02*
X125716428Y-97258094D01*
X125192619Y-95781904D02*
X125192619Y-96258094D01*
X125192619Y-96258094D02*
X125668809Y-96305713D01*
X125668809Y-96305713D02*
X125621190Y-96258094D01*
X125621190Y-96258094D02*
X125573571Y-96162856D01*
X125573571Y-96162856D02*
X125573571Y-95924761D01*
X125573571Y-95924761D02*
X125621190Y-95829523D01*
X125621190Y-95829523D02*
X125668809Y-95781904D01*
X125668809Y-95781904D02*
X125764047Y-95734285D01*
X125764047Y-95734285D02*
X126002142Y-95734285D01*
X126002142Y-95734285D02*
X126097380Y-95781904D01*
X126097380Y-95781904D02*
X126145000Y-95829523D01*
X126145000Y-95829523D02*
X126192619Y-95924761D01*
X126192619Y-95924761D02*
X126192619Y-96162856D01*
X126192619Y-96162856D02*
X126145000Y-96258094D01*
X126145000Y-96258094D02*
X126097380Y-96305713D01*
%TO.C,R4*%
X153503333Y-102062619D02*
X153170000Y-101586428D01*
X152931905Y-102062619D02*
X152931905Y-101062619D01*
X152931905Y-101062619D02*
X153312857Y-101062619D01*
X153312857Y-101062619D02*
X153408095Y-101110238D01*
X153408095Y-101110238D02*
X153455714Y-101157857D01*
X153455714Y-101157857D02*
X153503333Y-101253095D01*
X153503333Y-101253095D02*
X153503333Y-101395952D01*
X153503333Y-101395952D02*
X153455714Y-101491190D01*
X153455714Y-101491190D02*
X153408095Y-101538809D01*
X153408095Y-101538809D02*
X153312857Y-101586428D01*
X153312857Y-101586428D02*
X152931905Y-101586428D01*
X154360476Y-101395952D02*
X154360476Y-102062619D01*
X154122381Y-101015000D02*
X153884286Y-101729285D01*
X153884286Y-101729285D02*
X154503333Y-101729285D01*
%TO.C,R3*%
X153503333Y-81742619D02*
X153170000Y-81266428D01*
X152931905Y-81742619D02*
X152931905Y-80742619D01*
X152931905Y-80742619D02*
X153312857Y-80742619D01*
X153312857Y-80742619D02*
X153408095Y-80790238D01*
X153408095Y-80790238D02*
X153455714Y-80837857D01*
X153455714Y-80837857D02*
X153503333Y-80933095D01*
X153503333Y-80933095D02*
X153503333Y-81075952D01*
X153503333Y-81075952D02*
X153455714Y-81171190D01*
X153455714Y-81171190D02*
X153408095Y-81218809D01*
X153408095Y-81218809D02*
X153312857Y-81266428D01*
X153312857Y-81266428D02*
X152931905Y-81266428D01*
X153836667Y-80742619D02*
X154455714Y-80742619D01*
X154455714Y-80742619D02*
X154122381Y-81123571D01*
X154122381Y-81123571D02*
X154265238Y-81123571D01*
X154265238Y-81123571D02*
X154360476Y-81171190D01*
X154360476Y-81171190D02*
X154408095Y-81218809D01*
X154408095Y-81218809D02*
X154455714Y-81314047D01*
X154455714Y-81314047D02*
X154455714Y-81552142D01*
X154455714Y-81552142D02*
X154408095Y-81647380D01*
X154408095Y-81647380D02*
X154360476Y-81695000D01*
X154360476Y-81695000D02*
X154265238Y-81742619D01*
X154265238Y-81742619D02*
X153979524Y-81742619D01*
X153979524Y-81742619D02*
X153884286Y-81695000D01*
X153884286Y-81695000D02*
X153836667Y-81647380D01*
%TO.C,R2*%
X152862619Y-111926666D02*
X152386428Y-112259999D01*
X152862619Y-112498094D02*
X151862619Y-112498094D01*
X151862619Y-112498094D02*
X151862619Y-112117142D01*
X151862619Y-112117142D02*
X151910238Y-112021904D01*
X151910238Y-112021904D02*
X151957857Y-111974285D01*
X151957857Y-111974285D02*
X152053095Y-111926666D01*
X152053095Y-111926666D02*
X152195952Y-111926666D01*
X152195952Y-111926666D02*
X152291190Y-111974285D01*
X152291190Y-111974285D02*
X152338809Y-112021904D01*
X152338809Y-112021904D02*
X152386428Y-112117142D01*
X152386428Y-112117142D02*
X152386428Y-112498094D01*
X151957857Y-111545713D02*
X151910238Y-111498094D01*
X151910238Y-111498094D02*
X151862619Y-111402856D01*
X151862619Y-111402856D02*
X151862619Y-111164761D01*
X151862619Y-111164761D02*
X151910238Y-111069523D01*
X151910238Y-111069523D02*
X151957857Y-111021904D01*
X151957857Y-111021904D02*
X152053095Y-110974285D01*
X152053095Y-110974285D02*
X152148333Y-110974285D01*
X152148333Y-110974285D02*
X152291190Y-111021904D01*
X152291190Y-111021904D02*
X152862619Y-111593332D01*
X152862619Y-111593332D02*
X152862619Y-110974285D01*
%TO.C,R1*%
X152862619Y-92876666D02*
X152386428Y-93209999D01*
X152862619Y-93448094D02*
X151862619Y-93448094D01*
X151862619Y-93448094D02*
X151862619Y-93067142D01*
X151862619Y-93067142D02*
X151910238Y-92971904D01*
X151910238Y-92971904D02*
X151957857Y-92924285D01*
X151957857Y-92924285D02*
X152053095Y-92876666D01*
X152053095Y-92876666D02*
X152195952Y-92876666D01*
X152195952Y-92876666D02*
X152291190Y-92924285D01*
X152291190Y-92924285D02*
X152338809Y-92971904D01*
X152338809Y-92971904D02*
X152386428Y-93067142D01*
X152386428Y-93067142D02*
X152386428Y-93448094D01*
X152862619Y-91924285D02*
X152862619Y-92495713D01*
X152862619Y-92209999D02*
X151862619Y-92209999D01*
X151862619Y-92209999D02*
X152005476Y-92305237D01*
X152005476Y-92305237D02*
X152100714Y-92400475D01*
X152100714Y-92400475D02*
X152148333Y-92495713D01*
%TO.C,J5*%
X111426666Y-76932619D02*
X111426666Y-77646904D01*
X111426666Y-77646904D02*
X111379047Y-77789761D01*
X111379047Y-77789761D02*
X111283809Y-77885000D01*
X111283809Y-77885000D02*
X111140952Y-77932619D01*
X111140952Y-77932619D02*
X111045714Y-77932619D01*
X112379047Y-76932619D02*
X111902857Y-76932619D01*
X111902857Y-76932619D02*
X111855238Y-77408809D01*
X111855238Y-77408809D02*
X111902857Y-77361190D01*
X111902857Y-77361190D02*
X111998095Y-77313571D01*
X111998095Y-77313571D02*
X112236190Y-77313571D01*
X112236190Y-77313571D02*
X112331428Y-77361190D01*
X112331428Y-77361190D02*
X112379047Y-77408809D01*
X112379047Y-77408809D02*
X112426666Y-77504047D01*
X112426666Y-77504047D02*
X112426666Y-77742142D01*
X112426666Y-77742142D02*
X112379047Y-77837380D01*
X112379047Y-77837380D02*
X112331428Y-77885000D01*
X112331428Y-77885000D02*
X112236190Y-77932619D01*
X112236190Y-77932619D02*
X111998095Y-77932619D01*
X111998095Y-77932619D02*
X111902857Y-77885000D01*
X111902857Y-77885000D02*
X111855238Y-77837380D01*
%TO.C,J3*%
X190166666Y-121382619D02*
X190166666Y-122096904D01*
X190166666Y-122096904D02*
X190119047Y-122239761D01*
X190119047Y-122239761D02*
X190023809Y-122335000D01*
X190023809Y-122335000D02*
X189880952Y-122382619D01*
X189880952Y-122382619D02*
X189785714Y-122382619D01*
X190547619Y-121382619D02*
X191166666Y-121382619D01*
X191166666Y-121382619D02*
X190833333Y-121763571D01*
X190833333Y-121763571D02*
X190976190Y-121763571D01*
X190976190Y-121763571D02*
X191071428Y-121811190D01*
X191071428Y-121811190D02*
X191119047Y-121858809D01*
X191119047Y-121858809D02*
X191166666Y-121954047D01*
X191166666Y-121954047D02*
X191166666Y-122192142D01*
X191166666Y-122192142D02*
X191119047Y-122287380D01*
X191119047Y-122287380D02*
X191071428Y-122335000D01*
X191071428Y-122335000D02*
X190976190Y-122382619D01*
X190976190Y-122382619D02*
X190690476Y-122382619D01*
X190690476Y-122382619D02*
X190595238Y-122335000D01*
X190595238Y-122335000D02*
X190547619Y-122287380D01*
%TO.C,J2*%
X190166666Y-101062619D02*
X190166666Y-101776904D01*
X190166666Y-101776904D02*
X190119047Y-101919761D01*
X190119047Y-101919761D02*
X190023809Y-102015000D01*
X190023809Y-102015000D02*
X189880952Y-102062619D01*
X189880952Y-102062619D02*
X189785714Y-102062619D01*
X190595238Y-101157857D02*
X190642857Y-101110238D01*
X190642857Y-101110238D02*
X190738095Y-101062619D01*
X190738095Y-101062619D02*
X190976190Y-101062619D01*
X190976190Y-101062619D02*
X191071428Y-101110238D01*
X191071428Y-101110238D02*
X191119047Y-101157857D01*
X191119047Y-101157857D02*
X191166666Y-101253095D01*
X191166666Y-101253095D02*
X191166666Y-101348333D01*
X191166666Y-101348333D02*
X191119047Y-101491190D01*
X191119047Y-101491190D02*
X190547619Y-102062619D01*
X190547619Y-102062619D02*
X191166666Y-102062619D01*
%TO.C,J1*%
X190086666Y-80742619D02*
X190086666Y-81456904D01*
X190086666Y-81456904D02*
X190039047Y-81599761D01*
X190039047Y-81599761D02*
X189943809Y-81695000D01*
X189943809Y-81695000D02*
X189800952Y-81742619D01*
X189800952Y-81742619D02*
X189705714Y-81742619D01*
X191086666Y-81742619D02*
X190515238Y-81742619D01*
X190800952Y-81742619D02*
X190800952Y-80742619D01*
X190800952Y-80742619D02*
X190705714Y-80885476D01*
X190705714Y-80885476D02*
X190610476Y-80980714D01*
X190610476Y-80980714D02*
X190515238Y-81028333D01*
D12*
%TO.C,HS2*%
X164292619Y-112918094D02*
X163292619Y-112918094D01*
X163768809Y-112918094D02*
X163768809Y-112346666D01*
X164292619Y-112346666D02*
X163292619Y-112346666D01*
X164245000Y-111918094D02*
X164292619Y-111775237D01*
X164292619Y-111775237D02*
X164292619Y-111537142D01*
X164292619Y-111537142D02*
X164245000Y-111441904D01*
X164245000Y-111441904D02*
X164197380Y-111394285D01*
X164197380Y-111394285D02*
X164102142Y-111346666D01*
X164102142Y-111346666D02*
X164006904Y-111346666D01*
X164006904Y-111346666D02*
X163911666Y-111394285D01*
X163911666Y-111394285D02*
X163864047Y-111441904D01*
X163864047Y-111441904D02*
X163816428Y-111537142D01*
X163816428Y-111537142D02*
X163768809Y-111727618D01*
X163768809Y-111727618D02*
X163721190Y-111822856D01*
X163721190Y-111822856D02*
X163673571Y-111870475D01*
X163673571Y-111870475D02*
X163578333Y-111918094D01*
X163578333Y-111918094D02*
X163483095Y-111918094D01*
X163483095Y-111918094D02*
X163387857Y-111870475D01*
X163387857Y-111870475D02*
X163340238Y-111822856D01*
X163340238Y-111822856D02*
X163292619Y-111727618D01*
X163292619Y-111727618D02*
X163292619Y-111489523D01*
X163292619Y-111489523D02*
X163340238Y-111346666D01*
X163387857Y-110965713D02*
X163340238Y-110918094D01*
X163340238Y-110918094D02*
X163292619Y-110822856D01*
X163292619Y-110822856D02*
X163292619Y-110584761D01*
X163292619Y-110584761D02*
X163340238Y-110489523D01*
X163340238Y-110489523D02*
X163387857Y-110441904D01*
X163387857Y-110441904D02*
X163483095Y-110394285D01*
X163483095Y-110394285D02*
X163578333Y-110394285D01*
X163578333Y-110394285D02*
X163721190Y-110441904D01*
X163721190Y-110441904D02*
X164292619Y-111013332D01*
X164292619Y-111013332D02*
X164292619Y-110394285D01*
%TO.C,HS1*%
X164292619Y-92598094D02*
X163292619Y-92598094D01*
X163768809Y-92598094D02*
X163768809Y-92026666D01*
X164292619Y-92026666D02*
X163292619Y-92026666D01*
X164245000Y-91598094D02*
X164292619Y-91455237D01*
X164292619Y-91455237D02*
X164292619Y-91217142D01*
X164292619Y-91217142D02*
X164245000Y-91121904D01*
X164245000Y-91121904D02*
X164197380Y-91074285D01*
X164197380Y-91074285D02*
X164102142Y-91026666D01*
X164102142Y-91026666D02*
X164006904Y-91026666D01*
X164006904Y-91026666D02*
X163911666Y-91074285D01*
X163911666Y-91074285D02*
X163864047Y-91121904D01*
X163864047Y-91121904D02*
X163816428Y-91217142D01*
X163816428Y-91217142D02*
X163768809Y-91407618D01*
X163768809Y-91407618D02*
X163721190Y-91502856D01*
X163721190Y-91502856D02*
X163673571Y-91550475D01*
X163673571Y-91550475D02*
X163578333Y-91598094D01*
X163578333Y-91598094D02*
X163483095Y-91598094D01*
X163483095Y-91598094D02*
X163387857Y-91550475D01*
X163387857Y-91550475D02*
X163340238Y-91502856D01*
X163340238Y-91502856D02*
X163292619Y-91407618D01*
X163292619Y-91407618D02*
X163292619Y-91169523D01*
X163292619Y-91169523D02*
X163340238Y-91026666D01*
X164292619Y-90074285D02*
X164292619Y-90645713D01*
X164292619Y-90359999D02*
X163292619Y-90359999D01*
X163292619Y-90359999D02*
X163435476Y-90455237D01*
X163435476Y-90455237D02*
X163530714Y-90550475D01*
X163530714Y-90550475D02*
X163578333Y-90645713D01*
D11*
%TO.C,D1*%
X132611905Y-86822619D02*
X132611905Y-85822619D01*
X132611905Y-85822619D02*
X132850000Y-85822619D01*
X132850000Y-85822619D02*
X132992857Y-85870238D01*
X132992857Y-85870238D02*
X133088095Y-85965476D01*
X133088095Y-85965476D02*
X133135714Y-86060714D01*
X133135714Y-86060714D02*
X133183333Y-86251190D01*
X133183333Y-86251190D02*
X133183333Y-86394047D01*
X133183333Y-86394047D02*
X133135714Y-86584523D01*
X133135714Y-86584523D02*
X133088095Y-86679761D01*
X133088095Y-86679761D02*
X132992857Y-86775000D01*
X132992857Y-86775000D02*
X132850000Y-86822619D01*
X132850000Y-86822619D02*
X132611905Y-86822619D01*
X134135714Y-86822619D02*
X133564286Y-86822619D01*
X133850000Y-86822619D02*
X133850000Y-85822619D01*
X133850000Y-85822619D02*
X133754762Y-85965476D01*
X133754762Y-85965476D02*
X133659524Y-86060714D01*
X133659524Y-86060714D02*
X133564286Y-86108333D01*
X136898095Y-88722619D02*
X136898095Y-87722619D01*
X137469523Y-88722619D02*
X137040952Y-88151190D01*
X137469523Y-87722619D02*
X136898095Y-88294047D01*
%TO.C,C9*%
X117348333Y-96887380D02*
X117300714Y-96935000D01*
X117300714Y-96935000D02*
X117157857Y-96982619D01*
X117157857Y-96982619D02*
X117062619Y-96982619D01*
X117062619Y-96982619D02*
X116919762Y-96935000D01*
X116919762Y-96935000D02*
X116824524Y-96839761D01*
X116824524Y-96839761D02*
X116776905Y-96744523D01*
X116776905Y-96744523D02*
X116729286Y-96554047D01*
X116729286Y-96554047D02*
X116729286Y-96411190D01*
X116729286Y-96411190D02*
X116776905Y-96220714D01*
X116776905Y-96220714D02*
X116824524Y-96125476D01*
X116824524Y-96125476D02*
X116919762Y-96030238D01*
X116919762Y-96030238D02*
X117062619Y-95982619D01*
X117062619Y-95982619D02*
X117157857Y-95982619D01*
X117157857Y-95982619D02*
X117300714Y-96030238D01*
X117300714Y-96030238D02*
X117348333Y-96077857D01*
X117824524Y-96982619D02*
X118015000Y-96982619D01*
X118015000Y-96982619D02*
X118110238Y-96935000D01*
X118110238Y-96935000D02*
X118157857Y-96887380D01*
X118157857Y-96887380D02*
X118253095Y-96744523D01*
X118253095Y-96744523D02*
X118300714Y-96554047D01*
X118300714Y-96554047D02*
X118300714Y-96173095D01*
X118300714Y-96173095D02*
X118253095Y-96077857D01*
X118253095Y-96077857D02*
X118205476Y-96030238D01*
X118205476Y-96030238D02*
X118110238Y-95982619D01*
X118110238Y-95982619D02*
X117919762Y-95982619D01*
X117919762Y-95982619D02*
X117824524Y-96030238D01*
X117824524Y-96030238D02*
X117776905Y-96077857D01*
X117776905Y-96077857D02*
X117729286Y-96173095D01*
X117729286Y-96173095D02*
X117729286Y-96411190D01*
X117729286Y-96411190D02*
X117776905Y-96506428D01*
X117776905Y-96506428D02*
X117824524Y-96554047D01*
X117824524Y-96554047D02*
X117919762Y-96601666D01*
X117919762Y-96601666D02*
X118110238Y-96601666D01*
X118110238Y-96601666D02*
X118205476Y-96554047D01*
X118205476Y-96554047D02*
X118253095Y-96506428D01*
X118253095Y-96506428D02*
X118300714Y-96411190D01*
%TO.C,C8*%
X116572380Y-89066666D02*
X116620000Y-89114285D01*
X116620000Y-89114285D02*
X116667619Y-89257142D01*
X116667619Y-89257142D02*
X116667619Y-89352380D01*
X116667619Y-89352380D02*
X116620000Y-89495237D01*
X116620000Y-89495237D02*
X116524761Y-89590475D01*
X116524761Y-89590475D02*
X116429523Y-89638094D01*
X116429523Y-89638094D02*
X116239047Y-89685713D01*
X116239047Y-89685713D02*
X116096190Y-89685713D01*
X116096190Y-89685713D02*
X115905714Y-89638094D01*
X115905714Y-89638094D02*
X115810476Y-89590475D01*
X115810476Y-89590475D02*
X115715238Y-89495237D01*
X115715238Y-89495237D02*
X115667619Y-89352380D01*
X115667619Y-89352380D02*
X115667619Y-89257142D01*
X115667619Y-89257142D02*
X115715238Y-89114285D01*
X115715238Y-89114285D02*
X115762857Y-89066666D01*
X116096190Y-88495237D02*
X116048571Y-88590475D01*
X116048571Y-88590475D02*
X116000952Y-88638094D01*
X116000952Y-88638094D02*
X115905714Y-88685713D01*
X115905714Y-88685713D02*
X115858095Y-88685713D01*
X115858095Y-88685713D02*
X115762857Y-88638094D01*
X115762857Y-88638094D02*
X115715238Y-88590475D01*
X115715238Y-88590475D02*
X115667619Y-88495237D01*
X115667619Y-88495237D02*
X115667619Y-88304761D01*
X115667619Y-88304761D02*
X115715238Y-88209523D01*
X115715238Y-88209523D02*
X115762857Y-88161904D01*
X115762857Y-88161904D02*
X115858095Y-88114285D01*
X115858095Y-88114285D02*
X115905714Y-88114285D01*
X115905714Y-88114285D02*
X116000952Y-88161904D01*
X116000952Y-88161904D02*
X116048571Y-88209523D01*
X116048571Y-88209523D02*
X116096190Y-88304761D01*
X116096190Y-88304761D02*
X116096190Y-88495237D01*
X116096190Y-88495237D02*
X116143809Y-88590475D01*
X116143809Y-88590475D02*
X116191428Y-88638094D01*
X116191428Y-88638094D02*
X116286666Y-88685713D01*
X116286666Y-88685713D02*
X116477142Y-88685713D01*
X116477142Y-88685713D02*
X116572380Y-88638094D01*
X116572380Y-88638094D02*
X116620000Y-88590475D01*
X116620000Y-88590475D02*
X116667619Y-88495237D01*
X116667619Y-88495237D02*
X116667619Y-88304761D01*
X116667619Y-88304761D02*
X116620000Y-88209523D01*
X116620000Y-88209523D02*
X116572380Y-88161904D01*
X116572380Y-88161904D02*
X116477142Y-88114285D01*
X116477142Y-88114285D02*
X116286666Y-88114285D01*
X116286666Y-88114285D02*
X116191428Y-88161904D01*
X116191428Y-88161904D02*
X116143809Y-88209523D01*
X116143809Y-88209523D02*
X116096190Y-88304761D01*
%TO.C,C7*%
X122287380Y-104306666D02*
X122335000Y-104354285D01*
X122335000Y-104354285D02*
X122382619Y-104497142D01*
X122382619Y-104497142D02*
X122382619Y-104592380D01*
X122382619Y-104592380D02*
X122335000Y-104735237D01*
X122335000Y-104735237D02*
X122239761Y-104830475D01*
X122239761Y-104830475D02*
X122144523Y-104878094D01*
X122144523Y-104878094D02*
X121954047Y-104925713D01*
X121954047Y-104925713D02*
X121811190Y-104925713D01*
X121811190Y-104925713D02*
X121620714Y-104878094D01*
X121620714Y-104878094D02*
X121525476Y-104830475D01*
X121525476Y-104830475D02*
X121430238Y-104735237D01*
X121430238Y-104735237D02*
X121382619Y-104592380D01*
X121382619Y-104592380D02*
X121382619Y-104497142D01*
X121382619Y-104497142D02*
X121430238Y-104354285D01*
X121430238Y-104354285D02*
X121477857Y-104306666D01*
X121382619Y-103973332D02*
X121382619Y-103306666D01*
X121382619Y-103306666D02*
X122382619Y-103735237D01*
%TO.C,C6*%
X122287380Y-114466666D02*
X122335000Y-114514285D01*
X122335000Y-114514285D02*
X122382619Y-114657142D01*
X122382619Y-114657142D02*
X122382619Y-114752380D01*
X122382619Y-114752380D02*
X122335000Y-114895237D01*
X122335000Y-114895237D02*
X122239761Y-114990475D01*
X122239761Y-114990475D02*
X122144523Y-115038094D01*
X122144523Y-115038094D02*
X121954047Y-115085713D01*
X121954047Y-115085713D02*
X121811190Y-115085713D01*
X121811190Y-115085713D02*
X121620714Y-115038094D01*
X121620714Y-115038094D02*
X121525476Y-114990475D01*
X121525476Y-114990475D02*
X121430238Y-114895237D01*
X121430238Y-114895237D02*
X121382619Y-114752380D01*
X121382619Y-114752380D02*
X121382619Y-114657142D01*
X121382619Y-114657142D02*
X121430238Y-114514285D01*
X121430238Y-114514285D02*
X121477857Y-114466666D01*
X121382619Y-113609523D02*
X121382619Y-113799999D01*
X121382619Y-113799999D02*
X121430238Y-113895237D01*
X121430238Y-113895237D02*
X121477857Y-113942856D01*
X121477857Y-113942856D02*
X121620714Y-114038094D01*
X121620714Y-114038094D02*
X121811190Y-114085713D01*
X121811190Y-114085713D02*
X122192142Y-114085713D01*
X122192142Y-114085713D02*
X122287380Y-114038094D01*
X122287380Y-114038094D02*
X122335000Y-113990475D01*
X122335000Y-113990475D02*
X122382619Y-113895237D01*
X122382619Y-113895237D02*
X122382619Y-113704761D01*
X122382619Y-113704761D02*
X122335000Y-113609523D01*
X122335000Y-113609523D02*
X122287380Y-113561904D01*
X122287380Y-113561904D02*
X122192142Y-113514285D01*
X122192142Y-113514285D02*
X121954047Y-113514285D01*
X121954047Y-113514285D02*
X121858809Y-113561904D01*
X121858809Y-113561904D02*
X121811190Y-113609523D01*
X121811190Y-113609523D02*
X121763571Y-113704761D01*
X121763571Y-113704761D02*
X121763571Y-113895237D01*
X121763571Y-113895237D02*
X121811190Y-113990475D01*
X121811190Y-113990475D02*
X121858809Y-114038094D01*
X121858809Y-114038094D02*
X121954047Y-114085713D01*
%TO.C,C5*%
X140067380Y-114466666D02*
X140115000Y-114514285D01*
X140115000Y-114514285D02*
X140162619Y-114657142D01*
X140162619Y-114657142D02*
X140162619Y-114752380D01*
X140162619Y-114752380D02*
X140115000Y-114895237D01*
X140115000Y-114895237D02*
X140019761Y-114990475D01*
X140019761Y-114990475D02*
X139924523Y-115038094D01*
X139924523Y-115038094D02*
X139734047Y-115085713D01*
X139734047Y-115085713D02*
X139591190Y-115085713D01*
X139591190Y-115085713D02*
X139400714Y-115038094D01*
X139400714Y-115038094D02*
X139305476Y-114990475D01*
X139305476Y-114990475D02*
X139210238Y-114895237D01*
X139210238Y-114895237D02*
X139162619Y-114752380D01*
X139162619Y-114752380D02*
X139162619Y-114657142D01*
X139162619Y-114657142D02*
X139210238Y-114514285D01*
X139210238Y-114514285D02*
X139257857Y-114466666D01*
X139162619Y-113561904D02*
X139162619Y-114038094D01*
X139162619Y-114038094D02*
X139638809Y-114085713D01*
X139638809Y-114085713D02*
X139591190Y-114038094D01*
X139591190Y-114038094D02*
X139543571Y-113942856D01*
X139543571Y-113942856D02*
X139543571Y-113704761D01*
X139543571Y-113704761D02*
X139591190Y-113609523D01*
X139591190Y-113609523D02*
X139638809Y-113561904D01*
X139638809Y-113561904D02*
X139734047Y-113514285D01*
X139734047Y-113514285D02*
X139972142Y-113514285D01*
X139972142Y-113514285D02*
X140067380Y-113561904D01*
X140067380Y-113561904D02*
X140115000Y-113609523D01*
X140115000Y-113609523D02*
X140162619Y-113704761D01*
X140162619Y-113704761D02*
X140162619Y-113942856D01*
X140162619Y-113942856D02*
X140115000Y-114038094D01*
X140115000Y-114038094D02*
X140067380Y-114085713D01*
%TO.C,C4*%
X140067380Y-94146666D02*
X140115000Y-94194285D01*
X140115000Y-94194285D02*
X140162619Y-94337142D01*
X140162619Y-94337142D02*
X140162619Y-94432380D01*
X140162619Y-94432380D02*
X140115000Y-94575237D01*
X140115000Y-94575237D02*
X140019761Y-94670475D01*
X140019761Y-94670475D02*
X139924523Y-94718094D01*
X139924523Y-94718094D02*
X139734047Y-94765713D01*
X139734047Y-94765713D02*
X139591190Y-94765713D01*
X139591190Y-94765713D02*
X139400714Y-94718094D01*
X139400714Y-94718094D02*
X139305476Y-94670475D01*
X139305476Y-94670475D02*
X139210238Y-94575237D01*
X139210238Y-94575237D02*
X139162619Y-94432380D01*
X139162619Y-94432380D02*
X139162619Y-94337142D01*
X139162619Y-94337142D02*
X139210238Y-94194285D01*
X139210238Y-94194285D02*
X139257857Y-94146666D01*
X139495952Y-93289523D02*
X140162619Y-93289523D01*
X139115000Y-93527618D02*
X139829285Y-93765713D01*
X139829285Y-93765713D02*
X139829285Y-93146666D01*
%TO.C,C3*%
X145147380Y-104466666D02*
X145195000Y-104514285D01*
X145195000Y-104514285D02*
X145242619Y-104657142D01*
X145242619Y-104657142D02*
X145242619Y-104752380D01*
X145242619Y-104752380D02*
X145195000Y-104895237D01*
X145195000Y-104895237D02*
X145099761Y-104990475D01*
X145099761Y-104990475D02*
X145004523Y-105038094D01*
X145004523Y-105038094D02*
X144814047Y-105085713D01*
X144814047Y-105085713D02*
X144671190Y-105085713D01*
X144671190Y-105085713D02*
X144480714Y-105038094D01*
X144480714Y-105038094D02*
X144385476Y-104990475D01*
X144385476Y-104990475D02*
X144290238Y-104895237D01*
X144290238Y-104895237D02*
X144242619Y-104752380D01*
X144242619Y-104752380D02*
X144242619Y-104657142D01*
X144242619Y-104657142D02*
X144290238Y-104514285D01*
X144290238Y-104514285D02*
X144337857Y-104466666D01*
X144242619Y-104133332D02*
X144242619Y-103514285D01*
X144242619Y-103514285D02*
X144623571Y-103847618D01*
X144623571Y-103847618D02*
X144623571Y-103704761D01*
X144623571Y-103704761D02*
X144671190Y-103609523D01*
X144671190Y-103609523D02*
X144718809Y-103561904D01*
X144718809Y-103561904D02*
X144814047Y-103514285D01*
X144814047Y-103514285D02*
X145052142Y-103514285D01*
X145052142Y-103514285D02*
X145147380Y-103561904D01*
X145147380Y-103561904D02*
X145195000Y-103609523D01*
X145195000Y-103609523D02*
X145242619Y-103704761D01*
X145242619Y-103704761D02*
X145242619Y-103990475D01*
X145242619Y-103990475D02*
X145195000Y-104085713D01*
X145195000Y-104085713D02*
X145147380Y-104133332D01*
%TO.C,C2*%
X150227380Y-110656666D02*
X150275000Y-110704285D01*
X150275000Y-110704285D02*
X150322619Y-110847142D01*
X150322619Y-110847142D02*
X150322619Y-110942380D01*
X150322619Y-110942380D02*
X150275000Y-111085237D01*
X150275000Y-111085237D02*
X150179761Y-111180475D01*
X150179761Y-111180475D02*
X150084523Y-111228094D01*
X150084523Y-111228094D02*
X149894047Y-111275713D01*
X149894047Y-111275713D02*
X149751190Y-111275713D01*
X149751190Y-111275713D02*
X149560714Y-111228094D01*
X149560714Y-111228094D02*
X149465476Y-111180475D01*
X149465476Y-111180475D02*
X149370238Y-111085237D01*
X149370238Y-111085237D02*
X149322619Y-110942380D01*
X149322619Y-110942380D02*
X149322619Y-110847142D01*
X149322619Y-110847142D02*
X149370238Y-110704285D01*
X149370238Y-110704285D02*
X149417857Y-110656666D01*
X149417857Y-110275713D02*
X149370238Y-110228094D01*
X149370238Y-110228094D02*
X149322619Y-110132856D01*
X149322619Y-110132856D02*
X149322619Y-109894761D01*
X149322619Y-109894761D02*
X149370238Y-109799523D01*
X149370238Y-109799523D02*
X149417857Y-109751904D01*
X149417857Y-109751904D02*
X149513095Y-109704285D01*
X149513095Y-109704285D02*
X149608333Y-109704285D01*
X149608333Y-109704285D02*
X149751190Y-109751904D01*
X149751190Y-109751904D02*
X150322619Y-110323332D01*
X150322619Y-110323332D02*
X150322619Y-109704285D01*
%TO.C,C1*%
X150227380Y-91606666D02*
X150275000Y-91654285D01*
X150275000Y-91654285D02*
X150322619Y-91797142D01*
X150322619Y-91797142D02*
X150322619Y-91892380D01*
X150322619Y-91892380D02*
X150275000Y-92035237D01*
X150275000Y-92035237D02*
X150179761Y-92130475D01*
X150179761Y-92130475D02*
X150084523Y-92178094D01*
X150084523Y-92178094D02*
X149894047Y-92225713D01*
X149894047Y-92225713D02*
X149751190Y-92225713D01*
X149751190Y-92225713D02*
X149560714Y-92178094D01*
X149560714Y-92178094D02*
X149465476Y-92130475D01*
X149465476Y-92130475D02*
X149370238Y-92035237D01*
X149370238Y-92035237D02*
X149322619Y-91892380D01*
X149322619Y-91892380D02*
X149322619Y-91797142D01*
X149322619Y-91797142D02*
X149370238Y-91654285D01*
X149370238Y-91654285D02*
X149417857Y-91606666D01*
X150322619Y-90654285D02*
X150322619Y-91225713D01*
X150322619Y-90939999D02*
X149322619Y-90939999D01*
X149322619Y-90939999D02*
X149465476Y-91035237D01*
X149465476Y-91035237D02*
X149560714Y-91130475D01*
X149560714Y-91130475D02*
X149608333Y-91225713D01*
D13*
%TO.C,Q2*%
X159931000Y-103690000D02*
X154660000Y-103690000D01*
X159931000Y-109956000D02*
X154660000Y-109956000D01*
X159931000Y-119830000D02*
X154660000Y-119830000D01*
X159931000Y-103690000D02*
X159931000Y-119830000D01*
X154660000Y-103690000D02*
X154660000Y-119830000D01*
X159931000Y-113565000D02*
X154660000Y-113565000D01*
%TO.C,Q1*%
X159931000Y-83370000D02*
X154660000Y-83370000D01*
X159931000Y-89636000D02*
X154660000Y-89636000D01*
X159931000Y-99510000D02*
X154660000Y-99510000D01*
X159931000Y-83370000D02*
X159931000Y-99510000D01*
X154660000Y-83370000D02*
X154660000Y-99510000D01*
X159931000Y-93245000D02*
X154660000Y-93245000D01*
%TO.C,J4*%
X106620000Y-93980000D02*
X106620000Y-96580000D01*
X109280000Y-93980000D02*
X109280000Y-96580000D01*
X106620000Y-93980000D02*
X109280000Y-93980000D01*
X107950000Y-91380000D02*
X109280000Y-91380000D01*
X109280000Y-91380000D02*
X109280000Y-92710000D01*
X106620000Y-96580000D02*
X109280000Y-96580000D01*
%TO.C,U4*%
X123285000Y-83780000D02*
X123285000Y-94020000D01*
X123285000Y-87050000D02*
X121775000Y-87050000D01*
X123285000Y-90751000D02*
X121775000Y-90751000D01*
X123285000Y-83780000D02*
X118644000Y-83780000D01*
X118644000Y-83780000D02*
X118644000Y-94020000D01*
X123285000Y-94020000D02*
X118644000Y-94020000D01*
X121775000Y-83780000D02*
X121775000Y-94020000D01*
%TO.C,U3*%
X136010000Y-109170000D02*
X134360000Y-109170000D01*
X130710000Y-109170000D02*
X130710000Y-119450000D01*
X136010000Y-119450000D02*
X136010000Y-109170000D01*
X132360000Y-109170000D02*
X130710000Y-109170000D01*
X130710000Y-119450000D02*
X136010000Y-119450000D01*
X132360000Y-109170000D02*
G75*
G03*
X134360000Y-109170000I1000000J0D01*
G01*
%TO.C,U2*%
X136010000Y-88850000D02*
X134360000Y-88850000D01*
X130710000Y-88850000D02*
X130710000Y-99130000D01*
X136010000Y-99130000D02*
X136010000Y-88850000D01*
X132360000Y-88850000D02*
X130710000Y-88850000D01*
X130710000Y-99130000D02*
X136010000Y-99130000D01*
X132360000Y-88850000D02*
G75*
G03*
X134360000Y-88850000I1000000J0D01*
G01*
%TO.C,U1*%
X112930000Y-100265000D02*
X112930000Y-118165000D01*
X118230000Y-100265000D02*
X116580000Y-100265000D01*
X112930000Y-118165000D02*
X118230000Y-118165000D01*
X118230000Y-118165000D02*
X118230000Y-100265000D01*
X114580000Y-100265000D02*
X112930000Y-100265000D01*
X114580000Y-100265000D02*
G75*
G03*
X116580000Y-100265000I1000000J0D01*
G01*
%TO.C,R8*%
X110140000Y-112380000D02*
X108300000Y-112380000D01*
X108300000Y-112380000D02*
X108300000Y-116220000D01*
X110140000Y-116220000D02*
X110140000Y-112380000D01*
X109220000Y-111430000D02*
X109220000Y-112380000D01*
X108300000Y-116220000D02*
X110140000Y-116220000D01*
X109220000Y-117170000D02*
X109220000Y-116220000D01*
%TO.C,R7*%
X110140000Y-102220000D02*
X108300000Y-102220000D01*
X108300000Y-102220000D02*
X108300000Y-106060000D01*
X110140000Y-106060000D02*
X110140000Y-102220000D01*
X109220000Y-101270000D02*
X109220000Y-102220000D01*
X108300000Y-106060000D02*
X110140000Y-106060000D01*
X109220000Y-107010000D02*
X109220000Y-106060000D01*
%TO.C,R6*%
X124810000Y-113680000D02*
X126650000Y-113680000D01*
X126650000Y-113680000D02*
X126650000Y-109840000D01*
X124810000Y-109840000D02*
X124810000Y-113680000D01*
X125730000Y-114630000D02*
X125730000Y-113680000D01*
X126650000Y-109840000D02*
X124810000Y-109840000D01*
X125730000Y-108890000D02*
X125730000Y-109840000D01*
%TO.C,R5*%
X126650000Y-94600000D02*
X124810000Y-94600000D01*
X124810000Y-94600000D02*
X124810000Y-98440000D01*
X126650000Y-98440000D02*
X126650000Y-94600000D01*
X125730000Y-93650000D02*
X125730000Y-94600000D01*
X124810000Y-98440000D02*
X126650000Y-98440000D01*
X125730000Y-99390000D02*
X125730000Y-98440000D01*
%TO.C,R4*%
X150800000Y-101600000D02*
X151750000Y-101600000D01*
X151750000Y-100680000D02*
X151750000Y-102520000D01*
X156540000Y-101600000D02*
X155590000Y-101600000D01*
X151750000Y-102520000D02*
X155590000Y-102520000D01*
X155590000Y-100680000D02*
X151750000Y-100680000D01*
X155590000Y-102520000D02*
X155590000Y-100680000D01*
%TO.C,R3*%
X155590000Y-82200000D02*
X155590000Y-80360000D01*
X155590000Y-80360000D02*
X151750000Y-80360000D01*
X151750000Y-82200000D02*
X155590000Y-82200000D01*
X156540000Y-81280000D02*
X155590000Y-81280000D01*
X151750000Y-80360000D02*
X151750000Y-82200000D01*
X150800000Y-81280000D02*
X151750000Y-81280000D01*
%TO.C,R2*%
X151480000Y-113680000D02*
X153320000Y-113680000D01*
X153320000Y-113680000D02*
X153320000Y-109840000D01*
X151480000Y-109840000D02*
X151480000Y-113680000D01*
X152400000Y-114630000D02*
X152400000Y-113680000D01*
X153320000Y-109840000D02*
X151480000Y-109840000D01*
X152400000Y-108890000D02*
X152400000Y-109840000D01*
%TO.C,R1*%
X151480000Y-94630000D02*
X153320000Y-94630000D01*
X153320000Y-94630000D02*
X153320000Y-90790000D01*
X151480000Y-90790000D02*
X151480000Y-94630000D01*
X152400000Y-95580000D02*
X152400000Y-94630000D01*
X153320000Y-90790000D02*
X151480000Y-90790000D01*
X152400000Y-89840000D02*
X152400000Y-90790000D01*
%TO.C,J5*%
X115270000Y-75522500D02*
X116320000Y-75522500D01*
X116320000Y-76572500D02*
X116320000Y-75522500D01*
X110220000Y-84922500D02*
X101420000Y-84922500D01*
X116120000Y-75722500D02*
X116120000Y-78322500D01*
X116120000Y-82222500D02*
X116120000Y-84922500D01*
X116120000Y-84922500D02*
X114220000Y-84922500D01*
X101420000Y-84922500D02*
X101420000Y-75722500D01*
X101420000Y-75722500D02*
X116120000Y-75722500D01*
%TO.C,J3*%
X197104000Y-119888000D02*
X197104000Y-123952000D01*
X184404000Y-119888000D02*
X184404000Y-123952000D01*
X187452000Y-125984000D02*
X188468000Y-125984000D01*
X192532000Y-125984000D02*
X193548000Y-125984000D01*
X192532000Y-117856000D02*
X193548000Y-117856000D01*
X187452000Y-117856000D02*
X188468000Y-117856000D01*
%TO.C,J2*%
X197104000Y-99568000D02*
X197104000Y-103632000D01*
X184404000Y-99568000D02*
X184404000Y-103632000D01*
X187452000Y-105664000D02*
X188468000Y-105664000D01*
X192532000Y-105664000D02*
X193548000Y-105664000D01*
X192532000Y-97536000D02*
X193548000Y-97536000D01*
X187452000Y-97536000D02*
X188468000Y-97536000D01*
%TO.C,J1*%
X187372000Y-77216000D02*
X188388000Y-77216000D01*
X192452000Y-77216000D02*
X193468000Y-77216000D01*
X192452000Y-85344000D02*
X193468000Y-85344000D01*
X187372000Y-85344000D02*
X188388000Y-85344000D01*
X184324000Y-79248000D02*
X184324000Y-83312000D01*
X197024000Y-79248000D02*
X197024000Y-83312000D01*
D12*
%TO.C,HS2*%
X160330000Y-120180000D02*
X177330000Y-120180000D01*
X160330000Y-120180000D02*
X160330000Y-103180000D01*
X177330000Y-120180000D02*
X177330000Y-119180000D01*
X165330000Y-119180000D02*
X165330000Y-115180000D01*
X177330000Y-119180000D02*
X165330000Y-119180000D01*
X165330000Y-115180000D02*
X177330000Y-115180000D01*
X177330000Y-115180000D02*
X177330000Y-114180000D01*
X177330000Y-114180000D02*
X165330000Y-114180000D01*
X165330000Y-109180000D02*
X165330000Y-114180000D01*
X177330000Y-109180000D02*
X165330000Y-109180000D01*
X165330000Y-108180000D02*
X177330000Y-108180000D01*
X177330000Y-108180000D02*
X177330000Y-109180000D01*
X165330000Y-104180000D02*
X165330000Y-108180000D01*
X177330000Y-104180000D02*
X165330000Y-104180000D01*
X160330000Y-103180000D02*
X177330000Y-103180000D01*
X177330000Y-103180000D02*
X177330000Y-104180000D01*
%TO.C,HS1*%
X160330000Y-99860000D02*
X177330000Y-99860000D01*
X160330000Y-99860000D02*
X160330000Y-82860000D01*
X177330000Y-99860000D02*
X177330000Y-98860000D01*
X165330000Y-98860000D02*
X165330000Y-94860000D01*
X177330000Y-98860000D02*
X165330000Y-98860000D01*
X165330000Y-94860000D02*
X177330000Y-94860000D01*
X177330000Y-94860000D02*
X177330000Y-93860000D01*
X177330000Y-93860000D02*
X165330000Y-93860000D01*
X165330000Y-88860000D02*
X165330000Y-93860000D01*
X177330000Y-88860000D02*
X165330000Y-88860000D01*
X165330000Y-87860000D02*
X177330000Y-87860000D01*
X177330000Y-87860000D02*
X177330000Y-88860000D01*
X165330000Y-83860000D02*
X165330000Y-87860000D01*
X177330000Y-83860000D02*
X165330000Y-83860000D01*
X160330000Y-82860000D02*
X177330000Y-82860000D01*
X177330000Y-82860000D02*
X177330000Y-83860000D01*
D13*
%TO.C,D1*%
X135170000Y-87830000D02*
X135170000Y-84890000D01*
X136070000Y-87830000D02*
X130630000Y-87830000D01*
X135290000Y-87830000D02*
X135290000Y-84890000D01*
X136070000Y-87500000D02*
X136070000Y-87830000D01*
X136070000Y-84890000D02*
X130630000Y-84890000D01*
X135050000Y-87830000D02*
X135050000Y-84890000D01*
X136070000Y-85220000D02*
X136070000Y-84890000D01*
X130630000Y-84890000D02*
X130630000Y-85220000D01*
X130630000Y-87830000D02*
X130630000Y-87500000D01*
%TO.C,C9*%
X120635000Y-95595000D02*
X120635000Y-95150000D01*
X114395000Y-95595000D02*
X114395000Y-95150000D01*
X114395000Y-97890000D02*
X114395000Y-97445000D01*
X120635000Y-97890000D02*
X114395000Y-97890000D01*
X120635000Y-97890000D02*
X120635000Y-97445000D01*
X120635000Y-95150000D02*
X114395000Y-95150000D01*
%TO.C,C8*%
X115280000Y-85780000D02*
X114835000Y-85780000D01*
X115280000Y-92020000D02*
X114835000Y-92020000D01*
X117575000Y-92020000D02*
X117130000Y-92020000D01*
X117575000Y-85780000D02*
X117575000Y-92020000D01*
X117575000Y-85780000D02*
X117130000Y-85780000D01*
X114835000Y-85780000D02*
X114835000Y-92020000D01*
%TO.C,C7*%
X120995000Y-101020000D02*
X120550000Y-101020000D01*
X120995000Y-107260000D02*
X120550000Y-107260000D01*
X123290000Y-107260000D02*
X122845000Y-107260000D01*
X123290000Y-101020000D02*
X123290000Y-107260000D01*
X123290000Y-101020000D02*
X122845000Y-101020000D01*
X120550000Y-101020000D02*
X120550000Y-107260000D01*
%TO.C,C6*%
X120995000Y-111180000D02*
X120550000Y-111180000D01*
X120995000Y-117420000D02*
X120550000Y-117420000D01*
X123290000Y-117420000D02*
X122845000Y-117420000D01*
X123290000Y-111180000D02*
X123290000Y-117420000D01*
X123290000Y-111180000D02*
X122845000Y-111180000D01*
X120550000Y-111180000D02*
X120550000Y-117420000D01*
%TO.C,C5*%
X138775000Y-111180000D02*
X138330000Y-111180000D01*
X138775000Y-117420000D02*
X138330000Y-117420000D01*
X141070000Y-117420000D02*
X140625000Y-117420000D01*
X141070000Y-111180000D02*
X141070000Y-117420000D01*
X141070000Y-111180000D02*
X140625000Y-111180000D01*
X138330000Y-111180000D02*
X138330000Y-117420000D01*
%TO.C,C4*%
X138775000Y-90860000D02*
X138330000Y-90860000D01*
X138775000Y-97100000D02*
X138330000Y-97100000D01*
X141070000Y-97100000D02*
X140625000Y-97100000D01*
X141070000Y-90860000D02*
X141070000Y-97100000D01*
X141070000Y-90860000D02*
X140625000Y-90860000D01*
X138330000Y-90860000D02*
X138330000Y-97100000D01*
%TO.C,C3*%
X148400000Y-112920000D02*
X148400000Y-95680000D01*
X144780000Y-113260000D02*
X144780000Y-112920000D01*
X141160000Y-95680000D02*
X141160000Y-112920000D01*
X141160000Y-112920000D02*
X148400000Y-112920000D01*
X144780000Y-95340000D02*
X144780000Y-95680000D01*
X148400000Y-95680000D02*
X141160000Y-95680000D01*
%TO.C,C2*%
X151230000Y-113610000D02*
X151230000Y-107370000D01*
X148490000Y-113610000D02*
X148935000Y-113610000D01*
X148490000Y-113610000D02*
X148490000Y-107370000D01*
X148490000Y-107370000D02*
X148935000Y-107370000D01*
X150785000Y-107370000D02*
X151230000Y-107370000D01*
X150785000Y-113610000D02*
X151230000Y-113610000D01*
%TO.C,C1*%
X150785000Y-94520000D02*
X151230000Y-94520000D01*
X150785000Y-88280000D02*
X151230000Y-88280000D01*
X148490000Y-88280000D02*
X148935000Y-88280000D01*
X148490000Y-94520000D02*
X148490000Y-88280000D01*
X148490000Y-94520000D02*
X148935000Y-94520000D01*
X151230000Y-94520000D02*
X151230000Y-88280000D01*
%TD*%
M02*
