%TF.GenerationSoftware,KiCad,Pcbnew,7.0.2*%
%TF.CreationDate,2023-10-17T20:48:40+09:00*%
%TF.ProjectId,Bridge,42726964-6765-42e6-9b69-6361645f7063,rev?*%
%TF.SameCoordinates,Original*%
%TF.FileFunction,Soldermask,Bot*%
%TF.FilePolarity,Negative*%
%FSLAX46Y46*%
G04 Gerber Fmt 4.6, Leading zero omitted, Abs format (unit mm)*
G04 Created by KiCad (PCBNEW 7.0.2) date 2023-10-17 20:48:40*
%MOMM*%
%LPD*%
G01*
G04 APERTURE LIST*
G04 Aperture macros list*
%AMRoundRect*
0 Rectangle with rounded corners*
0 $1 Rounding radius*
0 $2 $3 $4 $5 $6 $7 $8 $9 X,Y pos of 4 corners*
0 Add a 4 corners polygon primitive as box body*
4,1,4,$2,$3,$4,$5,$6,$7,$8,$9,$2,$3,0*
0 Add four circle primitives for the rounded corners*
1,1,$1+$1,$2,$3*
1,1,$1+$1,$4,$5*
1,1,$1+$1,$6,$7*
1,1,$1+$1,$8,$9*
0 Add four rect primitives between the rounded corners*
20,1,$1+$1,$2,$3,$4,$5,0*
20,1,$1+$1,$4,$5,$6,$7,0*
20,1,$1+$1,$6,$7,$8,$9,0*
20,1,$1+$1,$8,$9,$2,$3,0*%
G04 Aperture macros list end*
%ADD10O,4.500000X2.500000*%
%ADD11R,4.500000X2.500000*%
%ADD12R,1.700000X1.700000*%
%ADD13O,1.700000X1.700000*%
%ADD14R,2.000000X1.905000*%
%ADD15O,2.000000X1.905000*%
%ADD16R,1.600000X1.600000*%
%ADD17O,1.600000X1.600000*%
%ADD18C,1.400000*%
%ADD19O,1.400000X1.400000*%
%ADD20RoundRect,0.875000X-0.875000X-0.875000X0.875000X-0.875000X0.875000X0.875000X-0.875000X0.875000X0*%
%ADD21RoundRect,0.750000X-0.750000X-1.000000X0.750000X-1.000000X0.750000X1.000000X-0.750000X1.000000X0*%
%ADD22R,3.500000X3.500000*%
%ADD23O,3.800000X2.600000*%
%ADD24C,3.000000*%
%ADD25R,1.800000X1.800000*%
%ADD26O,1.800000X1.800000*%
%ADD27C,1.600000*%
G04 APERTURE END LIST*
D10*
%TO.C,Q2*%
X157480000Y-117210000D03*
X157480000Y-111760000D03*
D11*
X157480000Y-106310000D03*
%TD*%
D10*
%TO.C,Q1*%
X157480000Y-96890000D03*
X157480000Y-91440000D03*
D11*
X157480000Y-85990000D03*
%TD*%
D12*
%TO.C,J4*%
X107950000Y-92710000D03*
D13*
X107950000Y-95250000D03*
%TD*%
D14*
%TO.C,U4*%
X120015000Y-86360000D03*
D15*
X120015000Y-88900000D03*
X120015000Y-91440000D03*
%TD*%
D16*
%TO.C,U3*%
X129550000Y-110500000D03*
D17*
X129550000Y-113040000D03*
X129550000Y-115580000D03*
X129550000Y-118120000D03*
X137170000Y-118120000D03*
X137170000Y-115580000D03*
X137170000Y-113040000D03*
X137170000Y-110500000D03*
%TD*%
D16*
%TO.C,U2*%
X129550000Y-90180000D03*
D17*
X129550000Y-92720000D03*
X129550000Y-95260000D03*
X129550000Y-97800000D03*
X137170000Y-97800000D03*
X137170000Y-95260000D03*
X137170000Y-92720000D03*
X137170000Y-90180000D03*
%TD*%
D16*
%TO.C,U1*%
X111770000Y-101595000D03*
D17*
X111770000Y-104135000D03*
X111770000Y-106675000D03*
X111770000Y-109215000D03*
X111770000Y-111755000D03*
X111770000Y-114295000D03*
X111770000Y-116835000D03*
X119390000Y-116835000D03*
X119390000Y-114295000D03*
X119390000Y-111755000D03*
X119390000Y-109215000D03*
X119390000Y-106675000D03*
X119390000Y-104135000D03*
X119390000Y-101595000D03*
%TD*%
D18*
%TO.C,R8*%
X109220000Y-118110000D03*
D19*
X109220000Y-110490000D03*
%TD*%
D18*
%TO.C,R7*%
X109220000Y-107950000D03*
D19*
X109220000Y-100330000D03*
%TD*%
D18*
%TO.C,R6*%
X125730000Y-107950000D03*
D19*
X125730000Y-115570000D03*
%TD*%
D18*
%TO.C,R5*%
X125730000Y-100330000D03*
D19*
X125730000Y-92710000D03*
%TD*%
%TO.C,R4*%
X157480000Y-101600000D03*
D18*
X149860000Y-101600000D03*
%TD*%
%TO.C,R3*%
X149860000Y-81280000D03*
D19*
X157480000Y-81280000D03*
%TD*%
D18*
%TO.C,R2*%
X152400000Y-107950000D03*
D19*
X152400000Y-115570000D03*
%TD*%
D18*
%TO.C,R1*%
X152400000Y-88900000D03*
D19*
X152400000Y-96520000D03*
%TD*%
D20*
%TO.C,J5*%
X112220000Y-85022500D03*
D21*
X109220000Y-80322500D03*
D22*
X115220000Y-80322500D03*
%TD*%
D23*
%TO.C,J3*%
X185500000Y-118370000D03*
X190580000Y-118370000D03*
X195660000Y-118370000D03*
X195660000Y-125476000D03*
X190580000Y-125482000D03*
X185500000Y-125482000D03*
%TD*%
%TO.C,J2*%
X185500000Y-98050000D03*
X190580000Y-98050000D03*
X195660000Y-98050000D03*
X195660000Y-105156000D03*
X190580000Y-105162000D03*
X185500000Y-105162000D03*
%TD*%
%TO.C,J1*%
X185420000Y-84842000D03*
X190500000Y-84842000D03*
X195580000Y-84836000D03*
X195580000Y-77730000D03*
X190500000Y-77730000D03*
X185420000Y-77730000D03*
%TD*%
D24*
%TO.C,HS2*%
X163830000Y-116680000D03*
X163830000Y-106680000D03*
%TD*%
%TO.C,HS1*%
X163830000Y-96360000D03*
X163830000Y-86360000D03*
%TD*%
D25*
%TO.C,D1*%
X137160000Y-86360000D03*
D26*
X129540000Y-86360000D03*
%TD*%
D27*
%TO.C,C9*%
X120015000Y-96520000D03*
X115015000Y-96520000D03*
%TD*%
%TO.C,C8*%
X116205000Y-86400000D03*
X116205000Y-91400000D03*
%TD*%
%TO.C,C7*%
X121920000Y-101640000D03*
X121920000Y-106640000D03*
%TD*%
%TO.C,C6*%
X121920000Y-111800000D03*
X121920000Y-116800000D03*
%TD*%
%TO.C,C5*%
X139700000Y-111800000D03*
X139700000Y-116800000D03*
%TD*%
%TO.C,C4*%
X139700000Y-91480000D03*
X139700000Y-96480000D03*
%TD*%
%TO.C,C3*%
X144780000Y-94300000D03*
D17*
X144780000Y-114300000D03*
%TD*%
D27*
%TO.C,C2*%
X149860000Y-107990000D03*
X149860000Y-112990000D03*
%TD*%
%TO.C,C1*%
X149860000Y-93900000D03*
X149860000Y-88900000D03*
%TD*%
M02*
