%TF.GenerationSoftware,KiCad,Pcbnew,7.0.2*%
%TF.CreationDate,2023-10-17T20:48:39+09:00*%
%TF.ProjectId,Bridge,42726964-6765-42e6-9b69-6361645f7063,rev?*%
%TF.SameCoordinates,Original*%
%TF.FileFunction,Copper,L1,Top*%
%TF.FilePolarity,Positive*%
%FSLAX46Y46*%
G04 Gerber Fmt 4.6, Leading zero omitted, Abs format (unit mm)*
G04 Created by KiCad (PCBNEW 7.0.2) date 2023-10-17 20:48:39*
%MOMM*%
%LPD*%
G01*
G04 APERTURE LIST*
G04 Aperture macros list*
%AMRoundRect*
0 Rectangle with rounded corners*
0 $1 Rounding radius*
0 $2 $3 $4 $5 $6 $7 $8 $9 X,Y pos of 4 corners*
0 Add a 4 corners polygon primitive as box body*
4,1,4,$2,$3,$4,$5,$6,$7,$8,$9,$2,$3,0*
0 Add four circle primitives for the rounded corners*
1,1,$1+$1,$2,$3*
1,1,$1+$1,$4,$5*
1,1,$1+$1,$6,$7*
1,1,$1+$1,$8,$9*
0 Add four rect primitives between the rounded corners*
20,1,$1+$1,$2,$3,$4,$5,0*
20,1,$1+$1,$4,$5,$6,$7,0*
20,1,$1+$1,$6,$7,$8,$9,0*
20,1,$1+$1,$8,$9,$2,$3,0*%
G04 Aperture macros list end*
%TA.AperFunction,ComponentPad*%
%ADD10O,4.500000X2.500000*%
%TD*%
%TA.AperFunction,ComponentPad*%
%ADD11R,4.500000X2.500000*%
%TD*%
%TA.AperFunction,ComponentPad*%
%ADD12R,1.700000X1.700000*%
%TD*%
%TA.AperFunction,ComponentPad*%
%ADD13O,1.700000X1.700000*%
%TD*%
%TA.AperFunction,ComponentPad*%
%ADD14R,2.000000X1.905000*%
%TD*%
%TA.AperFunction,ComponentPad*%
%ADD15O,2.000000X1.905000*%
%TD*%
%TA.AperFunction,ComponentPad*%
%ADD16R,1.600000X1.600000*%
%TD*%
%TA.AperFunction,ComponentPad*%
%ADD17O,1.600000X1.600000*%
%TD*%
%TA.AperFunction,ComponentPad*%
%ADD18C,1.400000*%
%TD*%
%TA.AperFunction,ComponentPad*%
%ADD19O,1.400000X1.400000*%
%TD*%
%TA.AperFunction,ComponentPad*%
%ADD20RoundRect,0.875000X-0.875000X-0.875000X0.875000X-0.875000X0.875000X0.875000X-0.875000X0.875000X0*%
%TD*%
%TA.AperFunction,ComponentPad*%
%ADD21RoundRect,0.750000X-0.750000X-1.000000X0.750000X-1.000000X0.750000X1.000000X-0.750000X1.000000X0*%
%TD*%
%TA.AperFunction,ComponentPad*%
%ADD22R,3.500000X3.500000*%
%TD*%
%TA.AperFunction,ComponentPad*%
%ADD23O,3.800000X2.600000*%
%TD*%
%TA.AperFunction,ComponentPad*%
%ADD24C,3.000000*%
%TD*%
%TA.AperFunction,ComponentPad*%
%ADD25R,1.800000X1.800000*%
%TD*%
%TA.AperFunction,ComponentPad*%
%ADD26O,1.800000X1.800000*%
%TD*%
%TA.AperFunction,ComponentPad*%
%ADD27C,1.600000*%
%TD*%
%TA.AperFunction,ViaPad*%
%ADD28C,0.800000*%
%TD*%
%TA.AperFunction,Conductor*%
%ADD29C,1.000000*%
%TD*%
%TA.AperFunction,Conductor*%
%ADD30C,3.000000*%
%TD*%
%TA.AperFunction,Conductor*%
%ADD31C,0.250000*%
%TD*%
G04 APERTURE END LIST*
D10*
%TO.P,Q2,3,S*%
%TO.N,GND*%
X157480000Y-117210000D03*
%TO.P,Q2,2,D*%
%TO.N,Net-(J2-Pin_1)*%
X157480000Y-111760000D03*
D11*
%TO.P,Q2,1,G*%
%TO.N,Net-(Q2-G)*%
X157480000Y-106310000D03*
%TD*%
D10*
%TO.P,Q1,3,S*%
%TO.N,Net-(J2-Pin_1)*%
X157480000Y-96890000D03*
%TO.P,Q1,2,D*%
%TO.N,Net-(J1-Pin_1)*%
X157480000Y-91440000D03*
D11*
%TO.P,Q1,1,G*%
%TO.N,Net-(Q1-G)*%
X157480000Y-85990000D03*
%TD*%
D12*
%TO.P,J4,1,Pin_1*%
%TO.N,Net-(J4-Pin_1)*%
X107950000Y-92710000D03*
D13*
%TO.P,J4,2,Pin_2*%
%TO.N,GND*%
X107950000Y-95250000D03*
%TD*%
D14*
%TO.P,U4,1,IN*%
%TO.N,+12V*%
X120015000Y-86360000D03*
D15*
%TO.P,U4,2,GND*%
%TO.N,GND*%
X120015000Y-88900000D03*
%TO.P,U4,3,OUT*%
%TO.N,+5V*%
X120015000Y-91440000D03*
%TD*%
D16*
%TO.P,U3,1,NC*%
%TO.N,unconnected-(U3-NC-Pad1)*%
X129550000Y-110500000D03*
D17*
%TO.P,U3,2,A*%
%TO.N,Net-(U3-A)*%
X129550000Y-113040000D03*
%TO.P,U3,3,C*%
%TO.N,GND*%
X129550000Y-115580000D03*
%TO.P,U3,4,NC*%
%TO.N,unconnected-(U3-NC-Pad4)*%
X129550000Y-118120000D03*
%TO.P,U3,5,VEE*%
%TO.N,GND*%
X137170000Y-118120000D03*
%TO.P,U3,6,VO*%
%TO.N,Net-(R4-Pad1)*%
X137170000Y-115580000D03*
%TO.P,U3,7,VO*%
X137170000Y-113040000D03*
%TO.P,U3,8,VCC*%
%TO.N,+12V*%
X137170000Y-110500000D03*
%TD*%
D16*
%TO.P,U2,1,NC*%
%TO.N,unconnected-(U2-NC-Pad1)*%
X129550000Y-90180000D03*
D17*
%TO.P,U2,2,A*%
%TO.N,Net-(U2-A)*%
X129550000Y-92720000D03*
%TO.P,U2,3,C*%
%TO.N,GND*%
X129550000Y-95260000D03*
%TO.P,U2,4,NC*%
%TO.N,unconnected-(U2-NC-Pad4)*%
X129550000Y-97800000D03*
%TO.P,U2,5,VEE*%
%TO.N,Net-(J2-Pin_1)*%
X137170000Y-97800000D03*
%TO.P,U2,6,VO*%
%TO.N,Net-(R3-Pad1)*%
X137170000Y-95260000D03*
%TO.P,U2,7,VO*%
X137170000Y-92720000D03*
%TO.P,U2,8,VCC*%
%TO.N,Net-(D1-K)*%
X137170000Y-90180000D03*
%TD*%
D16*
%TO.P,U1,1*%
%TO.N,Net-(J4-Pin_1)*%
X111770000Y-101595000D03*
D17*
%TO.P,U1,2*%
X111770000Y-104135000D03*
%TO.P,U1,3*%
%TO.N,Net-(R7-Pad1)*%
X111770000Y-106675000D03*
%TO.P,U1,4*%
X111770000Y-109215000D03*
%TO.P,U1,5*%
X111770000Y-111755000D03*
%TO.P,U1,6*%
%TO.N,Net-(R8-Pad1)*%
X111770000Y-114295000D03*
%TO.P,U1,7,GND*%
%TO.N,GND*%
X111770000Y-116835000D03*
%TO.P,U1,8*%
%TO.N,Net-(R5-Pad1)*%
X119390000Y-116835000D03*
%TO.P,U1,9*%
%TO.N,Net-(R7-Pad1)*%
X119390000Y-114295000D03*
%TO.P,U1,10*%
%TO.N,Net-(C6-Pad1)*%
X119390000Y-111755000D03*
%TO.P,U1,11*%
%TO.N,Net-(R6-Pad1)*%
X119390000Y-109215000D03*
%TO.P,U1,12*%
%TO.N,Net-(C7-Pad2)*%
X119390000Y-106675000D03*
%TO.P,U1,13*%
%TO.N,Net-(R8-Pad1)*%
X119390000Y-104135000D03*
%TO.P,U1,14,VCC*%
%TO.N,+5V*%
X119390000Y-101595000D03*
%TD*%
D18*
%TO.P,R8,1*%
%TO.N,Net-(R8-Pad1)*%
X109220000Y-118110000D03*
D19*
%TO.P,R8,2*%
%TO.N,Net-(C7-Pad2)*%
X109220000Y-110490000D03*
%TD*%
D18*
%TO.P,R7,1*%
%TO.N,Net-(R7-Pad1)*%
X109220000Y-107950000D03*
D19*
%TO.P,R7,2*%
%TO.N,Net-(C6-Pad1)*%
X109220000Y-100330000D03*
%TD*%
D18*
%TO.P,R6,1*%
%TO.N,Net-(R6-Pad1)*%
X125730000Y-107950000D03*
D19*
%TO.P,R6,2*%
%TO.N,Net-(U3-A)*%
X125730000Y-115570000D03*
%TD*%
D18*
%TO.P,R5,1*%
%TO.N,Net-(R5-Pad1)*%
X125730000Y-100330000D03*
D19*
%TO.P,R5,2*%
%TO.N,Net-(U2-A)*%
X125730000Y-92710000D03*
%TD*%
%TO.P,R4,2*%
%TO.N,Net-(Q2-G)*%
X157480000Y-101600000D03*
D18*
%TO.P,R4,1*%
%TO.N,Net-(R4-Pad1)*%
X149860000Y-101600000D03*
%TD*%
%TO.P,R3,1*%
%TO.N,Net-(R3-Pad1)*%
X149860000Y-81280000D03*
D19*
%TO.P,R3,2*%
%TO.N,Net-(Q1-G)*%
X157480000Y-81280000D03*
%TD*%
D18*
%TO.P,R2,1*%
%TO.N,Net-(C2-Pad2)*%
X152400000Y-107950000D03*
D19*
%TO.P,R2,2*%
%TO.N,GND*%
X152400000Y-115570000D03*
%TD*%
D18*
%TO.P,R1,1*%
%TO.N,Net-(C1-Pad2)*%
X152400000Y-88900000D03*
D19*
%TO.P,R1,2*%
%TO.N,Net-(J2-Pin_1)*%
X152400000Y-96520000D03*
%TD*%
D20*
%TO.P,J5,3*%
%TO.N,N/C*%
X112220000Y-85022500D03*
D21*
%TO.P,J5,2*%
%TO.N,GND*%
X109220000Y-80322500D03*
D22*
%TO.P,J5,1*%
%TO.N,+12V*%
X115220000Y-80322500D03*
%TD*%
D23*
%TO.P,J3,1,Pin_1*%
%TO.N,GND*%
X185500000Y-118370000D03*
X190580000Y-118370000D03*
X195660000Y-118370000D03*
X195660000Y-125476000D03*
X190580000Y-125482000D03*
X185500000Y-125482000D03*
%TD*%
%TO.P,J2,1,Pin_1*%
%TO.N,Net-(J2-Pin_1)*%
X185500000Y-98050000D03*
X190580000Y-98050000D03*
X195660000Y-98050000D03*
X195660000Y-105156000D03*
X190580000Y-105162000D03*
X185500000Y-105162000D03*
%TD*%
%TO.P,J1,1,Pin_1*%
%TO.N,Net-(J1-Pin_1)*%
X185420000Y-84842000D03*
X190500000Y-84842000D03*
X195580000Y-84836000D03*
X195580000Y-77730000D03*
X190500000Y-77730000D03*
X185420000Y-77730000D03*
%TD*%
D24*
%TO.P,HS2,2*%
%TO.N,GND*%
X163830000Y-116680000D03*
%TO.P,HS2,1*%
X163830000Y-106680000D03*
%TD*%
%TO.P,HS1,2*%
%TO.N,GND*%
X163830000Y-96360000D03*
%TO.P,HS1,1*%
X163830000Y-86360000D03*
%TD*%
D25*
%TO.P,D1,1,K*%
%TO.N,Net-(D1-K)*%
X137160000Y-86360000D03*
D26*
%TO.P,D1,2,A*%
%TO.N,+12V*%
X129540000Y-86360000D03*
%TD*%
D27*
%TO.P,C9,1*%
%TO.N,+5V*%
X120015000Y-96520000D03*
%TO.P,C9,2*%
%TO.N,GND*%
X115015000Y-96520000D03*
%TD*%
%TO.P,C8,1*%
%TO.N,+12V*%
X116205000Y-86400000D03*
%TO.P,C8,2*%
%TO.N,GND*%
X116205000Y-91400000D03*
%TD*%
%TO.P,C7,1*%
%TO.N,GND*%
X121920000Y-101640000D03*
%TO.P,C7,2*%
%TO.N,Net-(C7-Pad2)*%
X121920000Y-106640000D03*
%TD*%
%TO.P,C6,1*%
%TO.N,Net-(C6-Pad1)*%
X121920000Y-111800000D03*
%TO.P,C6,2*%
%TO.N,GND*%
X121920000Y-116800000D03*
%TD*%
%TO.P,C5,1*%
%TO.N,+12V*%
X139700000Y-111800000D03*
%TO.P,C5,2*%
%TO.N,GND*%
X139700000Y-116800000D03*
%TD*%
%TO.P,C4,1*%
%TO.N,Net-(D1-K)*%
X139700000Y-91480000D03*
%TO.P,C4,2*%
%TO.N,Net-(J2-Pin_1)*%
X139700000Y-96480000D03*
%TD*%
%TO.P,C3,1*%
%TO.N,Net-(J1-Pin_1)*%
X144780000Y-94300000D03*
D17*
%TO.P,C3,2*%
%TO.N,GND*%
X144780000Y-114300000D03*
%TD*%
D27*
%TO.P,C2,2*%
%TO.N,Net-(C2-Pad2)*%
X149860000Y-107990000D03*
%TO.P,C2,1*%
%TO.N,Net-(J2-Pin_1)*%
X149860000Y-112990000D03*
%TD*%
%TO.P,C1,1*%
%TO.N,Net-(J1-Pin_1)*%
X149860000Y-93900000D03*
%TO.P,C1,2*%
%TO.N,Net-(C1-Pad2)*%
X149860000Y-88900000D03*
%TD*%
D28*
%TO.N,GND*%
X121920000Y-84455000D03*
X121920000Y-83185000D03*
X118110000Y-84455000D03*
X118110000Y-83185000D03*
X127000000Y-91440000D03*
X124460000Y-91440000D03*
X124460000Y-93980000D03*
X127000000Y-93980000D03*
X107950000Y-90805000D03*
X109220000Y-90805000D03*
X110490000Y-91440000D03*
X111760000Y-92075000D03*
X113030000Y-93345000D03*
X113030000Y-95250000D03*
X113030000Y-97155000D03*
X110490000Y-97155000D03*
X110490000Y-95250000D03*
X109855000Y-93980000D03*
X127635000Y-113030000D03*
X126365000Y-113665000D03*
X123825000Y-116205000D03*
X125095000Y-117475000D03*
X126365000Y-117475000D03*
X127635000Y-118110000D03*
X127635000Y-116840000D03*
X127635000Y-115570000D03*
X118110000Y-118110000D03*
X118110000Y-115570000D03*
X116205000Y-115570000D03*
X114935000Y-114300000D03*
X113665000Y-114300000D03*
X113030000Y-115570000D03*
X109855000Y-114300000D03*
X108585000Y-115570000D03*
X107950000Y-116840000D03*
X110490000Y-113030000D03*
X109855000Y-111760000D03*
X107950000Y-111760000D03*
X107950000Y-109220000D03*
X107950000Y-106680000D03*
X109855000Y-106680000D03*
X110490000Y-105410000D03*
X110490000Y-102870000D03*
X109855000Y-101600000D03*
X107950000Y-101600000D03*
X107950000Y-99060000D03*
X110490000Y-99060000D03*
X113030000Y-99060000D03*
X114300000Y-99060000D03*
X115570000Y-99695000D03*
X116840000Y-100965000D03*
X116840000Y-102235000D03*
X116840000Y-103505000D03*
X118110000Y-102870000D03*
X118110000Y-100330000D03*
X120650000Y-100330000D03*
X120650000Y-102870000D03*
X120650000Y-105410000D03*
X123190000Y-105410000D03*
X124460000Y-106680000D03*
X125730000Y-106045000D03*
X125730000Y-104775000D03*
X125730000Y-103505000D03*
X125730000Y-102235000D03*
X124460000Y-101600000D03*
X124460000Y-99060000D03*
X127000000Y-99060000D03*
X127635000Y-100330000D03*
X128270000Y-101600000D03*
X128270000Y-102870000D03*
X128270000Y-104140000D03*
X128270000Y-105410000D03*
X128270000Y-106680000D03*
X128270000Y-107950000D03*
X128270000Y-109220000D03*
X127000000Y-111125000D03*
X125730000Y-112395000D03*
X124460000Y-113665000D03*
X123190000Y-114935000D03*
X128270000Y-99060000D03*
X128270000Y-96520000D03*
X128270000Y-93980000D03*
X128270000Y-91440000D03*
X128270000Y-88900000D03*
X128270000Y-87630000D03*
X127635000Y-86360000D03*
X128270000Y-84455000D03*
X127000000Y-83185000D03*
X125730000Y-81915000D03*
X124460000Y-81915000D03*
X123190000Y-81915000D03*
X121920000Y-81915000D03*
X118110000Y-81915000D03*
X116840000Y-83185000D03*
X115570000Y-83185000D03*
X114300000Y-83185000D03*
X112395000Y-81280000D03*
X112395000Y-80010000D03*
X112395000Y-78740000D03*
X113030000Y-77470000D03*
X114300000Y-77470000D03*
X115570000Y-77470000D03*
X116840000Y-77470000D03*
X118110000Y-77470000D03*
X118110000Y-78740000D03*
X119380000Y-78740000D03*
X120650000Y-78740000D03*
X121920000Y-78740000D03*
X123190000Y-78740000D03*
X124460000Y-78740000D03*
X125730000Y-78740000D03*
X127000000Y-78740000D03*
X128270000Y-80010000D03*
X129540000Y-81280000D03*
X130810000Y-77470000D03*
X130810000Y-78740000D03*
X130810000Y-80010000D03*
X130810000Y-81280000D03*
X130810000Y-82550000D03*
X130810000Y-87630000D03*
X130810000Y-88900000D03*
X130810000Y-91440000D03*
X130810000Y-93980000D03*
X130810000Y-96520000D03*
X130810000Y-100330000D03*
X130810000Y-99060000D03*
X130810000Y-101600000D03*
X130810000Y-102870000D03*
X130810000Y-104140000D03*
X130810000Y-105410000D03*
X130810000Y-106680000D03*
X130810000Y-107950000D03*
X130810000Y-109220000D03*
X130810000Y-111760000D03*
X130810000Y-114300000D03*
X130810000Y-116840000D03*
X130810000Y-119380000D03*
X128270000Y-119380000D03*
X127000000Y-119380000D03*
X125730000Y-119380000D03*
X124460000Y-119380000D03*
X123190000Y-119380000D03*
X120650000Y-119380000D03*
X121920000Y-119380000D03*
X119380000Y-119380000D03*
X118110000Y-119380000D03*
X116840000Y-119380000D03*
X115570000Y-119380000D03*
X114300000Y-119380000D03*
X113030000Y-119380000D03*
X111760000Y-119380000D03*
X110490000Y-119380000D03*
X107950000Y-119380000D03*
X106680000Y-118110000D03*
X106680000Y-115570000D03*
X106680000Y-113030000D03*
X106680000Y-110490000D03*
X106680000Y-107950000D03*
X106680000Y-105410000D03*
X106680000Y-102870000D03*
X106680000Y-100330000D03*
X106680000Y-97790000D03*
X106680000Y-90170000D03*
X106680000Y-87630000D03*
X106680000Y-85090000D03*
X106680000Y-82550000D03*
X106680000Y-80010000D03*
X106680000Y-77470000D03*
X107950000Y-76200000D03*
X110490000Y-76200000D03*
X113030000Y-76200000D03*
X115570000Y-76200000D03*
X118110000Y-76200000D03*
X120650000Y-76200000D03*
X123190000Y-76200000D03*
X125730000Y-76200000D03*
X128270000Y-76200000D03*
X130810000Y-76200000D03*
X129540000Y-76200000D03*
X127000000Y-76200000D03*
X124460000Y-76200000D03*
X121920000Y-76200000D03*
X119380000Y-76200000D03*
X116840000Y-76200000D03*
X114300000Y-76200000D03*
X111760000Y-76200000D03*
X109220000Y-76200000D03*
X106680000Y-88900000D03*
X106680000Y-86360000D03*
X106680000Y-83820000D03*
X106680000Y-81280000D03*
X106680000Y-78740000D03*
X106680000Y-76200000D03*
X106680000Y-99060000D03*
X106680000Y-101600000D03*
X106680000Y-104140000D03*
X106680000Y-106680000D03*
X106680000Y-109220000D03*
X106680000Y-111760000D03*
X106680000Y-114300000D03*
X106680000Y-116840000D03*
X106680000Y-119380000D03*
%TO.N,Net-(R8-Pad1)*%
X116840000Y-109220000D03*
%TD*%
D29*
%TO.N,GND*%
X132080000Y-115570000D02*
X131445000Y-115570000D01*
%TO.N,+5V*%
X119390000Y-99070000D02*
X119390000Y-101595000D01*
X119380000Y-99060000D02*
X119390000Y-99070000D01*
X120015000Y-98425000D02*
X119380000Y-99060000D01*
X120015000Y-96520000D02*
X120015000Y-98425000D01*
X120015000Y-91440000D02*
X120015000Y-96520000D01*
%TO.N,+12V*%
X116245000Y-86360000D02*
X116205000Y-86400000D01*
X120015000Y-86360000D02*
X116245000Y-86360000D01*
X120015000Y-80322500D02*
X120015000Y-86360000D01*
X120015000Y-80322500D02*
X126042500Y-80322500D01*
X115220000Y-80322500D02*
X120015000Y-80322500D01*
D30*
%TO.N,GND*%
X162190000Y-121920000D02*
X157480000Y-117210000D01*
X180340000Y-121920000D02*
X162190000Y-121920000D01*
X185506000Y-125476000D02*
X185500000Y-125482000D01*
X195660000Y-125476000D02*
X185506000Y-125476000D01*
X183902000Y-125482000D02*
X185500000Y-125482000D01*
X183890000Y-118370000D02*
X180340000Y-121920000D01*
X180340000Y-121920000D02*
X183902000Y-125482000D01*
X195660000Y-118370000D02*
X183890000Y-118370000D01*
%TO.N,Net-(J2-Pin_1)*%
X171450000Y-111760000D02*
X178048000Y-105162000D01*
X157480000Y-111760000D02*
X171450000Y-111760000D01*
X178048000Y-105162000D02*
X185500000Y-105162000D01*
X172085000Y-101600000D02*
X178515242Y-101600000D01*
X172085000Y-101600000D02*
X162190000Y-101600000D01*
X180975000Y-101600000D02*
X172085000Y-101600000D01*
X162190000Y-101600000D02*
X157480000Y-96890000D01*
X195654000Y-105162000D02*
X195660000Y-105156000D01*
X185500000Y-105162000D02*
X195654000Y-105162000D01*
X184525000Y-98050000D02*
X180975000Y-101600000D01*
X185500000Y-98050000D02*
X184525000Y-98050000D01*
X195660000Y-98050000D02*
X185500000Y-98050000D01*
%TO.N,Net-(J1-Pin_1)*%
X177546000Y-84836000D02*
X177482500Y-84772500D01*
X177482500Y-84772500D02*
X170815000Y-91440000D01*
X184525000Y-77730000D02*
X177482500Y-84772500D01*
X195580000Y-84836000D02*
X177546000Y-84836000D01*
X170815000Y-91440000D02*
X157480000Y-91440000D01*
X185420000Y-77730000D02*
X184525000Y-77730000D01*
X195580000Y-77730000D02*
X185420000Y-77730000D01*
D29*
%TO.N,GND*%
X132080000Y-115570000D02*
X132070000Y-115580000D01*
X134630000Y-118120000D02*
X132080000Y-115570000D01*
X137170000Y-118120000D02*
X134630000Y-118120000D01*
%TO.N,Net-(R4-Pad1)*%
X146050000Y-101600000D02*
X149860000Y-101600000D01*
X144780000Y-102870000D02*
X146050000Y-101600000D01*
X144780000Y-111760000D02*
X144780000Y-102870000D01*
X139700000Y-114300000D02*
X142240000Y-114300000D01*
X142240000Y-114300000D02*
X144780000Y-111760000D01*
%TO.N,Net-(Q2-G)*%
X157480000Y-106310000D02*
X157480000Y-101600000D01*
%TO.N,Net-(Q1-G)*%
X157480000Y-85990000D02*
X157480000Y-81280000D01*
%TO.N,Net-(R3-Pad1)*%
X146050000Y-81280000D02*
X149860000Y-81280000D01*
X144780000Y-82550000D02*
X146050000Y-81280000D01*
X144780000Y-91440000D02*
X144780000Y-82550000D01*
X139700000Y-93980000D02*
X142240000Y-93980000D01*
X142240000Y-93980000D02*
X144780000Y-91440000D01*
%TO.N,Net-(R4-Pad1)*%
X138420000Y-115580000D02*
X137170000Y-115580000D01*
X138440000Y-113040000D02*
X139700000Y-114300000D01*
X137170000Y-113040000D02*
X138440000Y-113040000D01*
X139700000Y-114300000D02*
X138420000Y-115580000D01*
%TO.N,Net-(R3-Pad1)*%
X138440000Y-92720000D02*
X139700000Y-93980000D01*
X137170000Y-92720000D02*
X138440000Y-92720000D01*
X139700000Y-93980000D02*
X138420000Y-95260000D01*
X138420000Y-95260000D02*
X137170000Y-95260000D01*
%TO.N,Net-(J2-Pin_1)*%
X156250000Y-112990000D02*
X157480000Y-111760000D01*
X149860000Y-112990000D02*
X156250000Y-112990000D01*
%TO.N,Net-(C2-Pad2)*%
X149900000Y-107950000D02*
X149860000Y-107990000D01*
X152400000Y-107950000D02*
X149900000Y-107950000D01*
%TO.N,GND*%
X147690000Y-117210000D02*
X146050000Y-115570000D01*
X154040000Y-117210000D02*
X147690000Y-117210000D01*
%TO.N,Net-(J1-Pin_1)*%
X147640000Y-91440000D02*
X145180000Y-93900000D01*
X152320000Y-91440000D02*
X147640000Y-91440000D01*
%TO.N,GND*%
X142280000Y-116800000D02*
X144780000Y-114300000D01*
X139700000Y-116800000D02*
X142280000Y-116800000D01*
X146050000Y-115570000D02*
X144780000Y-114300000D01*
X152400000Y-115570000D02*
X146050000Y-115570000D01*
X154040000Y-117210000D02*
X152400000Y-115570000D01*
X157480000Y-117210000D02*
X154040000Y-117210000D01*
%TO.N,Net-(C1-Pad2)*%
X152400000Y-88900000D02*
X149860000Y-88900000D01*
%TO.N,Net-(J1-Pin_1)*%
X145180000Y-93900000D02*
X144780000Y-94300000D01*
X149860000Y-93900000D02*
X145180000Y-93900000D01*
X157480000Y-91440000D02*
X152320000Y-91440000D01*
X152320000Y-91440000D02*
X149860000Y-93900000D01*
%TO.N,Net-(J2-Pin_1)*%
X139740000Y-96520000D02*
X139700000Y-96480000D01*
X152400000Y-96520000D02*
X139740000Y-96520000D01*
X152770000Y-96890000D02*
X152400000Y-96520000D01*
X157480000Y-96890000D02*
X152770000Y-96890000D01*
%TO.N,Net-(D1-K)*%
X137170000Y-90180000D02*
X137170000Y-86370000D01*
X138400000Y-90180000D02*
X139700000Y-91480000D01*
%TO.N,Net-(J2-Pin_1)*%
X138380000Y-97800000D02*
X139700000Y-96480000D01*
X137170000Y-97800000D02*
X138380000Y-97800000D01*
%TO.N,Net-(D1-K)*%
X137170000Y-86370000D02*
X137160000Y-86360000D01*
X137170000Y-90180000D02*
X138400000Y-90180000D01*
%TO.N,GND*%
X138380000Y-118120000D02*
X139700000Y-116800000D01*
X137170000Y-118120000D02*
X138380000Y-118120000D01*
%TO.N,+12V*%
X138400000Y-110500000D02*
X139700000Y-111800000D01*
X137170000Y-110500000D02*
X138400000Y-110500000D01*
X132080000Y-86360000D02*
X129540000Y-83820000D01*
X132080000Y-86360000D02*
X129540000Y-86360000D01*
X133350000Y-87630000D02*
X132080000Y-86360000D01*
X133350000Y-109220000D02*
X133350000Y-87630000D01*
X134630000Y-110500000D02*
X133350000Y-109220000D01*
X137170000Y-110500000D02*
X134630000Y-110500000D01*
X129540000Y-83820000D02*
X129540000Y-86360000D01*
X126042500Y-80322500D02*
X129540000Y-83820000D01*
D31*
%TO.N,Net-(U2-A)*%
X129540000Y-92710000D02*
X129550000Y-92720000D01*
X125730000Y-92710000D02*
X129540000Y-92710000D01*
%TO.N,Net-(U3-A)*%
X128290000Y-114300000D02*
X129550000Y-113040000D01*
X127000000Y-114300000D02*
X128290000Y-114300000D01*
X125730000Y-115570000D02*
X127000000Y-114300000D01*
%TO.N,Net-(R6-Pad1)*%
X121915000Y-109215000D02*
X119390000Y-109215000D01*
X121920000Y-109220000D02*
X121915000Y-109215000D01*
X123190000Y-107950000D02*
X121920000Y-109220000D01*
X125730000Y-107950000D02*
X123190000Y-107950000D01*
%TO.N,Net-(R5-Pad1)*%
X127000000Y-101600000D02*
X125730000Y-100330000D01*
X127000000Y-109225000D02*
X127000000Y-101600000D01*
X119390000Y-116835000D02*
X127000000Y-109225000D01*
%TO.N,Net-(R8-Pad1)*%
X118115000Y-104135000D02*
X119390000Y-104135000D01*
X116840000Y-105410000D02*
X118115000Y-104135000D01*
X116840000Y-109220000D02*
X116840000Y-105410000D01*
%TO.N,Net-(C6-Pad1)*%
X121875000Y-111755000D02*
X121920000Y-111800000D01*
X119390000Y-111755000D02*
X121875000Y-111755000D01*
X116845000Y-111755000D02*
X119390000Y-111755000D01*
X116840000Y-111760000D02*
X116845000Y-111755000D01*
X115570000Y-110490000D02*
X116840000Y-111760000D01*
X115570000Y-101600000D02*
X115570000Y-110490000D01*
X114300000Y-100330000D02*
X115570000Y-101600000D01*
X109220000Y-100330000D02*
X114300000Y-100330000D01*
%TO.N,Net-(R7-Pad1)*%
X116845000Y-114295000D02*
X119390000Y-114295000D01*
X116840000Y-114300000D02*
X116845000Y-114295000D01*
X114295000Y-111755000D02*
X116840000Y-114300000D01*
X111770000Y-111755000D02*
X114295000Y-111755000D01*
X111770000Y-106675000D02*
X111770000Y-111755000D01*
X110485000Y-109215000D02*
X111770000Y-109215000D01*
X109220000Y-107950000D02*
X110485000Y-109215000D01*
%TD*%
%TA.AperFunction,Conductor*%
%TO.N,GND*%
G36*
X132023039Y-74949685D02*
G01*
X132068794Y-75002489D01*
X132080000Y-75054000D01*
X132080000Y-84645717D01*
X132060315Y-84712756D01*
X132007511Y-84758511D01*
X131938353Y-84768455D01*
X131874797Y-84739430D01*
X131868319Y-84733398D01*
X130333632Y-83198712D01*
X130333628Y-83198706D01*
X130277693Y-83142772D01*
X130271287Y-83135860D01*
X130232864Y-83091102D01*
X130208804Y-83072478D01*
X130197026Y-83062105D01*
X126760067Y-79625147D01*
X126757912Y-79622938D01*
X126697559Y-79559447D01*
X126649140Y-79525746D01*
X126641618Y-79520075D01*
X126595905Y-79482800D01*
X126568940Y-79468715D01*
X126555519Y-79460584D01*
X126530549Y-79443205D01*
X126530548Y-79443204D01*
X126530546Y-79443203D01*
X126476345Y-79419943D01*
X126467836Y-79415902D01*
X126415553Y-79388592D01*
X126409626Y-79386896D01*
X126386298Y-79380221D01*
X126371520Y-79374959D01*
X126343558Y-79362960D01*
X126285772Y-79351083D01*
X126276628Y-79348838D01*
X126219921Y-79332613D01*
X126189575Y-79330302D01*
X126174034Y-79328122D01*
X126144242Y-79322000D01*
X126144241Y-79322000D01*
X126085258Y-79322000D01*
X126075844Y-79321642D01*
X126061766Y-79320570D01*
X126017024Y-79317163D01*
X126017023Y-79317163D01*
X126017022Y-79317163D01*
X125986849Y-79321006D01*
X125971183Y-79322000D01*
X120043501Y-79322000D01*
X120037221Y-79321841D01*
X120033297Y-79321642D01*
X119964064Y-79318130D01*
X119949559Y-79320353D01*
X119948142Y-79320570D01*
X119929365Y-79322000D01*
X117594499Y-79322000D01*
X117527460Y-79302315D01*
X117481705Y-79249511D01*
X117470499Y-79198000D01*
X117470499Y-78527939D01*
X117470499Y-78524628D01*
X117464091Y-78465017D01*
X117413796Y-78330169D01*
X117327546Y-78214954D01*
X117212331Y-78128704D01*
X117077483Y-78078409D01*
X117077482Y-78078408D01*
X117021166Y-78072354D01*
X117021165Y-78072353D01*
X117017873Y-78072000D01*
X117014550Y-78072000D01*
X113425439Y-78072000D01*
X113425420Y-78072000D01*
X113422128Y-78072001D01*
X113418848Y-78072353D01*
X113418840Y-78072354D01*
X113362515Y-78078409D01*
X113227669Y-78128704D01*
X113112454Y-78214954D01*
X113026204Y-78330168D01*
X112975909Y-78465016D01*
X112970195Y-78518167D01*
X112969500Y-78524627D01*
X112969500Y-78527948D01*
X112969500Y-78527949D01*
X112969500Y-82117060D01*
X112969500Y-82117078D01*
X112969501Y-82120372D01*
X112975909Y-82179983D01*
X113026204Y-82314831D01*
X113112454Y-82430046D01*
X113227669Y-82516296D01*
X113274940Y-82533927D01*
X113330873Y-82575796D01*
X113355291Y-82641261D01*
X113340440Y-82709534D01*
X113291035Y-82758940D01*
X113225033Y-82773934D01*
X113190242Y-82772086D01*
X113190240Y-82772085D01*
X113188622Y-82772000D01*
X111251378Y-82772000D01*
X111249753Y-82772086D01*
X111249727Y-82772087D01*
X111203040Y-82774567D01*
X111203031Y-82774568D01*
X111198759Y-82774795D01*
X111194561Y-82775606D01*
X111194552Y-82775608D01*
X110968877Y-82819254D01*
X110749807Y-82901927D01*
X110547868Y-83020430D01*
X110368858Y-83171358D01*
X110217930Y-83350368D01*
X110099427Y-83552307D01*
X110016754Y-83771377D01*
X109973108Y-83997052D01*
X109973106Y-83997061D01*
X109972295Y-84001259D01*
X109972068Y-84005531D01*
X109972067Y-84005540D01*
X109969587Y-84052227D01*
X109969586Y-84052253D01*
X109969500Y-84053878D01*
X109969500Y-85991122D01*
X109969586Y-85992747D01*
X109969587Y-85992772D01*
X109972067Y-86039459D01*
X109972067Y-86039466D01*
X109972295Y-86043741D01*
X109973107Y-86047940D01*
X109973108Y-86047947D01*
X110016754Y-86273622D01*
X110016755Y-86273626D01*
X110099426Y-86492690D01*
X110217930Y-86694632D01*
X110368858Y-86873642D01*
X110547868Y-87024570D01*
X110749810Y-87143074D01*
X110968874Y-87225745D01*
X111198759Y-87270205D01*
X111251378Y-87273000D01*
X111253022Y-87273000D01*
X113186978Y-87273000D01*
X113188622Y-87273000D01*
X113241241Y-87270205D01*
X113471126Y-87225745D01*
X113690190Y-87143074D01*
X113892132Y-87024570D01*
X114071142Y-86873642D01*
X114222070Y-86694632D01*
X114340574Y-86492690D01*
X114423245Y-86273626D01*
X114467705Y-86043741D01*
X114470500Y-85991122D01*
X114470500Y-84053878D01*
X114467705Y-84001259D01*
X114423245Y-83771374D01*
X114340574Y-83552310D01*
X114222070Y-83350368D01*
X114071142Y-83171358D01*
X113892132Y-83020430D01*
X113690190Y-82901926D01*
X113471126Y-82819255D01*
X113471121Y-82819254D01*
X113468475Y-82818742D01*
X113464974Y-82816934D01*
X113461251Y-82815529D01*
X113461414Y-82815095D01*
X113406395Y-82786682D01*
X113371503Y-82726148D01*
X113374876Y-82656360D01*
X113415445Y-82599475D01*
X113480328Y-82573552D01*
X113492007Y-82572999D01*
X117017872Y-82572999D01*
X117077483Y-82566591D01*
X117212331Y-82516296D01*
X117327546Y-82430046D01*
X117413796Y-82314831D01*
X117464091Y-82179983D01*
X117470500Y-82120373D01*
X117470500Y-81447000D01*
X117490185Y-81379961D01*
X117542989Y-81334206D01*
X117594500Y-81323000D01*
X118890500Y-81323000D01*
X118957539Y-81342685D01*
X119003294Y-81395489D01*
X119014500Y-81447000D01*
X119014500Y-84790523D01*
X118994815Y-84857562D01*
X118942011Y-84903317D01*
X118913878Y-84911036D01*
X118772669Y-84963704D01*
X118657454Y-85049954D01*
X118571204Y-85165169D01*
X118528810Y-85278833D01*
X118486939Y-85334767D01*
X118421474Y-85359184D01*
X118412628Y-85359500D01*
X117025462Y-85359500D01*
X116958423Y-85339815D01*
X116954339Y-85337075D01*
X116901411Y-85300015D01*
X116857734Y-85269432D01*
X116651497Y-85173261D01*
X116431689Y-85114364D01*
X116204999Y-85094531D01*
X115978310Y-85114364D01*
X115758502Y-85173261D01*
X115552264Y-85269432D01*
X115365859Y-85399953D01*
X115204953Y-85560859D01*
X115074432Y-85747264D01*
X114978261Y-85953502D01*
X114919364Y-86173310D01*
X114899531Y-86400000D01*
X114919364Y-86626689D01*
X114978261Y-86846497D01*
X115074432Y-87052735D01*
X115204953Y-87239140D01*
X115365859Y-87400046D01*
X115552264Y-87530567D01*
X115552265Y-87530567D01*
X115552266Y-87530568D01*
X115758504Y-87626739D01*
X115978308Y-87685635D01*
X116129435Y-87698857D01*
X116204999Y-87705468D01*
X116204999Y-87705467D01*
X116205000Y-87705468D01*
X116431692Y-87685635D01*
X116651496Y-87626739D01*
X116857734Y-87530568D01*
X117044139Y-87400047D01*
X117044140Y-87400046D01*
X117047368Y-87396819D01*
X117108691Y-87363334D01*
X117135049Y-87360500D01*
X118412628Y-87360500D01*
X118479667Y-87380185D01*
X118525422Y-87432989D01*
X118528810Y-87441167D01*
X118571204Y-87554831D01*
X118657454Y-87670046D01*
X118772669Y-87756296D01*
X118803805Y-87767909D01*
X118859738Y-87809779D01*
X118884155Y-87875243D01*
X118869304Y-87943516D01*
X118858325Y-87960252D01*
X118747347Y-88102836D01*
X118632780Y-88314539D01*
X118554619Y-88542207D01*
X118536633Y-88649999D01*
X118536634Y-88650000D01*
X119520148Y-88650000D01*
X119471441Y-88787047D01*
X119461123Y-88937886D01*
X119491884Y-89085915D01*
X119525090Y-89150000D01*
X118536633Y-89150000D01*
X118554619Y-89257792D01*
X118632780Y-89485460D01*
X118747348Y-89697164D01*
X118895201Y-89887126D01*
X119072294Y-90050153D01*
X119096385Y-90065892D01*
X119141742Y-90119038D01*
X119151166Y-90188269D01*
X119121665Y-90251605D01*
X119096388Y-90273508D01*
X119071992Y-90289446D01*
X118894829Y-90452536D01*
X118746929Y-90642559D01*
X118632319Y-90854340D01*
X118554134Y-91082084D01*
X118514499Y-91319601D01*
X118514499Y-91560398D01*
X118554134Y-91797915D01*
X118632319Y-92025659D01*
X118632321Y-92025664D01*
X118746928Y-92237439D01*
X118775752Y-92274472D01*
X118894831Y-92427466D01*
X118974482Y-92500788D01*
X119010473Y-92560674D01*
X119014500Y-92592018D01*
X119014500Y-95642410D01*
X118994815Y-95709449D01*
X118992075Y-95713533D01*
X118884432Y-95867264D01*
X118788261Y-96073502D01*
X118729364Y-96293310D01*
X118709531Y-96519999D01*
X118729364Y-96746689D01*
X118788261Y-96966497D01*
X118884432Y-97172734D01*
X118992075Y-97326465D01*
X119014402Y-97392671D01*
X119014500Y-97397588D01*
X119014500Y-97959216D01*
X118994815Y-98026255D01*
X118978181Y-98046897D01*
X118692702Y-98332376D01*
X118688151Y-98336703D01*
X118652022Y-98369346D01*
X118633787Y-98385821D01*
X118623726Y-98399523D01*
X118590441Y-98444850D01*
X118586597Y-98449815D01*
X118540300Y-98506594D01*
X118532841Y-98520874D01*
X118522885Y-98536847D01*
X118513352Y-98549828D01*
X118482769Y-98616390D01*
X118480003Y-98622028D01*
X118446090Y-98686951D01*
X118441657Y-98702443D01*
X118435121Y-98720092D01*
X118428395Y-98734730D01*
X118411836Y-98806082D01*
X118410262Y-98812157D01*
X118390113Y-98882578D01*
X118388890Y-98898640D01*
X118386039Y-98917246D01*
X118382396Y-98932944D01*
X118380540Y-99006183D01*
X118380222Y-99012454D01*
X118374662Y-99085479D01*
X118376697Y-99101459D01*
X118377650Y-99120253D01*
X118377242Y-99136359D01*
X118387555Y-99193896D01*
X118389500Y-99215772D01*
X118389499Y-100717410D01*
X118369814Y-100784450D01*
X118367075Y-100788532D01*
X118259432Y-100942265D01*
X118163261Y-101148502D01*
X118104364Y-101368310D01*
X118084531Y-101595000D01*
X118104364Y-101821689D01*
X118163261Y-102041497D01*
X118259432Y-102247735D01*
X118389953Y-102434140D01*
X118550859Y-102595046D01*
X118727923Y-102719026D01*
X118737266Y-102725568D01*
X118795275Y-102752618D01*
X118847714Y-102798791D01*
X118866865Y-102865985D01*
X118846649Y-102932866D01*
X118795275Y-102977382D01*
X118737263Y-103004433D01*
X118550859Y-103134953D01*
X118389952Y-103295860D01*
X118279019Y-103454291D01*
X118224442Y-103497916D01*
X118181340Y-103507107D01*
X118111297Y-103509308D01*
X118107142Y-103509439D01*
X118103250Y-103509500D01*
X118075650Y-103509500D01*
X118071799Y-103509986D01*
X118071768Y-103509988D01*
X118071640Y-103510005D01*
X118060028Y-103510918D01*
X118016372Y-103512290D01*
X117997135Y-103517879D01*
X117978094Y-103521822D01*
X117958208Y-103524335D01*
X117917582Y-103540419D01*
X117906537Y-103544200D01*
X117864613Y-103556381D01*
X117847365Y-103566581D01*
X117829903Y-103575135D01*
X117817915Y-103579881D01*
X117811265Y-103582515D01*
X117775926Y-103608189D01*
X117766168Y-103614599D01*
X117728579Y-103636829D01*
X117714410Y-103650998D01*
X117699622Y-103663628D01*
X117683413Y-103675405D01*
X117655572Y-103709058D01*
X117647711Y-103717696D01*
X116456208Y-104909199D01*
X116440110Y-104922096D01*
X116409890Y-104954277D01*
X116349649Y-104989670D01*
X116279835Y-104986876D01*
X116222614Y-104946781D01*
X116196155Y-104882115D01*
X116195500Y-104869391D01*
X116195500Y-101682739D01*
X116197763Y-101662238D01*
X116197064Y-101640000D01*
X116195561Y-101592144D01*
X116195500Y-101588250D01*
X116195500Y-101564544D01*
X116195500Y-101560650D01*
X116194998Y-101556681D01*
X116194080Y-101545024D01*
X116194063Y-101544484D01*
X116192709Y-101501373D01*
X116187120Y-101482140D01*
X116183174Y-101463082D01*
X116180664Y-101443208D01*
X116168861Y-101413397D01*
X116164585Y-101402597D01*
X116160804Y-101391552D01*
X116148619Y-101349613D01*
X116148618Y-101349612D01*
X116148618Y-101349610D01*
X116138417Y-101332361D01*
X116129860Y-101314895D01*
X116122486Y-101296268D01*
X116096813Y-101260932D01*
X116090402Y-101251172D01*
X116068169Y-101213578D01*
X116054006Y-101199415D01*
X116041369Y-101184620D01*
X116029595Y-101168414D01*
X116029594Y-101168413D01*
X115995935Y-101140568D01*
X115987305Y-101132714D01*
X114800802Y-99946211D01*
X114787906Y-99930113D01*
X114736775Y-99882098D01*
X114733978Y-99879387D01*
X114717227Y-99862636D01*
X114714471Y-99859880D01*
X114711290Y-99857412D01*
X114702422Y-99849837D01*
X114670582Y-99819938D01*
X114653024Y-99810285D01*
X114636764Y-99799604D01*
X114620936Y-99787327D01*
X114580851Y-99769980D01*
X114570361Y-99764841D01*
X114532091Y-99743802D01*
X114512691Y-99738821D01*
X114494284Y-99732519D01*
X114475897Y-99724562D01*
X114432758Y-99717729D01*
X114421324Y-99715361D01*
X114379019Y-99704500D01*
X114358984Y-99704500D01*
X114339586Y-99702973D01*
X114332162Y-99701797D01*
X114319805Y-99699840D01*
X114319804Y-99699840D01*
X114286751Y-99702964D01*
X114276325Y-99703950D01*
X114264656Y-99704500D01*
X110313742Y-99704500D01*
X110246703Y-99684815D01*
X110214788Y-99655227D01*
X110110980Y-99517762D01*
X109946562Y-99367875D01*
X109757404Y-99250754D01*
X109667105Y-99215772D01*
X109549940Y-99170382D01*
X109331243Y-99129500D01*
X109108757Y-99129500D01*
X108890060Y-99170382D01*
X108682595Y-99250754D01*
X108493437Y-99367875D01*
X108329019Y-99517762D01*
X108194941Y-99695311D01*
X108095769Y-99894473D01*
X108034885Y-100108462D01*
X108014357Y-100329999D01*
X108034885Y-100551537D01*
X108095769Y-100765526D01*
X108194941Y-100964688D01*
X108329019Y-101142237D01*
X108493437Y-101292124D01*
X108682595Y-101409245D01*
X108682597Y-101409245D01*
X108682599Y-101409247D01*
X108890060Y-101489618D01*
X109108757Y-101530500D01*
X109108759Y-101530500D01*
X109331241Y-101530500D01*
X109331243Y-101530500D01*
X109549940Y-101489618D01*
X109757401Y-101409247D01*
X109946562Y-101292124D01*
X110110981Y-101142236D01*
X110214788Y-101004772D01*
X110270897Y-100963137D01*
X110313742Y-100955500D01*
X110345500Y-100955500D01*
X110412539Y-100975185D01*
X110458294Y-101027989D01*
X110469500Y-101079500D01*
X110469500Y-102439560D01*
X110469500Y-102439578D01*
X110469501Y-102442872D01*
X110475909Y-102502483D01*
X110526204Y-102637331D01*
X110612454Y-102752546D01*
X110727669Y-102838796D01*
X110862517Y-102889091D01*
X110897594Y-102892862D01*
X110962143Y-102919598D01*
X111001993Y-102976989D01*
X111004488Y-103046814D01*
X110968837Y-103106904D01*
X110955463Y-103117725D01*
X110930861Y-103134951D01*
X110769953Y-103295859D01*
X110639432Y-103482264D01*
X110543261Y-103688502D01*
X110484364Y-103908310D01*
X110464531Y-104134999D01*
X110484364Y-104361689D01*
X110543261Y-104581497D01*
X110639432Y-104787735D01*
X110769953Y-104974140D01*
X110930859Y-105135046D01*
X110992073Y-105177908D01*
X111117266Y-105265568D01*
X111175275Y-105292618D01*
X111227714Y-105338791D01*
X111246865Y-105405985D01*
X111226649Y-105472866D01*
X111175275Y-105517382D01*
X111117263Y-105544433D01*
X110930859Y-105674953D01*
X110769953Y-105835859D01*
X110639432Y-106022264D01*
X110543261Y-106228502D01*
X110484364Y-106448310D01*
X110464531Y-106675000D01*
X110484364Y-106901689D01*
X110543261Y-107121497D01*
X110639432Y-107327735D01*
X110769953Y-107514140D01*
X110930859Y-107675046D01*
X111091623Y-107787613D01*
X111135248Y-107842189D01*
X111144500Y-107889188D01*
X111144500Y-108000812D01*
X111124815Y-108067851D01*
X111091623Y-108102387D01*
X110930860Y-108214953D01*
X110769953Y-108375860D01*
X110756077Y-108395677D01*
X110701499Y-108439301D01*
X110632001Y-108446492D01*
X110569647Y-108414968D01*
X110566823Y-108412232D01*
X110439146Y-108284555D01*
X110405661Y-108223232D01*
X110406922Y-108183242D01*
X110404055Y-108182977D01*
X110414363Y-108071732D01*
X110425643Y-107950000D01*
X110405115Y-107728464D01*
X110379958Y-107640046D01*
X110344230Y-107514473D01*
X110245058Y-107315311D01*
X110110980Y-107137762D01*
X109946562Y-106987875D01*
X109757404Y-106870754D01*
X109688393Y-106844019D01*
X109549940Y-106790382D01*
X109331243Y-106749500D01*
X109108757Y-106749500D01*
X108890060Y-106790382D01*
X108682595Y-106870754D01*
X108493437Y-106987875D01*
X108329019Y-107137762D01*
X108194941Y-107315311D01*
X108095769Y-107514473D01*
X108034885Y-107728462D01*
X108014357Y-107950000D01*
X108034885Y-108171537D01*
X108095769Y-108385526D01*
X108194941Y-108584688D01*
X108329019Y-108762237D01*
X108493437Y-108912124D01*
X108575499Y-108962934D01*
X108682599Y-109029247D01*
X108876522Y-109104373D01*
X108931924Y-109146946D01*
X108955514Y-109212713D01*
X108939803Y-109280793D01*
X108889779Y-109329572D01*
X108876526Y-109335624D01*
X108745346Y-109386444D01*
X108682596Y-109410754D01*
X108493437Y-109527875D01*
X108329019Y-109677762D01*
X108194941Y-109855311D01*
X108095769Y-110054473D01*
X108034885Y-110268462D01*
X108027740Y-110345568D01*
X108014357Y-110490000D01*
X108019065Y-110540811D01*
X108034885Y-110711537D01*
X108095769Y-110925526D01*
X108194941Y-111124688D01*
X108329019Y-111302237D01*
X108493437Y-111452124D01*
X108682595Y-111569245D01*
X108682597Y-111569245D01*
X108682599Y-111569247D01*
X108890060Y-111649618D01*
X109108757Y-111690500D01*
X109108759Y-111690500D01*
X109331241Y-111690500D01*
X109331243Y-111690500D01*
X109549940Y-111649618D01*
X109757401Y-111569247D01*
X109946562Y-111452124D01*
X110055161Y-111353123D01*
X110110980Y-111302237D01*
X110122006Y-111287636D01*
X110245058Y-111124689D01*
X110344229Y-110925528D01*
X110345351Y-110921587D01*
X110387029Y-110775101D01*
X110405115Y-110711536D01*
X110425643Y-110490000D01*
X110405115Y-110268464D01*
X110344229Y-110054473D01*
X110327972Y-110021824D01*
X110315710Y-109953039D01*
X110342583Y-109888544D01*
X110400059Y-109848816D01*
X110458371Y-109844079D01*
X110465196Y-109845160D01*
X110508674Y-109841050D01*
X110520344Y-109840500D01*
X110555812Y-109840500D01*
X110622851Y-109860185D01*
X110657387Y-109893377D01*
X110769953Y-110054140D01*
X110930859Y-110215046D01*
X111091623Y-110327613D01*
X111135248Y-110382189D01*
X111144500Y-110429188D01*
X111144500Y-110540812D01*
X111124815Y-110607851D01*
X111091623Y-110642387D01*
X110930859Y-110754953D01*
X110769953Y-110915859D01*
X110639432Y-111102264D01*
X110543261Y-111308502D01*
X110484364Y-111528310D01*
X110464531Y-111754999D01*
X110484364Y-111981689D01*
X110543261Y-112201497D01*
X110639432Y-112407735D01*
X110769953Y-112594140D01*
X110930859Y-112755046D01*
X110995128Y-112800047D01*
X111117266Y-112885568D01*
X111175275Y-112912618D01*
X111227714Y-112958791D01*
X111246865Y-113025985D01*
X111226649Y-113092866D01*
X111175275Y-113137382D01*
X111117263Y-113164433D01*
X110930859Y-113294953D01*
X110769953Y-113455859D01*
X110639432Y-113642264D01*
X110543261Y-113848502D01*
X110484364Y-114068310D01*
X110464531Y-114295000D01*
X110484364Y-114521689D01*
X110543261Y-114741497D01*
X110639432Y-114947735D01*
X110769953Y-115134140D01*
X110930859Y-115295046D01*
X111117264Y-115425567D01*
X111117265Y-115425567D01*
X111117266Y-115425568D01*
X111175865Y-115452893D01*
X111228304Y-115499065D01*
X111247456Y-115566259D01*
X111227240Y-115633140D01*
X111175866Y-115677656D01*
X111117522Y-115704863D01*
X110931180Y-115835341D01*
X110770341Y-115996180D01*
X110639865Y-116182519D01*
X110543733Y-116388673D01*
X110491128Y-116584999D01*
X110491128Y-116585000D01*
X111454314Y-116585000D01*
X111442359Y-116596955D01*
X111384835Y-116709852D01*
X111365014Y-116835000D01*
X111384835Y-116960148D01*
X111442359Y-117073045D01*
X111454314Y-117085000D01*
X110491128Y-117085000D01*
X110543733Y-117281326D01*
X110639865Y-117487480D01*
X110770341Y-117673819D01*
X110931180Y-117834658D01*
X111117519Y-117965134D01*
X111323673Y-118061266D01*
X111519999Y-118113871D01*
X111520000Y-118113871D01*
X111519999Y-117150685D01*
X111531955Y-117162641D01*
X111644852Y-117220165D01*
X111738519Y-117235000D01*
X111801481Y-117235000D01*
X111895148Y-117220165D01*
X112008045Y-117162641D01*
X112020000Y-117150686D01*
X112020000Y-118113871D01*
X112216326Y-118061266D01*
X112422480Y-117965134D01*
X112608819Y-117834658D01*
X112769658Y-117673819D01*
X112900134Y-117487480D01*
X112996266Y-117281326D01*
X113048872Y-117085000D01*
X112085686Y-117085000D01*
X112097641Y-117073045D01*
X112155165Y-116960148D01*
X112174986Y-116835000D01*
X112155165Y-116709852D01*
X112097641Y-116596955D01*
X112085686Y-116585000D01*
X113048872Y-116585000D01*
X113048871Y-116584999D01*
X112996266Y-116388673D01*
X112900134Y-116182519D01*
X112769658Y-115996180D01*
X112608819Y-115835341D01*
X112422482Y-115704866D01*
X112364133Y-115677657D01*
X112311694Y-115631484D01*
X112292543Y-115564290D01*
X112312759Y-115497409D01*
X112364134Y-115452893D01*
X112422734Y-115425568D01*
X112609139Y-115295047D01*
X112770047Y-115134139D01*
X112900568Y-114947734D01*
X112996739Y-114741496D01*
X113055635Y-114521692D01*
X113075468Y-114295000D01*
X113055635Y-114068308D01*
X112996739Y-113848504D01*
X112900568Y-113642266D01*
X112791499Y-113486497D01*
X112770046Y-113455859D01*
X112609140Y-113294953D01*
X112422733Y-113164431D01*
X112364725Y-113137382D01*
X112312285Y-113091210D01*
X112293133Y-113024017D01*
X112313348Y-112957135D01*
X112364725Y-112912618D01*
X112422734Y-112885568D01*
X112609139Y-112755047D01*
X112770047Y-112594139D01*
X112870109Y-112451235D01*
X112882613Y-112433377D01*
X112937189Y-112389752D01*
X112984188Y-112380500D01*
X113984548Y-112380500D01*
X114051587Y-112400185D01*
X114072229Y-112416819D01*
X116347604Y-114692194D01*
X116362481Y-114710176D01*
X116367076Y-114716938D01*
X116408703Y-114753637D01*
X116414364Y-114758954D01*
X116425530Y-114770120D01*
X116434535Y-114777105D01*
X116438009Y-114779800D01*
X116444007Y-114784763D01*
X116485621Y-114821450D01*
X116492896Y-114825157D01*
X116512602Y-114837662D01*
X116519062Y-114842673D01*
X116519063Y-114842673D01*
X116519064Y-114842674D01*
X116567082Y-114863453D01*
X116569982Y-114864708D01*
X116577027Y-114868023D01*
X116626435Y-114893198D01*
X116634419Y-114894982D01*
X116656596Y-114902188D01*
X116664105Y-114905438D01*
X116718925Y-114914120D01*
X116726518Y-114915568D01*
X116780667Y-114927673D01*
X116788836Y-114927416D01*
X116812126Y-114928881D01*
X116820196Y-114930160D01*
X116875431Y-114924937D01*
X116883178Y-114924450D01*
X116938627Y-114922709D01*
X116938629Y-114922708D01*
X116951116Y-114922316D01*
X116963879Y-114920500D01*
X118175812Y-114920500D01*
X118242851Y-114940185D01*
X118277387Y-114973377D01*
X118389953Y-115134140D01*
X118550859Y-115295046D01*
X118610808Y-115337022D01*
X118737266Y-115425568D01*
X118795275Y-115452618D01*
X118847714Y-115498791D01*
X118866865Y-115565985D01*
X118846649Y-115632866D01*
X118795275Y-115677382D01*
X118737263Y-115704433D01*
X118550859Y-115834953D01*
X118389953Y-115995859D01*
X118259432Y-116182264D01*
X118163261Y-116388502D01*
X118104364Y-116608310D01*
X118084531Y-116834999D01*
X118104364Y-117061689D01*
X118163261Y-117281497D01*
X118259432Y-117487735D01*
X118389953Y-117674140D01*
X118550859Y-117835046D01*
X118737264Y-117965567D01*
X118737265Y-117965567D01*
X118737266Y-117965568D01*
X118943504Y-118061739D01*
X119163308Y-118120635D01*
X119390000Y-118140468D01*
X119616692Y-118120635D01*
X119836496Y-118061739D01*
X120042734Y-117965568D01*
X120229139Y-117835047D01*
X120390047Y-117674139D01*
X120520568Y-117487734D01*
X120551055Y-117422354D01*
X120597224Y-117369918D01*
X120664417Y-117350765D01*
X120731299Y-117370980D01*
X120775816Y-117422354D01*
X120789866Y-117452483D01*
X120840972Y-117525471D01*
X120840973Y-117525472D01*
X121522046Y-116844400D01*
X121534835Y-116925148D01*
X121592359Y-117038045D01*
X121681955Y-117127641D01*
X121794852Y-117185165D01*
X121875599Y-117197953D01*
X121194526Y-117879025D01*
X121194526Y-117879026D01*
X121267515Y-117930133D01*
X121473673Y-118026266D01*
X121693397Y-118085141D01*
X121920000Y-118104966D01*
X122146602Y-118085141D01*
X122366326Y-118026266D01*
X122572480Y-117930134D01*
X122645472Y-117879025D01*
X121964401Y-117197953D01*
X122045148Y-117185165D01*
X122158045Y-117127641D01*
X122247641Y-117038045D01*
X122305165Y-116925148D01*
X122317953Y-116844400D01*
X122999025Y-117525472D01*
X123050134Y-117452480D01*
X123146266Y-117246326D01*
X123205141Y-117026602D01*
X123224966Y-116800000D01*
X123205141Y-116573397D01*
X123146266Y-116353673D01*
X123050133Y-116147515D01*
X122999025Y-116074526D01*
X122317953Y-116755598D01*
X122305165Y-116674852D01*
X122247641Y-116561955D01*
X122158045Y-116472359D01*
X122045148Y-116414835D01*
X121964400Y-116402046D01*
X122645472Y-115720974D01*
X122645471Y-115720972D01*
X122572484Y-115669866D01*
X122366326Y-115573733D01*
X122352394Y-115570000D01*
X124524357Y-115570000D01*
X124544885Y-115791537D01*
X124605769Y-116005526D01*
X124704941Y-116204688D01*
X124839019Y-116382237D01*
X125003437Y-116532124D01*
X125192595Y-116649245D01*
X125192597Y-116649245D01*
X125192599Y-116649247D01*
X125400060Y-116729618D01*
X125618757Y-116770500D01*
X125618759Y-116770500D01*
X125841241Y-116770500D01*
X125841243Y-116770500D01*
X126059940Y-116729618D01*
X126267401Y-116649247D01*
X126456562Y-116532124D01*
X126563102Y-116435000D01*
X126620980Y-116382237D01*
X126620981Y-116382236D01*
X126755058Y-116204689D01*
X126854229Y-116005528D01*
X126856980Y-115995861D01*
X126902651Y-115835341D01*
X126915115Y-115791536D01*
X126935643Y-115570000D01*
X126915115Y-115348464D01*
X126914055Y-115337022D01*
X126917735Y-115336680D01*
X126918134Y-115287232D01*
X126949141Y-115235447D01*
X127222773Y-114961817D01*
X127284096Y-114928334D01*
X127310453Y-114925500D01*
X128207256Y-114925500D01*
X128234309Y-114928487D01*
X128245957Y-114931091D01*
X128245253Y-114934235D01*
X128288768Y-114945540D01*
X128336160Y-114996880D01*
X128348273Y-115065691D01*
X128337424Y-115104314D01*
X128323733Y-115133673D01*
X128271128Y-115329999D01*
X128271128Y-115330000D01*
X129234314Y-115330000D01*
X129222359Y-115341955D01*
X129164835Y-115454852D01*
X129145014Y-115580000D01*
X129164835Y-115705148D01*
X129222359Y-115818045D01*
X129234314Y-115830000D01*
X128271128Y-115830000D01*
X128323733Y-116026326D01*
X128419865Y-116232480D01*
X128550341Y-116418819D01*
X128711180Y-116579658D01*
X128897519Y-116710134D01*
X128955865Y-116737342D01*
X129008304Y-116783514D01*
X129027456Y-116850708D01*
X129007240Y-116917589D01*
X128955866Y-116962105D01*
X128897267Y-116989430D01*
X128710859Y-117119953D01*
X128549953Y-117280859D01*
X128419432Y-117467264D01*
X128323261Y-117673502D01*
X128264364Y-117893310D01*
X128244531Y-118120000D01*
X128264364Y-118346689D01*
X128323261Y-118566497D01*
X128419432Y-118772735D01*
X128549953Y-118959140D01*
X128710859Y-119120046D01*
X128897264Y-119250567D01*
X128897265Y-119250567D01*
X128897266Y-119250568D01*
X129103504Y-119346739D01*
X129323308Y-119405635D01*
X129474435Y-119418857D01*
X129549999Y-119425468D01*
X129549999Y-119425467D01*
X129550000Y-119425468D01*
X129776692Y-119405635D01*
X129996496Y-119346739D01*
X130202734Y-119250568D01*
X130389139Y-119120047D01*
X130550047Y-118959139D01*
X130680568Y-118772734D01*
X130776739Y-118566496D01*
X130835635Y-118346692D01*
X130855468Y-118120000D01*
X130835635Y-117893308D01*
X130776739Y-117673504D01*
X130680568Y-117467266D01*
X130649124Y-117422358D01*
X130550046Y-117280859D01*
X130389140Y-117119953D01*
X130202736Y-116989433D01*
X130202730Y-116989430D01*
X130144132Y-116962105D01*
X130091695Y-116915933D01*
X130072543Y-116848739D01*
X130092759Y-116781858D01*
X130144135Y-116737342D01*
X130202479Y-116710135D01*
X130388819Y-116579658D01*
X130549658Y-116418819D01*
X130680134Y-116232480D01*
X130776266Y-116026326D01*
X130828872Y-115830000D01*
X129865686Y-115830000D01*
X129877641Y-115818045D01*
X129935165Y-115705148D01*
X129954986Y-115580000D01*
X129935165Y-115454852D01*
X129877641Y-115341955D01*
X129865686Y-115330000D01*
X130828872Y-115330000D01*
X130828871Y-115329999D01*
X130776266Y-115133673D01*
X130680134Y-114927519D01*
X130549658Y-114741180D01*
X130388819Y-114580341D01*
X130202482Y-114449866D01*
X130144133Y-114422657D01*
X130091694Y-114376484D01*
X130072543Y-114309290D01*
X130092759Y-114242409D01*
X130144134Y-114197893D01*
X130202734Y-114170568D01*
X130389139Y-114040047D01*
X130550047Y-113879139D01*
X130680568Y-113692734D01*
X130776739Y-113486496D01*
X130835635Y-113266692D01*
X130855468Y-113040000D01*
X130835635Y-112813308D01*
X130776739Y-112593504D01*
X130680568Y-112387266D01*
X130680416Y-112387048D01*
X130550046Y-112200859D01*
X130389140Y-112039953D01*
X130364537Y-112022726D01*
X130320912Y-111968150D01*
X130313718Y-111898651D01*
X130345241Y-111836296D01*
X130405470Y-111800882D01*
X130422401Y-111797862D01*
X130457483Y-111794091D01*
X130592331Y-111743796D01*
X130707546Y-111657546D01*
X130793796Y-111542331D01*
X130844091Y-111407483D01*
X130850500Y-111347873D01*
X130850499Y-109652128D01*
X130844091Y-109592517D01*
X130793796Y-109457669D01*
X130707546Y-109342454D01*
X130592331Y-109256204D01*
X130457483Y-109205909D01*
X130457483Y-109205908D01*
X130401166Y-109199854D01*
X130401165Y-109199853D01*
X130397873Y-109199500D01*
X130394550Y-109199500D01*
X128705439Y-109199500D01*
X128705420Y-109199500D01*
X128702128Y-109199501D01*
X128698848Y-109199853D01*
X128698840Y-109199854D01*
X128642515Y-109205909D01*
X128507669Y-109256204D01*
X128392454Y-109342454D01*
X128306204Y-109457668D01*
X128255910Y-109592515D01*
X128255909Y-109592517D01*
X128249500Y-109652127D01*
X128249500Y-109655448D01*
X128249500Y-109655449D01*
X128249500Y-111344560D01*
X128249500Y-111344578D01*
X128249501Y-111347872D01*
X128255909Y-111407483D01*
X128306204Y-111542331D01*
X128392454Y-111657546D01*
X128507669Y-111743796D01*
X128642517Y-111794091D01*
X128677594Y-111797862D01*
X128742143Y-111824598D01*
X128781993Y-111881989D01*
X128784488Y-111951814D01*
X128748837Y-112011904D01*
X128735463Y-112022725D01*
X128710861Y-112039951D01*
X128549953Y-112200859D01*
X128419432Y-112387264D01*
X128323261Y-112593502D01*
X128264364Y-112813310D01*
X128244531Y-113039999D01*
X128264364Y-113266690D01*
X128282680Y-113335047D01*
X128281017Y-113404897D01*
X128250586Y-113454821D01*
X128067226Y-113638182D01*
X128005906Y-113671666D01*
X127979547Y-113674500D01*
X127082740Y-113674500D01*
X127062236Y-113672236D01*
X126992144Y-113674439D01*
X126988250Y-113674500D01*
X126960650Y-113674500D01*
X126956799Y-113674986D01*
X126956768Y-113674988D01*
X126956640Y-113675005D01*
X126945028Y-113675918D01*
X126901368Y-113677290D01*
X126882128Y-113682880D01*
X126863081Y-113686825D01*
X126843209Y-113689335D01*
X126802599Y-113705413D01*
X126791554Y-113709194D01*
X126749611Y-113721380D01*
X126732369Y-113731578D01*
X126714897Y-113740138D01*
X126696266Y-113747514D01*
X126660938Y-113773181D01*
X126651180Y-113779591D01*
X126613579Y-113801829D01*
X126599410Y-113815998D01*
X126584622Y-113828628D01*
X126568413Y-113840405D01*
X126540572Y-113874058D01*
X126532711Y-113882696D01*
X126059892Y-114355515D01*
X125998569Y-114389000D01*
X125949426Y-114389722D01*
X125841243Y-114369500D01*
X125618757Y-114369500D01*
X125446328Y-114401733D01*
X125400060Y-114410382D01*
X125192595Y-114490754D01*
X125003437Y-114607875D01*
X124839019Y-114757762D01*
X124704941Y-114935311D01*
X124605769Y-115134473D01*
X124544885Y-115348462D01*
X124524357Y-115570000D01*
X122352394Y-115570000D01*
X122146602Y-115514858D01*
X121909193Y-115494088D01*
X121909413Y-115491563D01*
X121856146Y-115480851D01*
X121805970Y-115432229D01*
X121790045Y-115364199D01*
X121813429Y-115298358D01*
X121826160Y-115283429D01*
X127383789Y-109725800D01*
X127399885Y-109712906D01*
X127401873Y-109710787D01*
X127401877Y-109710786D01*
X127447949Y-109661723D01*
X127450534Y-109659055D01*
X127470120Y-109639471D01*
X127472585Y-109636292D01*
X127480167Y-109627416D01*
X127510062Y-109595582D01*
X127519717Y-109578018D01*
X127530394Y-109561764D01*
X127542673Y-109545936D01*
X127560018Y-109505852D01*
X127565160Y-109495356D01*
X127586197Y-109457092D01*
X127591179Y-109437684D01*
X127597481Y-109419280D01*
X127605437Y-109400896D01*
X127612269Y-109357752D01*
X127614633Y-109346338D01*
X127625500Y-109304019D01*
X127625500Y-109283983D01*
X127627027Y-109264584D01*
X127630160Y-109244803D01*
X127627126Y-109212713D01*
X127626049Y-109201334D01*
X127625499Y-109189662D01*
X127625499Y-105439492D01*
X127625499Y-101682729D01*
X127627763Y-101662242D01*
X127627064Y-101640000D01*
X127625561Y-101592144D01*
X127625500Y-101588250D01*
X127625500Y-101564544D01*
X127625500Y-101560650D01*
X127624998Y-101556681D01*
X127624080Y-101545024D01*
X127624063Y-101544484D01*
X127622709Y-101501373D01*
X127617120Y-101482140D01*
X127613174Y-101463082D01*
X127610664Y-101443208D01*
X127598861Y-101413397D01*
X127594585Y-101402597D01*
X127590804Y-101391552D01*
X127578619Y-101349613D01*
X127578618Y-101349612D01*
X127578618Y-101349610D01*
X127568417Y-101332361D01*
X127559860Y-101314895D01*
X127552486Y-101296268D01*
X127526813Y-101260932D01*
X127520402Y-101251172D01*
X127498169Y-101213578D01*
X127484006Y-101199415D01*
X127471369Y-101184620D01*
X127459595Y-101168414D01*
X127459594Y-101168413D01*
X127425935Y-101140568D01*
X127417305Y-101132714D01*
X126949146Y-100664555D01*
X126915661Y-100603232D01*
X126916922Y-100563242D01*
X126914055Y-100562977D01*
X126927884Y-100413733D01*
X126935643Y-100330000D01*
X126915115Y-100108464D01*
X126863804Y-99928123D01*
X126854230Y-99894473D01*
X126755058Y-99695311D01*
X126620980Y-99517762D01*
X126456562Y-99367875D01*
X126267404Y-99250754D01*
X126177105Y-99215772D01*
X126059940Y-99170382D01*
X125841243Y-99129500D01*
X125618757Y-99129500D01*
X125400060Y-99170382D01*
X125192595Y-99250754D01*
X125003437Y-99367875D01*
X124839019Y-99517762D01*
X124704941Y-99695311D01*
X124605769Y-99894473D01*
X124544885Y-100108462D01*
X124524357Y-100330000D01*
X124544885Y-100551537D01*
X124605769Y-100765526D01*
X124704941Y-100964688D01*
X124839019Y-101142237D01*
X125003437Y-101292124D01*
X125192595Y-101409245D01*
X125192597Y-101409245D01*
X125192599Y-101409247D01*
X125400060Y-101489618D01*
X125618757Y-101530500D01*
X125618759Y-101530500D01*
X125841241Y-101530500D01*
X125841243Y-101530500D01*
X125949427Y-101510276D01*
X126018941Y-101517307D01*
X126059893Y-101544484D01*
X126338181Y-101822771D01*
X126371666Y-101884094D01*
X126374500Y-101910452D01*
X126374500Y-106731225D01*
X126354815Y-106798264D01*
X126302011Y-106844019D01*
X126232853Y-106853963D01*
X126205706Y-106846852D01*
X126160167Y-106829210D01*
X126059940Y-106790382D01*
X125841243Y-106749500D01*
X125618757Y-106749500D01*
X125400059Y-106790382D01*
X125400060Y-106790382D01*
X125192595Y-106870754D01*
X125003437Y-106987875D01*
X124839019Y-107137762D01*
X124735212Y-107275227D01*
X124679103Y-107316863D01*
X124636258Y-107324500D01*
X123272740Y-107324500D01*
X123252235Y-107322236D01*
X123235065Y-107322776D01*
X123167441Y-107305206D01*
X123120051Y-107253865D01*
X123107941Y-107185052D01*
X123118788Y-107146434D01*
X123146739Y-107086496D01*
X123205635Y-106866692D01*
X123225468Y-106640000D01*
X123205635Y-106413308D01*
X123146739Y-106193504D01*
X123050568Y-105987266D01*
X122920047Y-105800861D01*
X122920046Y-105800859D01*
X122759140Y-105639953D01*
X122572735Y-105509432D01*
X122366497Y-105413261D01*
X122146689Y-105354364D01*
X121920000Y-105334531D01*
X121693310Y-105354364D01*
X121473502Y-105413261D01*
X121267264Y-105509432D01*
X121080859Y-105639953D01*
X120919953Y-105800859D01*
X120789433Y-105987263D01*
X120759221Y-106052053D01*
X120713048Y-106104492D01*
X120645854Y-106123643D01*
X120578973Y-106103427D01*
X120534457Y-106052051D01*
X120520568Y-106022266D01*
X120390046Y-105835859D01*
X120229140Y-105674953D01*
X120042733Y-105544431D01*
X119984725Y-105517382D01*
X119932285Y-105471210D01*
X119913133Y-105404017D01*
X119933348Y-105337135D01*
X119984725Y-105292618D01*
X120042734Y-105265568D01*
X120229139Y-105135047D01*
X120390047Y-104974139D01*
X120520568Y-104787734D01*
X120616739Y-104581496D01*
X120675635Y-104361692D01*
X120695468Y-104135000D01*
X120675635Y-103908308D01*
X120616739Y-103688504D01*
X120520568Y-103482266D01*
X120390047Y-103295861D01*
X120390046Y-103295859D01*
X120229140Y-103134953D01*
X120042736Y-103004433D01*
X119984723Y-102977381D01*
X119932284Y-102931208D01*
X119913133Y-102864014D01*
X119933349Y-102797133D01*
X119984721Y-102752619D01*
X120042734Y-102725568D01*
X120229139Y-102595047D01*
X120390047Y-102434139D01*
X120520568Y-102247734D01*
X120532402Y-102222355D01*
X120578572Y-102169918D01*
X120645765Y-102150765D01*
X120712646Y-102170980D01*
X120757165Y-102222356D01*
X120789866Y-102292483D01*
X120840972Y-102365471D01*
X120840974Y-102365472D01*
X121522046Y-101684399D01*
X121534835Y-101765148D01*
X121592359Y-101878045D01*
X121681955Y-101967641D01*
X121794852Y-102025165D01*
X121875599Y-102037953D01*
X121194526Y-102719025D01*
X121194526Y-102719026D01*
X121267515Y-102770133D01*
X121473673Y-102866266D01*
X121693397Y-102925141D01*
X121920000Y-102944966D01*
X122146602Y-102925141D01*
X122366326Y-102866266D01*
X122572480Y-102770134D01*
X122645472Y-102719025D01*
X121964401Y-102037953D01*
X122045148Y-102025165D01*
X122158045Y-101967641D01*
X122247641Y-101878045D01*
X122305165Y-101765148D01*
X122317953Y-101684400D01*
X122999025Y-102365472D01*
X123050134Y-102292480D01*
X123146266Y-102086326D01*
X123205141Y-101866602D01*
X123224966Y-101640000D01*
X123205141Y-101413397D01*
X123146266Y-101193673D01*
X123050133Y-100987515D01*
X122999025Y-100914526D01*
X122317953Y-101595598D01*
X122305165Y-101514852D01*
X122247641Y-101401955D01*
X122158045Y-101312359D01*
X122045148Y-101254835D01*
X121964400Y-101242046D01*
X122645472Y-100560974D01*
X122645471Y-100560972D01*
X122572484Y-100509866D01*
X122366326Y-100413733D01*
X122146602Y-100354858D01*
X121920000Y-100335033D01*
X121693397Y-100354858D01*
X121473672Y-100413733D01*
X121267516Y-100509865D01*
X121194527Y-100560973D01*
X121194526Y-100560973D01*
X121875600Y-101242046D01*
X121794852Y-101254835D01*
X121681955Y-101312359D01*
X121592359Y-101401955D01*
X121534835Y-101514852D01*
X121522046Y-101595599D01*
X120840973Y-100914526D01*
X120840973Y-100914527D01*
X120789865Y-100987517D01*
X120778148Y-101012644D01*
X120731975Y-101065082D01*
X120664781Y-101084233D01*
X120597900Y-101064016D01*
X120553385Y-101012642D01*
X120535918Y-100975185D01*
X120520568Y-100942266D01*
X120412924Y-100788533D01*
X120390597Y-100722327D01*
X120390499Y-100717410D01*
X120390499Y-100329999D01*
X120390499Y-99515778D01*
X120410184Y-99448743D01*
X120426813Y-99428106D01*
X120712409Y-99142510D01*
X120714579Y-99140394D01*
X120778053Y-99080059D01*
X120811765Y-99031622D01*
X120817408Y-99024138D01*
X120854698Y-98978407D01*
X120868786Y-98951435D01*
X120876911Y-98938024D01*
X120894295Y-98913049D01*
X120917568Y-98858815D01*
X120921598Y-98850331D01*
X120948908Y-98798051D01*
X120948909Y-98798049D01*
X120957278Y-98768797D01*
X120962534Y-98754032D01*
X120974540Y-98726058D01*
X120986418Y-98668256D01*
X120988651Y-98659156D01*
X121004887Y-98602418D01*
X121007197Y-98572077D01*
X121009376Y-98556535D01*
X121015500Y-98526741D01*
X121015500Y-98467757D01*
X121015858Y-98458342D01*
X121020337Y-98399523D01*
X121018592Y-98385821D01*
X121016492Y-98369344D01*
X121015499Y-98353676D01*
X121015499Y-97959216D01*
X121015499Y-97397584D01*
X121035184Y-97330549D01*
X121037877Y-97326533D01*
X121145568Y-97172734D01*
X121241739Y-96966496D01*
X121300635Y-96746692D01*
X121320468Y-96520000D01*
X121300635Y-96293308D01*
X121241739Y-96073504D01*
X121145568Y-95867266D01*
X121145567Y-95867264D01*
X121037925Y-95713533D01*
X121015597Y-95647326D01*
X121015500Y-95642410D01*
X121015500Y-92709999D01*
X124524357Y-92709999D01*
X124544885Y-92931537D01*
X124605769Y-93145526D01*
X124704941Y-93344688D01*
X124839019Y-93522237D01*
X125003437Y-93672124D01*
X125192595Y-93789245D01*
X125192597Y-93789245D01*
X125192599Y-93789247D01*
X125400060Y-93869618D01*
X125618757Y-93910500D01*
X125618759Y-93910500D01*
X125841241Y-93910500D01*
X125841243Y-93910500D01*
X126059940Y-93869618D01*
X126267401Y-93789247D01*
X126456562Y-93672124D01*
X126620981Y-93522236D01*
X126724788Y-93384772D01*
X126780897Y-93343137D01*
X126823742Y-93335500D01*
X128328810Y-93335500D01*
X128395849Y-93355185D01*
X128430385Y-93388377D01*
X128549953Y-93559140D01*
X128710859Y-93720046D01*
X128897264Y-93850567D01*
X128897265Y-93850567D01*
X128897266Y-93850568D01*
X128955865Y-93877893D01*
X129008304Y-93924065D01*
X129027456Y-93991259D01*
X129007240Y-94058140D01*
X128955866Y-94102656D01*
X128897522Y-94129863D01*
X128711180Y-94260341D01*
X128550341Y-94421180D01*
X128419865Y-94607519D01*
X128323733Y-94813673D01*
X128271128Y-95009999D01*
X128271128Y-95010000D01*
X129234314Y-95010000D01*
X129222359Y-95021955D01*
X129164835Y-95134852D01*
X129145014Y-95260000D01*
X129164835Y-95385148D01*
X129222359Y-95498045D01*
X129234314Y-95510000D01*
X128271128Y-95510000D01*
X128323733Y-95706326D01*
X128419865Y-95912480D01*
X128550341Y-96098819D01*
X128711180Y-96259658D01*
X128897519Y-96390134D01*
X128955865Y-96417342D01*
X129008304Y-96463514D01*
X129027456Y-96530708D01*
X129007240Y-96597589D01*
X128955866Y-96642105D01*
X128897267Y-96669430D01*
X128710859Y-96799953D01*
X128549953Y-96960859D01*
X128419432Y-97147264D01*
X128323261Y-97353502D01*
X128264364Y-97573310D01*
X128244531Y-97800000D01*
X128264364Y-98026689D01*
X128323261Y-98246497D01*
X128419432Y-98452735D01*
X128549953Y-98639140D01*
X128710859Y-98800046D01*
X128897264Y-98930567D01*
X128897265Y-98930567D01*
X128897266Y-98930568D01*
X129103504Y-99026739D01*
X129323308Y-99085635D01*
X129550000Y-99105468D01*
X129776692Y-99085635D01*
X129996496Y-99026739D01*
X130202734Y-98930568D01*
X130389139Y-98800047D01*
X130550047Y-98639139D01*
X130680568Y-98452734D01*
X130776739Y-98246496D01*
X130835635Y-98026692D01*
X130855468Y-97800000D01*
X130835635Y-97573308D01*
X130776739Y-97353504D01*
X130680568Y-97147266D01*
X130553994Y-96966497D01*
X130550046Y-96960859D01*
X130389140Y-96799953D01*
X130202736Y-96669433D01*
X130150657Y-96645148D01*
X130144132Y-96642105D01*
X130091695Y-96595933D01*
X130072543Y-96528739D01*
X130092759Y-96461858D01*
X130144135Y-96417342D01*
X130202479Y-96390135D01*
X130388819Y-96259658D01*
X130549658Y-96098819D01*
X130680134Y-95912480D01*
X130776266Y-95706326D01*
X130828872Y-95510000D01*
X129865686Y-95510000D01*
X129877641Y-95498045D01*
X129935165Y-95385148D01*
X129954986Y-95260000D01*
X129935165Y-95134852D01*
X129877641Y-95021955D01*
X129865686Y-95010000D01*
X130828872Y-95010000D01*
X130828871Y-95009999D01*
X130776266Y-94813673D01*
X130680134Y-94607519D01*
X130549658Y-94421180D01*
X130388819Y-94260341D01*
X130202482Y-94129866D01*
X130144133Y-94102657D01*
X130091694Y-94056484D01*
X130072543Y-93989290D01*
X130092759Y-93922409D01*
X130144134Y-93877893D01*
X130202734Y-93850568D01*
X130389139Y-93720047D01*
X130550047Y-93559139D01*
X130680568Y-93372734D01*
X130776739Y-93166496D01*
X130835635Y-92946692D01*
X130855468Y-92720000D01*
X130835635Y-92493308D01*
X130776739Y-92273504D01*
X130680568Y-92067266D01*
X130658135Y-92035227D01*
X130550046Y-91880859D01*
X130389140Y-91719953D01*
X130364537Y-91702726D01*
X130320912Y-91648150D01*
X130313718Y-91578651D01*
X130345241Y-91516296D01*
X130405470Y-91480882D01*
X130422401Y-91477862D01*
X130457483Y-91474091D01*
X130592331Y-91423796D01*
X130707546Y-91337546D01*
X130793796Y-91222331D01*
X130844091Y-91087483D01*
X130850500Y-91027873D01*
X130850499Y-89332128D01*
X130844091Y-89272517D01*
X130793796Y-89137669D01*
X130707546Y-89022454D01*
X130592331Y-88936204D01*
X130457483Y-88885909D01*
X130397873Y-88879500D01*
X130394550Y-88879500D01*
X128705439Y-88879500D01*
X128705420Y-88879500D01*
X128702128Y-88879501D01*
X128698848Y-88879853D01*
X128698840Y-88879854D01*
X128642515Y-88885909D01*
X128507669Y-88936204D01*
X128392454Y-89022454D01*
X128306204Y-89137668D01*
X128255910Y-89272515D01*
X128255909Y-89272517D01*
X128249500Y-89332127D01*
X128249500Y-89335448D01*
X128249500Y-89335449D01*
X128249500Y-91024560D01*
X128249500Y-91024578D01*
X128249501Y-91027872D01*
X128249853Y-91031152D01*
X128249854Y-91031159D01*
X128255329Y-91082087D01*
X128255909Y-91087483D01*
X128306204Y-91222331D01*
X128392454Y-91337546D01*
X128507669Y-91423796D01*
X128642517Y-91474091D01*
X128677594Y-91477862D01*
X128742143Y-91504598D01*
X128781993Y-91561989D01*
X128784488Y-91631814D01*
X128748837Y-91691904D01*
X128735463Y-91702725D01*
X128710861Y-91719951D01*
X128549953Y-91880859D01*
X128444389Y-92031623D01*
X128389813Y-92075248D01*
X128342814Y-92084500D01*
X126823742Y-92084500D01*
X126756703Y-92064815D01*
X126724788Y-92035227D01*
X126620980Y-91897762D01*
X126456562Y-91747875D01*
X126267404Y-91630754D01*
X126160739Y-91589432D01*
X126059940Y-91550382D01*
X125841243Y-91509500D01*
X125618757Y-91509500D01*
X125400060Y-91550382D01*
X125192595Y-91630754D01*
X125003437Y-91747875D01*
X124839019Y-91897762D01*
X124704941Y-92075311D01*
X124605769Y-92274473D01*
X124544885Y-92488462D01*
X124524357Y-92709999D01*
X121015500Y-92709999D01*
X121015500Y-92592018D01*
X121035185Y-92524979D01*
X121055518Y-92500788D01*
X121135168Y-92427466D01*
X121135168Y-92427465D01*
X121135171Y-92427463D01*
X121283072Y-92237439D01*
X121397679Y-92025664D01*
X121475866Y-91797913D01*
X121515500Y-91560399D01*
X121515500Y-91319601D01*
X121475866Y-91082087D01*
X121397679Y-90854336D01*
X121283072Y-90642561D01*
X121135171Y-90452537D01*
X120958010Y-90289449D01*
X120958007Y-90289447D01*
X120958006Y-90289446D01*
X120933613Y-90273509D01*
X120888256Y-90220362D01*
X120878833Y-90151131D01*
X120908336Y-90087796D01*
X120933614Y-90065892D01*
X120957700Y-90050155D01*
X121134801Y-89887122D01*
X121282651Y-89697164D01*
X121397219Y-89485460D01*
X121475380Y-89257792D01*
X121493367Y-89150000D01*
X120509852Y-89150000D01*
X120558559Y-89012953D01*
X120568877Y-88862114D01*
X120538116Y-88714085D01*
X120504910Y-88650000D01*
X121493366Y-88650000D01*
X121493366Y-88649999D01*
X121475380Y-88542207D01*
X121397219Y-88314539D01*
X121282651Y-88102835D01*
X121171675Y-87960253D01*
X121146032Y-87895259D01*
X121159598Y-87826719D01*
X121208067Y-87776394D01*
X121226189Y-87767910D01*
X121257331Y-87756296D01*
X121372546Y-87670046D01*
X121458796Y-87554831D01*
X121509091Y-87419983D01*
X121515500Y-87360373D01*
X121515499Y-85359628D01*
X121509091Y-85300017D01*
X121458796Y-85165169D01*
X121372546Y-85049954D01*
X121257331Y-84963704D01*
X121122483Y-84913409D01*
X121107890Y-84907966D01*
X121108457Y-84906445D01*
X121061689Y-84887071D01*
X121021844Y-84829677D01*
X121015500Y-84790523D01*
X121015500Y-81447000D01*
X121035185Y-81379961D01*
X121087989Y-81334206D01*
X121139500Y-81323000D01*
X125576717Y-81323000D01*
X125643756Y-81342685D01*
X125664398Y-81359319D01*
X128503181Y-84198101D01*
X128536666Y-84259424D01*
X128539500Y-84285782D01*
X128539500Y-85330621D01*
X128519815Y-85397660D01*
X128506731Y-85414603D01*
X128431020Y-85496848D01*
X128304076Y-85691150D01*
X128210844Y-85903696D01*
X128210842Y-85903700D01*
X128210843Y-85903700D01*
X128174315Y-86047947D01*
X128153865Y-86128700D01*
X128134699Y-86359999D01*
X128153865Y-86591299D01*
X128153865Y-86591301D01*
X128153866Y-86591305D01*
X128210843Y-86816300D01*
X128210844Y-86816303D01*
X128289001Y-86994481D01*
X128304076Y-87028849D01*
X128431021Y-87223153D01*
X128588216Y-87393913D01*
X128771374Y-87536470D01*
X128975497Y-87646936D01*
X129085258Y-87684616D01*
X129195015Y-87722297D01*
X129195017Y-87722297D01*
X129195019Y-87722298D01*
X129423951Y-87760500D01*
X129423952Y-87760500D01*
X129656048Y-87760500D01*
X129656049Y-87760500D01*
X129884981Y-87722298D01*
X130104503Y-87646936D01*
X130308626Y-87536470D01*
X130483903Y-87400047D01*
X130499893Y-87387602D01*
X130502220Y-87390592D01*
X130545588Y-87364528D01*
X130576935Y-87360500D01*
X131614217Y-87360500D01*
X131681256Y-87380185D01*
X131701898Y-87396819D01*
X132043681Y-87738602D01*
X132077166Y-87799924D01*
X132080000Y-87826282D01*
X132080000Y-120526000D01*
X132060315Y-120593039D01*
X132007511Y-120638794D01*
X131956000Y-120650000D01*
X105534000Y-120650000D01*
X105466961Y-120630315D01*
X105421206Y-120577511D01*
X105410000Y-120526000D01*
X105410000Y-118110000D01*
X108014357Y-118110000D01*
X108034885Y-118331537D01*
X108095769Y-118545526D01*
X108194941Y-118744688D01*
X108329019Y-118922237D01*
X108493437Y-119072124D01*
X108682595Y-119189245D01*
X108682597Y-119189245D01*
X108682599Y-119189247D01*
X108890060Y-119269618D01*
X109108757Y-119310500D01*
X109108759Y-119310500D01*
X109331241Y-119310500D01*
X109331243Y-119310500D01*
X109549940Y-119269618D01*
X109757401Y-119189247D01*
X109946562Y-119072124D01*
X110110981Y-118922236D01*
X110245058Y-118744689D01*
X110344229Y-118545528D01*
X110405115Y-118331536D01*
X110425643Y-118110000D01*
X110405115Y-117888464D01*
X110382227Y-117808021D01*
X110344230Y-117674473D01*
X110245058Y-117475311D01*
X110110980Y-117297762D01*
X109946562Y-117147875D01*
X109757404Y-117030754D01*
X109650734Y-116989430D01*
X109549940Y-116950382D01*
X109331243Y-116909500D01*
X109108757Y-116909500D01*
X108890060Y-116950382D01*
X108682595Y-117030754D01*
X108493437Y-117147875D01*
X108329019Y-117297762D01*
X108194941Y-117475311D01*
X108095769Y-117674473D01*
X108034885Y-117888462D01*
X108014357Y-118110000D01*
X105410000Y-118110000D01*
X105410000Y-93604578D01*
X106599500Y-93604578D01*
X106599501Y-93607872D01*
X106605909Y-93667483D01*
X106656204Y-93802331D01*
X106742454Y-93917546D01*
X106857669Y-94003796D01*
X106989598Y-94053002D01*
X107045532Y-94094873D01*
X107069949Y-94160337D01*
X107055097Y-94228610D01*
X107033947Y-94256865D01*
X106911888Y-94378924D01*
X106776400Y-94572421D01*
X106676569Y-94786507D01*
X106619364Y-94999999D01*
X106619364Y-95000000D01*
X107516314Y-95000000D01*
X107490507Y-95040156D01*
X107450000Y-95178111D01*
X107450000Y-95321889D01*
X107490507Y-95459844D01*
X107516314Y-95500000D01*
X106619364Y-95500000D01*
X106676569Y-95713492D01*
X106776399Y-95927576D01*
X106911893Y-96121081D01*
X107078918Y-96288106D01*
X107272423Y-96423600D01*
X107486507Y-96523430D01*
X107699998Y-96580634D01*
X107699999Y-96580634D01*
X107699999Y-95685501D01*
X107807685Y-95734680D01*
X107914237Y-95750000D01*
X107985763Y-95750000D01*
X108092315Y-95734680D01*
X108200000Y-95685501D01*
X108200000Y-96580633D01*
X108413490Y-96523430D01*
X108420846Y-96520000D01*
X113710033Y-96520000D01*
X113729858Y-96746602D01*
X113788733Y-96966326D01*
X113884866Y-97172484D01*
X113935972Y-97245471D01*
X113935974Y-97245472D01*
X114617046Y-96564399D01*
X114629835Y-96645148D01*
X114687359Y-96758045D01*
X114776955Y-96847641D01*
X114889852Y-96905165D01*
X114970599Y-96917953D01*
X114289526Y-97599025D01*
X114289526Y-97599026D01*
X114362515Y-97650133D01*
X114568673Y-97746266D01*
X114788397Y-97805141D01*
X115015000Y-97824966D01*
X115241602Y-97805141D01*
X115461326Y-97746266D01*
X115667480Y-97650134D01*
X115740472Y-97599025D01*
X115059401Y-96917953D01*
X115140148Y-96905165D01*
X115253045Y-96847641D01*
X115342641Y-96758045D01*
X115400165Y-96645148D01*
X115412953Y-96564400D01*
X116094025Y-97245472D01*
X116145134Y-97172480D01*
X116241266Y-96966326D01*
X116300141Y-96746602D01*
X116319966Y-96520000D01*
X116300141Y-96293397D01*
X116241266Y-96073673D01*
X116145133Y-95867515D01*
X116094025Y-95794526D01*
X115412953Y-96475598D01*
X115400165Y-96394852D01*
X115342641Y-96281955D01*
X115253045Y-96192359D01*
X115140148Y-96134835D01*
X115059400Y-96122046D01*
X115740472Y-95440974D01*
X115740471Y-95440972D01*
X115667484Y-95389866D01*
X115461326Y-95293733D01*
X115241602Y-95234858D01*
X115015000Y-95215033D01*
X114788397Y-95234858D01*
X114568672Y-95293733D01*
X114362516Y-95389865D01*
X114289527Y-95440973D01*
X114289526Y-95440973D01*
X114970600Y-96122046D01*
X114889852Y-96134835D01*
X114776955Y-96192359D01*
X114687359Y-96281955D01*
X114629835Y-96394852D01*
X114617046Y-96475599D01*
X113935973Y-95794526D01*
X113935973Y-95794527D01*
X113884865Y-95867516D01*
X113788733Y-96073672D01*
X113729858Y-96293397D01*
X113710033Y-96520000D01*
X108420846Y-96520000D01*
X108627576Y-96423600D01*
X108821081Y-96288106D01*
X108988106Y-96121081D01*
X109123600Y-95927576D01*
X109223430Y-95713492D01*
X109280636Y-95500000D01*
X108383686Y-95500000D01*
X108409493Y-95459844D01*
X108450000Y-95321889D01*
X108450000Y-95178111D01*
X108409493Y-95040156D01*
X108383686Y-95000000D01*
X109280636Y-95000000D01*
X109280635Y-94999999D01*
X109223430Y-94786507D01*
X109123599Y-94572421D01*
X108988109Y-94378921D01*
X108866053Y-94256865D01*
X108832568Y-94195542D01*
X108837552Y-94125850D01*
X108879424Y-94069917D01*
X108910397Y-94053004D01*
X109042331Y-94003796D01*
X109157546Y-93917546D01*
X109243796Y-93802331D01*
X109294091Y-93667483D01*
X109300500Y-93607873D01*
X109300499Y-91812128D01*
X109294091Y-91752517D01*
X109243796Y-91617669D01*
X109157546Y-91502454D01*
X109042331Y-91416204D01*
X108998886Y-91400000D01*
X114900033Y-91400000D01*
X114919858Y-91626602D01*
X114978733Y-91846326D01*
X115074866Y-92052484D01*
X115125972Y-92125471D01*
X115125974Y-92125472D01*
X115807045Y-91444399D01*
X115819835Y-91525148D01*
X115877359Y-91638045D01*
X115966955Y-91727641D01*
X116079852Y-91785165D01*
X116160599Y-91797953D01*
X115479526Y-92479025D01*
X115479526Y-92479026D01*
X115552515Y-92530133D01*
X115758673Y-92626266D01*
X115978397Y-92685141D01*
X116205000Y-92704966D01*
X116431602Y-92685141D01*
X116651326Y-92626266D01*
X116857480Y-92530134D01*
X116930472Y-92479025D01*
X116249401Y-91797953D01*
X116330148Y-91785165D01*
X116443045Y-91727641D01*
X116532641Y-91638045D01*
X116590165Y-91525148D01*
X116602953Y-91444401D01*
X117284025Y-92125472D01*
X117335134Y-92052480D01*
X117431266Y-91846326D01*
X117490141Y-91626602D01*
X117509966Y-91400000D01*
X117490141Y-91173397D01*
X117431266Y-90953673D01*
X117335133Y-90747515D01*
X117284025Y-90674526D01*
X116602953Y-91355597D01*
X116590165Y-91274852D01*
X116532641Y-91161955D01*
X116443045Y-91072359D01*
X116330148Y-91014835D01*
X116249400Y-91002046D01*
X116930472Y-90320974D01*
X116930471Y-90320972D01*
X116857484Y-90269866D01*
X116651326Y-90173733D01*
X116431602Y-90114858D01*
X116205000Y-90095033D01*
X115978397Y-90114858D01*
X115758672Y-90173733D01*
X115552516Y-90269865D01*
X115479527Y-90320973D01*
X115479526Y-90320973D01*
X116160600Y-91002046D01*
X116079852Y-91014835D01*
X115966955Y-91072359D01*
X115877359Y-91161955D01*
X115819835Y-91274852D01*
X115807046Y-91355600D01*
X115125973Y-90674526D01*
X115125973Y-90674527D01*
X115074865Y-90747516D01*
X114978733Y-90953672D01*
X114919858Y-91173397D01*
X114900033Y-91400000D01*
X108998886Y-91400000D01*
X108907483Y-91365909D01*
X108847873Y-91359500D01*
X108844550Y-91359500D01*
X107055439Y-91359500D01*
X107055420Y-91359500D01*
X107052128Y-91359501D01*
X107048848Y-91359853D01*
X107048840Y-91359854D01*
X106992515Y-91365909D01*
X106857669Y-91416204D01*
X106742454Y-91502454D01*
X106656204Y-91617668D01*
X106605910Y-91752515D01*
X106605909Y-91752517D01*
X106599500Y-91812127D01*
X106599500Y-91815448D01*
X106599500Y-91815449D01*
X106599500Y-93604560D01*
X106599500Y-93604578D01*
X105410000Y-93604578D01*
X105410000Y-80072500D01*
X107220000Y-80072500D01*
X108720000Y-80072500D01*
X108720000Y-80572500D01*
X107220001Y-80572500D01*
X107220001Y-81384244D01*
X107220192Y-81389125D01*
X107230400Y-81518831D01*
X107285377Y-81737018D01*
X107378430Y-81941879D01*
X107506565Y-82126832D01*
X107665667Y-82285934D01*
X107850620Y-82414069D01*
X108055481Y-82507122D01*
X108273668Y-82562099D01*
X108403374Y-82572308D01*
X108408254Y-82572499D01*
X108969999Y-82572499D01*
X108970000Y-82572498D01*
X108970000Y-81756186D01*
X109010156Y-81781993D01*
X109148111Y-81822500D01*
X109291889Y-81822500D01*
X109429844Y-81781993D01*
X109470000Y-81756186D01*
X109470000Y-82572499D01*
X110031744Y-82572499D01*
X110036625Y-82572307D01*
X110166331Y-82562099D01*
X110384518Y-82507122D01*
X110589379Y-82414069D01*
X110774332Y-82285934D01*
X110933434Y-82126832D01*
X111061569Y-81941879D01*
X111154622Y-81737018D01*
X111209599Y-81518831D01*
X111219808Y-81389125D01*
X111220000Y-81384245D01*
X111220000Y-80572500D01*
X109720000Y-80572500D01*
X109720000Y-80072500D01*
X111219999Y-80072500D01*
X111219999Y-79260755D01*
X111219807Y-79255874D01*
X111209599Y-79126168D01*
X111154622Y-78907981D01*
X111061569Y-78703120D01*
X110933434Y-78518167D01*
X110774332Y-78359065D01*
X110589379Y-78230930D01*
X110384518Y-78137877D01*
X110166331Y-78082900D01*
X110036625Y-78072691D01*
X110031746Y-78072500D01*
X109470000Y-78072500D01*
X109470000Y-78888813D01*
X109429844Y-78863007D01*
X109291889Y-78822500D01*
X109148111Y-78822500D01*
X109010156Y-78863007D01*
X108970000Y-78888813D01*
X108970000Y-78072500D01*
X108408255Y-78072500D01*
X108403374Y-78072692D01*
X108273668Y-78082900D01*
X108055481Y-78137877D01*
X107850620Y-78230930D01*
X107665667Y-78359065D01*
X107506565Y-78518167D01*
X107378430Y-78703120D01*
X107285377Y-78907981D01*
X107230400Y-79126168D01*
X107220191Y-79255874D01*
X107220000Y-79260754D01*
X107220000Y-80072500D01*
X105410000Y-80072500D01*
X105410000Y-75054000D01*
X105429685Y-74986961D01*
X105482489Y-74941206D01*
X105534000Y-74930000D01*
X131956000Y-74930000D01*
X132023039Y-74949685D01*
G37*
%TD.AperFunction*%
%TD*%
M02*
