M48
; DRILL file {KiCad 7.0.2} date Tue Oct 17 20:48:42 2023
; FORMAT={-:-/ absolute / inch / decimal}
; #@! TF.CreationDate,2023-10-17T20:48:42+09:00
; #@! TF.GenerationSoftware,Kicad,Pcbnew,7.0.2
; #@! TF.FileFunction,Plated,1,2,PTH
FMAT,2
INCH
; #@! TA.AperFunction,Plated,PTH,ViaDrill
T1C0.0157
; #@! TA.AperFunction,Plated,PTH,ComponentDrill
T2C0.0276
; #@! TA.AperFunction,Plated,PTH,ComponentDrill
T3C0.0315
; #@! TA.AperFunction,Plated,PTH,ComponentDrill
T4C0.0354
; #@! TA.AperFunction,Plated,PTH,ComponentDrill
T5C0.0394
; #@! TA.AperFunction,Plated,PTH,ComponentDrill
T6C0.0433
; #@! TA.AperFunction,Plated,PTH,ComponentDrill
T7C0.0472
; #@! TA.AperFunction,Plated,PTH,ComponentDrill
T8C0.0591
; #@! TA.AperFunction,Plated,PTH,ComponentDrill
T9C0.0630
; #@! TA.AperFunction,Plated,PTH,ComponentDrill
T10C0.0669
%
G90
G05
T1
X4.2Y-3.0
X4.2Y-3.05
X4.2Y-3.1
X4.2Y-3.15
X4.2Y-3.2
X4.2Y-3.25
X4.2Y-3.3
X4.2Y-3.35
X4.2Y-3.4
X4.2Y-3.45
X4.2Y-3.5
X4.2Y-3.55
X4.2Y-3.85
X4.2Y-3.9
X4.2Y-3.95
X4.2Y-4.0
X4.2Y-4.05
X4.2Y-4.1
X4.2Y-4.15
X4.2Y-4.2
X4.2Y-4.25
X4.2Y-4.3
X4.2Y-4.35
X4.2Y-4.4
X4.2Y-4.45
X4.2Y-4.5
X4.2Y-4.55
X4.2Y-4.6
X4.2Y-4.65
X4.2Y-4.7
X4.25Y-3.0
X4.25Y-3.575
X4.25Y-3.9
X4.25Y-4.0
X4.25Y-4.2
X4.25Y-4.3
X4.25Y-4.4
X4.25Y-4.6
X4.25Y-4.7
X4.275Y-4.55
X4.3Y-3.0
X4.3Y-3.575
X4.325Y-3.7
X4.325Y-4.0
X4.325Y-4.2
X4.325Y-4.4
X4.325Y-4.5
X4.35Y-3.0
X4.35Y-3.6
X4.35Y-3.75
X4.35Y-3.825
X4.35Y-3.9
X4.35Y-4.05
X4.35Y-4.15
X4.35Y-4.45
X4.35Y-4.7
X4.4Y-3.0
X4.4Y-3.625
X4.4Y-4.7
X4.425Y-3.1
X4.425Y-3.15
X4.425Y-3.2
X4.45Y-3.0
X4.45Y-3.05
X4.45Y-3.675
X4.45Y-3.75
X4.45Y-3.825
X4.45Y-3.9
X4.45Y-4.55
X4.45Y-4.7
X4.475Y-4.5
X4.5Y-3.0
X4.5Y-3.05
X4.5Y-3.275
X4.5Y-3.9
X4.5Y-4.7
X4.525Y-4.5
X4.55Y-3.0
X4.55Y-3.05
X4.55Y-3.275
X4.55Y-3.925
X4.55Y-4.7
X4.575Y-4.55
X4.6Y-3.0
X4.6Y-3.05
X4.6Y-3.275
X4.6Y-3.975
X4.6Y-4.025
X4.6Y-4.075
X4.6Y-4.3
X4.6Y-4.7
X4.65Y-3.0
X4.65Y-3.05
X4.65Y-3.1
X4.65Y-3.225
X4.65Y-3.275
X4.65Y-3.325
X4.65Y-3.95
X4.65Y-4.05
X4.65Y-4.55
X4.65Y-4.65
X4.65Y-4.7
X4.7Y-3.0
X4.7Y-3.1
X4.7Y-4.7
X4.75Y-3.0
X4.75Y-3.1
X4.75Y-3.95
X4.75Y-4.05
X4.75Y-4.15
X4.75Y-4.7
X4.8Y-3.0
X4.8Y-3.1
X4.8Y-3.225
X4.8Y-3.275
X4.8Y-3.325
X4.8Y-4.7
X4.85Y-3.0
X4.85Y-3.1
X4.85Y-3.225
X4.85Y-4.15
X4.85Y-4.525
X4.85Y-4.7
X4.875Y-4.575
X4.9Y-3.0
X4.9Y-3.1
X4.9Y-3.225
X4.9Y-3.6
X4.9Y-3.7
X4.9Y-3.9
X4.9Y-4.0
X4.9Y-4.2
X4.9Y-4.475
X4.9Y-4.7
X4.925Y-4.625
X4.95Y-3.0
X4.95Y-3.1
X4.95Y-3.225
X4.95Y-4.025
X4.95Y-4.075
X4.95Y-4.125
X4.95Y-4.175
X4.95Y-4.425
X4.95Y-4.7
X4.975Y-4.475
X4.975Y-4.625
X5.0Y-3.0
X5.0Y-3.1
X5.0Y-3.275
X5.0Y-3.6
X5.0Y-3.7
X5.0Y-3.9
X5.0Y-4.375
X5.0Y-4.7
X5.025Y-3.4
X5.025Y-3.95
X5.025Y-4.45
X5.025Y-4.55
X5.025Y-4.6
X5.025Y-4.65
X5.05Y-3.0
X5.05Y-3.15
X5.05Y-3.325
X5.05Y-3.45
X5.05Y-3.5
X5.05Y-3.6
X5.05Y-3.7
X5.05Y-3.8
X5.05Y-3.9
X5.05Y-4.0
X5.05Y-4.05
X5.05Y-4.1
X5.05Y-4.15
X5.05Y-4.2
X5.05Y-4.25
X5.05Y-4.3
X5.05Y-4.7
X5.1Y-3.0
X5.1Y-3.2
X5.15Y-3.0
X5.15Y-3.05
X5.15Y-3.1
X5.15Y-3.15
X5.15Y-3.2
X5.15Y-3.25
X5.15Y-3.45
X5.15Y-3.5
X5.15Y-3.6
X5.15Y-3.7
X5.15Y-3.8
X5.15Y-3.9
X5.15Y-3.95
X5.15Y-4.0
X5.15Y-4.05
X5.15Y-4.1
X5.15Y-4.15
X5.15Y-4.2
X5.15Y-4.25
X5.15Y-4.3
X5.15Y-4.4
X5.15Y-4.5
X5.15Y-4.6
X5.15Y-4.7
T2
X4.3Y-3.95
X4.3Y-4.25
X4.3Y-4.35
X4.3Y-4.65
X4.95Y-3.65
X4.95Y-3.95
X4.95Y-4.25
X4.95Y-4.55
X5.9Y-3.2
X5.9Y-4.0
X6.0Y-3.5
X6.0Y-3.8
X6.0Y-4.25
X6.0Y-4.55
X6.2Y-3.2
X6.2Y-4.0
T3
X4.4004Y-3.9998
X4.4004Y-4.0998
X4.4004Y-4.1998
X4.4004Y-4.2998
X4.4004Y-4.3998
X4.4004Y-4.4998
X4.4004Y-4.5998
X4.5281Y-3.8
X4.575Y-3.4016
X4.575Y-3.5984
X4.7004Y-3.9998
X4.7004Y-4.0998
X4.7004Y-4.1998
X4.7004Y-4.2998
X4.7004Y-4.3998
X4.7004Y-4.4998
X4.7004Y-4.5998
X4.725Y-3.8
X4.8Y-4.0016
X4.8Y-4.1984
X4.8Y-4.4016
X4.8Y-4.5984
X5.1004Y-3.5504
X5.1004Y-3.6504
X5.1004Y-3.7504
X5.1004Y-3.8504
X5.1004Y-4.3504
X5.1004Y-4.4504
X5.1004Y-4.5504
X5.1004Y-4.6504
X5.4004Y-3.5504
X5.4004Y-3.6504
X5.4004Y-3.7504
X5.4004Y-3.8504
X5.4004Y-4.3504
X5.4004Y-4.4504
X5.4004Y-4.5504
X5.4004Y-4.6504
X5.5Y-3.6016
X5.5Y-3.7984
X5.5Y-4.4016
X5.5Y-4.5984
X5.7Y-3.7126
X5.7Y-4.5
X5.9Y-3.5
X5.9Y-3.6969
X5.9Y-4.2516
X5.9Y-4.4484
T4
X5.1Y-3.4
X5.4Y-3.4
T5
X4.25Y-3.65
X4.25Y-3.75
T6
X4.725Y-3.4
X4.725Y-3.5
X4.725Y-3.6
T8
X6.2Y-3.3854
X6.2Y-3.6
X6.2Y-3.8146
X6.2Y-4.1854
X6.2Y-4.4
X6.2Y-4.6146
T9
X6.45Y-3.4
X6.45Y-3.7937
X6.45Y-4.2
X6.45Y-4.5937
T5
G00X4.3Y-3.1229
M15
G01X4.3Y-3.2017
M16
G05
G00X4.3787Y-3.3473
M15
G01X4.4575Y-3.3473
M16
G05
G00X4.5362Y-3.1229
M15
G01X4.5362Y-3.2017
M16
G05
T7
G00X7.4843Y-3.0602
M15
G01X7.5157Y-3.0602
M16
G05
G00X7.4843Y-3.3402
M15
G01X7.5157Y-3.3402
M16
G05
G00X7.4874Y-3.8602
M15
G01X7.5189Y-3.8602
M16
G05
G00X7.4874Y-4.1402
M15
G01X7.5189Y-4.1402
M16
G05
G00X7.4874Y-4.6602
M15
G01X7.5189Y-4.6602
M16
G05
G00X7.4874Y-4.9402
M15
G01X7.5189Y-4.9402
M16
G05
T10
G00X7.2941Y-3.0602
M15
G01X7.3059Y-3.0602
M16
G05
G00X7.2941Y-3.3402
M15
G01X7.3059Y-3.3402
M16
G05
G00X7.2972Y-3.8602
M15
G01X7.3091Y-3.8602
M16
G05
G00X7.2972Y-4.1402
M15
G01X7.3091Y-4.1402
M16
G05
G00X7.2972Y-4.6602
M15
G01X7.3091Y-4.6602
M16
G05
G00X7.2972Y-4.9402
M15
G01X7.3091Y-4.9402
M16
G05
G00X7.6941Y-3.0602
M15
G01X7.7059Y-3.0602
M16
G05
G00X7.6941Y-3.34
M15
G01X7.7059Y-3.34
M16
G05
G00X7.6972Y-3.8602
M15
G01X7.7091Y-3.8602
M16
G05
G00X7.6972Y-4.14
M15
G01X7.7091Y-4.14
M16
G05
G00X7.6972Y-4.6602
M15
G01X7.7091Y-4.6602
M16
G05
G00X7.6972Y-4.94
M15
G01X7.7091Y-4.94
M16
G05
T0
M30
