%TF.GenerationSoftware,KiCad,Pcbnew,7.0.2*%
%TF.CreationDate,2023-10-17T20:48:40+09:00*%
%TF.ProjectId,Bridge,42726964-6765-42e6-9b69-6361645f7063,rev?*%
%TF.SameCoordinates,Original*%
%TF.FileFunction,Copper,L2,Bot*%
%TF.FilePolarity,Positive*%
%FSLAX46Y46*%
G04 Gerber Fmt 4.6, Leading zero omitted, Abs format (unit mm)*
G04 Created by KiCad (PCBNEW 7.0.2) date 2023-10-17 20:48:40*
%MOMM*%
%LPD*%
G01*
G04 APERTURE LIST*
G04 Aperture macros list*
%AMRoundRect*
0 Rectangle with rounded corners*
0 $1 Rounding radius*
0 $2 $3 $4 $5 $6 $7 $8 $9 X,Y pos of 4 corners*
0 Add a 4 corners polygon primitive as box body*
4,1,4,$2,$3,$4,$5,$6,$7,$8,$9,$2,$3,0*
0 Add four circle primitives for the rounded corners*
1,1,$1+$1,$2,$3*
1,1,$1+$1,$4,$5*
1,1,$1+$1,$6,$7*
1,1,$1+$1,$8,$9*
0 Add four rect primitives between the rounded corners*
20,1,$1+$1,$2,$3,$4,$5,0*
20,1,$1+$1,$4,$5,$6,$7,0*
20,1,$1+$1,$6,$7,$8,$9,0*
20,1,$1+$1,$8,$9,$2,$3,0*%
G04 Aperture macros list end*
%TA.AperFunction,ComponentPad*%
%ADD10O,4.500000X2.500000*%
%TD*%
%TA.AperFunction,ComponentPad*%
%ADD11R,4.500000X2.500000*%
%TD*%
%TA.AperFunction,ComponentPad*%
%ADD12R,1.700000X1.700000*%
%TD*%
%TA.AperFunction,ComponentPad*%
%ADD13O,1.700000X1.700000*%
%TD*%
%TA.AperFunction,ComponentPad*%
%ADD14R,2.000000X1.905000*%
%TD*%
%TA.AperFunction,ComponentPad*%
%ADD15O,2.000000X1.905000*%
%TD*%
%TA.AperFunction,ComponentPad*%
%ADD16R,1.600000X1.600000*%
%TD*%
%TA.AperFunction,ComponentPad*%
%ADD17O,1.600000X1.600000*%
%TD*%
%TA.AperFunction,ComponentPad*%
%ADD18C,1.400000*%
%TD*%
%TA.AperFunction,ComponentPad*%
%ADD19O,1.400000X1.400000*%
%TD*%
%TA.AperFunction,ComponentPad*%
%ADD20RoundRect,0.875000X-0.875000X-0.875000X0.875000X-0.875000X0.875000X0.875000X-0.875000X0.875000X0*%
%TD*%
%TA.AperFunction,ComponentPad*%
%ADD21RoundRect,0.750000X-0.750000X-1.000000X0.750000X-1.000000X0.750000X1.000000X-0.750000X1.000000X0*%
%TD*%
%TA.AperFunction,ComponentPad*%
%ADD22R,3.500000X3.500000*%
%TD*%
%TA.AperFunction,ComponentPad*%
%ADD23O,3.800000X2.600000*%
%TD*%
%TA.AperFunction,ComponentPad*%
%ADD24C,3.000000*%
%TD*%
%TA.AperFunction,ComponentPad*%
%ADD25R,1.800000X1.800000*%
%TD*%
%TA.AperFunction,ComponentPad*%
%ADD26O,1.800000X1.800000*%
%TD*%
%TA.AperFunction,ComponentPad*%
%ADD27C,1.600000*%
%TD*%
%TA.AperFunction,ViaPad*%
%ADD28C,0.800000*%
%TD*%
%TA.AperFunction,Conductor*%
%ADD29C,0.250000*%
%TD*%
G04 APERTURE END LIST*
D10*
%TO.P,Q2,3,S*%
%TO.N,GND*%
X157480000Y-117210000D03*
%TO.P,Q2,2,D*%
%TO.N,Net-(J2-Pin_1)*%
X157480000Y-111760000D03*
D11*
%TO.P,Q2,1,G*%
%TO.N,Net-(Q2-G)*%
X157480000Y-106310000D03*
%TD*%
D10*
%TO.P,Q1,3,S*%
%TO.N,Net-(J2-Pin_1)*%
X157480000Y-96890000D03*
%TO.P,Q1,2,D*%
%TO.N,Net-(J1-Pin_1)*%
X157480000Y-91440000D03*
D11*
%TO.P,Q1,1,G*%
%TO.N,Net-(Q1-G)*%
X157480000Y-85990000D03*
%TD*%
D12*
%TO.P,J4,1,Pin_1*%
%TO.N,Net-(J4-Pin_1)*%
X107950000Y-92710000D03*
D13*
%TO.P,J4,2,Pin_2*%
%TO.N,GND*%
X107950000Y-95250000D03*
%TD*%
D14*
%TO.P,U4,1,IN*%
%TO.N,+12V*%
X120015000Y-86360000D03*
D15*
%TO.P,U4,2,GND*%
%TO.N,GND*%
X120015000Y-88900000D03*
%TO.P,U4,3,OUT*%
%TO.N,+5V*%
X120015000Y-91440000D03*
%TD*%
D16*
%TO.P,U3,1,NC*%
%TO.N,unconnected-(U3-NC-Pad1)*%
X129550000Y-110500000D03*
D17*
%TO.P,U3,2,A*%
%TO.N,Net-(U3-A)*%
X129550000Y-113040000D03*
%TO.P,U3,3,C*%
%TO.N,GND*%
X129550000Y-115580000D03*
%TO.P,U3,4,NC*%
%TO.N,unconnected-(U3-NC-Pad4)*%
X129550000Y-118120000D03*
%TO.P,U3,5,VEE*%
%TO.N,GND*%
X137170000Y-118120000D03*
%TO.P,U3,6,VO*%
%TO.N,Net-(R4-Pad1)*%
X137170000Y-115580000D03*
%TO.P,U3,7,VO*%
X137170000Y-113040000D03*
%TO.P,U3,8,VCC*%
%TO.N,+12V*%
X137170000Y-110500000D03*
%TD*%
D16*
%TO.P,U2,1,NC*%
%TO.N,unconnected-(U2-NC-Pad1)*%
X129550000Y-90180000D03*
D17*
%TO.P,U2,2,A*%
%TO.N,Net-(U2-A)*%
X129550000Y-92720000D03*
%TO.P,U2,3,C*%
%TO.N,GND*%
X129550000Y-95260000D03*
%TO.P,U2,4,NC*%
%TO.N,unconnected-(U2-NC-Pad4)*%
X129550000Y-97800000D03*
%TO.P,U2,5,VEE*%
%TO.N,Net-(J2-Pin_1)*%
X137170000Y-97800000D03*
%TO.P,U2,6,VO*%
%TO.N,Net-(R3-Pad1)*%
X137170000Y-95260000D03*
%TO.P,U2,7,VO*%
X137170000Y-92720000D03*
%TO.P,U2,8,VCC*%
%TO.N,Net-(D1-K)*%
X137170000Y-90180000D03*
%TD*%
D16*
%TO.P,U1,1*%
%TO.N,Net-(J4-Pin_1)*%
X111770000Y-101595000D03*
D17*
%TO.P,U1,2*%
X111770000Y-104135000D03*
%TO.P,U1,3*%
%TO.N,Net-(R7-Pad1)*%
X111770000Y-106675000D03*
%TO.P,U1,4*%
X111770000Y-109215000D03*
%TO.P,U1,5*%
X111770000Y-111755000D03*
%TO.P,U1,6*%
%TO.N,Net-(R8-Pad1)*%
X111770000Y-114295000D03*
%TO.P,U1,7,GND*%
%TO.N,GND*%
X111770000Y-116835000D03*
%TO.P,U1,8*%
%TO.N,Net-(R5-Pad1)*%
X119390000Y-116835000D03*
%TO.P,U1,9*%
%TO.N,Net-(R7-Pad1)*%
X119390000Y-114295000D03*
%TO.P,U1,10*%
%TO.N,Net-(C6-Pad1)*%
X119390000Y-111755000D03*
%TO.P,U1,11*%
%TO.N,Net-(R6-Pad1)*%
X119390000Y-109215000D03*
%TO.P,U1,12*%
%TO.N,Net-(C7-Pad2)*%
X119390000Y-106675000D03*
%TO.P,U1,13*%
%TO.N,Net-(R8-Pad1)*%
X119390000Y-104135000D03*
%TO.P,U1,14,VCC*%
%TO.N,+5V*%
X119390000Y-101595000D03*
%TD*%
D18*
%TO.P,R8,1*%
%TO.N,Net-(R8-Pad1)*%
X109220000Y-118110000D03*
D19*
%TO.P,R8,2*%
%TO.N,Net-(C7-Pad2)*%
X109220000Y-110490000D03*
%TD*%
D18*
%TO.P,R7,1*%
%TO.N,Net-(R7-Pad1)*%
X109220000Y-107950000D03*
D19*
%TO.P,R7,2*%
%TO.N,Net-(C6-Pad1)*%
X109220000Y-100330000D03*
%TD*%
D18*
%TO.P,R6,1*%
%TO.N,Net-(R6-Pad1)*%
X125730000Y-107950000D03*
D19*
%TO.P,R6,2*%
%TO.N,Net-(U3-A)*%
X125730000Y-115570000D03*
%TD*%
D18*
%TO.P,R5,1*%
%TO.N,Net-(R5-Pad1)*%
X125730000Y-100330000D03*
D19*
%TO.P,R5,2*%
%TO.N,Net-(U2-A)*%
X125730000Y-92710000D03*
%TD*%
%TO.P,R4,2*%
%TO.N,Net-(Q2-G)*%
X157480000Y-101600000D03*
D18*
%TO.P,R4,1*%
%TO.N,Net-(R4-Pad1)*%
X149860000Y-101600000D03*
%TD*%
%TO.P,R3,1*%
%TO.N,Net-(R3-Pad1)*%
X149860000Y-81280000D03*
D19*
%TO.P,R3,2*%
%TO.N,Net-(Q1-G)*%
X157480000Y-81280000D03*
%TD*%
D18*
%TO.P,R2,1*%
%TO.N,Net-(C2-Pad2)*%
X152400000Y-107950000D03*
D19*
%TO.P,R2,2*%
%TO.N,GND*%
X152400000Y-115570000D03*
%TD*%
D18*
%TO.P,R1,1*%
%TO.N,Net-(C1-Pad2)*%
X152400000Y-88900000D03*
D19*
%TO.P,R1,2*%
%TO.N,Net-(J2-Pin_1)*%
X152400000Y-96520000D03*
%TD*%
D20*
%TO.P,J5,3*%
%TO.N,N/C*%
X112220000Y-85022500D03*
D21*
%TO.P,J5,2*%
%TO.N,GND*%
X109220000Y-80322500D03*
D22*
%TO.P,J5,1*%
%TO.N,+12V*%
X115220000Y-80322500D03*
%TD*%
D23*
%TO.P,J3,1,Pin_1*%
%TO.N,GND*%
X185500000Y-118370000D03*
X190580000Y-118370000D03*
X195660000Y-118370000D03*
X195660000Y-125476000D03*
X190580000Y-125482000D03*
X185500000Y-125482000D03*
%TD*%
%TO.P,J2,1,Pin_1*%
%TO.N,Net-(J2-Pin_1)*%
X185500000Y-98050000D03*
X190580000Y-98050000D03*
X195660000Y-98050000D03*
X195660000Y-105156000D03*
X190580000Y-105162000D03*
X185500000Y-105162000D03*
%TD*%
%TO.P,J1,1,Pin_1*%
%TO.N,Net-(J1-Pin_1)*%
X185420000Y-84842000D03*
X190500000Y-84842000D03*
X195580000Y-84836000D03*
X195580000Y-77730000D03*
X190500000Y-77730000D03*
X185420000Y-77730000D03*
%TD*%
D24*
%TO.P,HS2,2*%
%TO.N,GND*%
X163830000Y-116680000D03*
%TO.P,HS2,1*%
X163830000Y-106680000D03*
%TD*%
%TO.P,HS1,2*%
%TO.N,GND*%
X163830000Y-96360000D03*
%TO.P,HS1,1*%
X163830000Y-86360000D03*
%TD*%
D25*
%TO.P,D1,1,K*%
%TO.N,Net-(D1-K)*%
X137160000Y-86360000D03*
D26*
%TO.P,D1,2,A*%
%TO.N,+12V*%
X129540000Y-86360000D03*
%TD*%
D27*
%TO.P,C9,1*%
%TO.N,+5V*%
X120015000Y-96520000D03*
%TO.P,C9,2*%
%TO.N,GND*%
X115015000Y-96520000D03*
%TD*%
%TO.P,C8,1*%
%TO.N,+12V*%
X116205000Y-86400000D03*
%TO.P,C8,2*%
%TO.N,GND*%
X116205000Y-91400000D03*
%TD*%
%TO.P,C7,1*%
%TO.N,GND*%
X121920000Y-101640000D03*
%TO.P,C7,2*%
%TO.N,Net-(C7-Pad2)*%
X121920000Y-106640000D03*
%TD*%
%TO.P,C6,1*%
%TO.N,Net-(C6-Pad1)*%
X121920000Y-111800000D03*
%TO.P,C6,2*%
%TO.N,GND*%
X121920000Y-116800000D03*
%TD*%
%TO.P,C5,1*%
%TO.N,+12V*%
X139700000Y-111800000D03*
%TO.P,C5,2*%
%TO.N,GND*%
X139700000Y-116800000D03*
%TD*%
%TO.P,C4,1*%
%TO.N,Net-(D1-K)*%
X139700000Y-91480000D03*
%TO.P,C4,2*%
%TO.N,Net-(J2-Pin_1)*%
X139700000Y-96480000D03*
%TD*%
%TO.P,C3,1*%
%TO.N,Net-(J1-Pin_1)*%
X144780000Y-94300000D03*
D17*
%TO.P,C3,2*%
%TO.N,GND*%
X144780000Y-114300000D03*
%TD*%
D27*
%TO.P,C2,2*%
%TO.N,Net-(C2-Pad2)*%
X149860000Y-107990000D03*
%TO.P,C2,1*%
%TO.N,Net-(J2-Pin_1)*%
X149860000Y-112990000D03*
%TD*%
%TO.P,C1,1*%
%TO.N,Net-(J1-Pin_1)*%
X149860000Y-93900000D03*
%TO.P,C1,2*%
%TO.N,Net-(C1-Pad2)*%
X149860000Y-88900000D03*
%TD*%
D28*
%TO.N,GND*%
X121920000Y-84455000D03*
X121920000Y-83185000D03*
X118110000Y-84455000D03*
X118110000Y-83185000D03*
X127000000Y-91440000D03*
X124460000Y-91440000D03*
X124460000Y-93980000D03*
X127000000Y-93980000D03*
X107950000Y-90805000D03*
X109220000Y-90805000D03*
X110490000Y-91440000D03*
X111760000Y-92075000D03*
X113030000Y-93345000D03*
X113030000Y-95250000D03*
X113030000Y-97155000D03*
X110490000Y-97155000D03*
X110490000Y-95250000D03*
X109855000Y-93980000D03*
X127635000Y-113030000D03*
X126365000Y-113665000D03*
X123825000Y-116205000D03*
X125095000Y-117475000D03*
X126365000Y-117475000D03*
X127635000Y-118110000D03*
X127635000Y-116840000D03*
X127635000Y-115570000D03*
X118110000Y-118110000D03*
X118110000Y-115570000D03*
X116205000Y-115570000D03*
X114935000Y-114300000D03*
X113665000Y-114300000D03*
X113030000Y-115570000D03*
X109855000Y-114300000D03*
X108585000Y-115570000D03*
X107950000Y-116840000D03*
X110490000Y-113030000D03*
X109855000Y-111760000D03*
X107950000Y-111760000D03*
X107950000Y-109220000D03*
X107950000Y-106680000D03*
X109855000Y-106680000D03*
X110490000Y-105410000D03*
X110490000Y-102870000D03*
X109855000Y-101600000D03*
X107950000Y-101600000D03*
X107950000Y-99060000D03*
X110490000Y-99060000D03*
X113030000Y-99060000D03*
X114300000Y-99060000D03*
X115570000Y-99695000D03*
X116840000Y-100965000D03*
X116840000Y-102235000D03*
X116840000Y-103505000D03*
X118110000Y-102870000D03*
X118110000Y-100330000D03*
X120650000Y-100330000D03*
X120650000Y-102870000D03*
X120650000Y-105410000D03*
X123190000Y-105410000D03*
X124460000Y-106680000D03*
X125730000Y-106045000D03*
X125730000Y-104775000D03*
X125730000Y-103505000D03*
X125730000Y-102235000D03*
X124460000Y-101600000D03*
X124460000Y-99060000D03*
X127000000Y-99060000D03*
X127635000Y-100330000D03*
X128270000Y-101600000D03*
X128270000Y-102870000D03*
X128270000Y-104140000D03*
X128270000Y-105410000D03*
X128270000Y-106680000D03*
X128270000Y-107950000D03*
X128270000Y-109220000D03*
X127000000Y-111125000D03*
X125730000Y-112395000D03*
X124460000Y-113665000D03*
X123190000Y-114935000D03*
X128270000Y-99060000D03*
X128270000Y-96520000D03*
X128270000Y-93980000D03*
X128270000Y-91440000D03*
X128270000Y-88900000D03*
X128270000Y-87630000D03*
X127635000Y-86360000D03*
X128270000Y-84455000D03*
X127000000Y-83185000D03*
X125730000Y-81915000D03*
X124460000Y-81915000D03*
X123190000Y-81915000D03*
X121920000Y-81915000D03*
X118110000Y-81915000D03*
X116840000Y-83185000D03*
X115570000Y-83185000D03*
X114300000Y-83185000D03*
X112395000Y-81280000D03*
X112395000Y-80010000D03*
X112395000Y-78740000D03*
X113030000Y-77470000D03*
X114300000Y-77470000D03*
X115570000Y-77470000D03*
X116840000Y-77470000D03*
X118110000Y-77470000D03*
X118110000Y-78740000D03*
X119380000Y-78740000D03*
X120650000Y-78740000D03*
X121920000Y-78740000D03*
X123190000Y-78740000D03*
X124460000Y-78740000D03*
X125730000Y-78740000D03*
X127000000Y-78740000D03*
X128270000Y-80010000D03*
X129540000Y-81280000D03*
X130810000Y-77470000D03*
X130810000Y-78740000D03*
X130810000Y-80010000D03*
X130810000Y-81280000D03*
X130810000Y-82550000D03*
X130810000Y-87630000D03*
X130810000Y-88900000D03*
X130810000Y-91440000D03*
X130810000Y-93980000D03*
X130810000Y-96520000D03*
X130810000Y-100330000D03*
X130810000Y-99060000D03*
X130810000Y-101600000D03*
X130810000Y-102870000D03*
X130810000Y-104140000D03*
X130810000Y-105410000D03*
X130810000Y-106680000D03*
X130810000Y-107950000D03*
X130810000Y-109220000D03*
X130810000Y-111760000D03*
X130810000Y-114300000D03*
X130810000Y-116840000D03*
X130810000Y-119380000D03*
X128270000Y-119380000D03*
X127000000Y-119380000D03*
X125730000Y-119380000D03*
X124460000Y-119380000D03*
X123190000Y-119380000D03*
X120650000Y-119380000D03*
X121920000Y-119380000D03*
X119380000Y-119380000D03*
X118110000Y-119380000D03*
X116840000Y-119380000D03*
X115570000Y-119380000D03*
X114300000Y-119380000D03*
X113030000Y-119380000D03*
X111760000Y-119380000D03*
X110490000Y-119380000D03*
X107950000Y-119380000D03*
X106680000Y-118110000D03*
X106680000Y-115570000D03*
X106680000Y-113030000D03*
X106680000Y-110490000D03*
X106680000Y-107950000D03*
X106680000Y-105410000D03*
X106680000Y-102870000D03*
X106680000Y-100330000D03*
X106680000Y-97790000D03*
X106680000Y-90170000D03*
X106680000Y-87630000D03*
X106680000Y-85090000D03*
X106680000Y-82550000D03*
X106680000Y-80010000D03*
X106680000Y-77470000D03*
X107950000Y-76200000D03*
X110490000Y-76200000D03*
X113030000Y-76200000D03*
X115570000Y-76200000D03*
X118110000Y-76200000D03*
X120650000Y-76200000D03*
X123190000Y-76200000D03*
X125730000Y-76200000D03*
X128270000Y-76200000D03*
X130810000Y-76200000D03*
X129540000Y-76200000D03*
X127000000Y-76200000D03*
X124460000Y-76200000D03*
X121920000Y-76200000D03*
X119380000Y-76200000D03*
X116840000Y-76200000D03*
X114300000Y-76200000D03*
X111760000Y-76200000D03*
X109220000Y-76200000D03*
X106680000Y-88900000D03*
X106680000Y-86360000D03*
X106680000Y-83820000D03*
X106680000Y-81280000D03*
X106680000Y-78740000D03*
X106680000Y-76200000D03*
X106680000Y-99060000D03*
X106680000Y-101600000D03*
X106680000Y-104140000D03*
X106680000Y-106680000D03*
X106680000Y-109220000D03*
X106680000Y-111760000D03*
X106680000Y-114300000D03*
X106680000Y-116840000D03*
X106680000Y-119380000D03*
%TO.N,Net-(R8-Pad1)*%
X116840000Y-109220000D03*
%TD*%
D29*
%TO.N,Net-(J4-Pin_1)*%
X110490000Y-92710000D02*
X107950000Y-92710000D01*
X111770000Y-93990000D02*
X110490000Y-92710000D01*
X111770000Y-101595000D02*
X111770000Y-93990000D01*
X111770000Y-104135000D02*
X111770000Y-101595000D01*
%TO.N,Net-(R8-Pad1)*%
X116840000Y-109225000D02*
X116840000Y-109220000D01*
X111770000Y-114295000D02*
X116840000Y-109225000D01*
X109220000Y-116845000D02*
X111770000Y-114295000D01*
X109220000Y-118110000D02*
X109220000Y-116845000D01*
%TO.N,Net-(C7-Pad2)*%
X121885000Y-106675000D02*
X121920000Y-106640000D01*
X119390000Y-106675000D02*
X121885000Y-106675000D01*
X118115000Y-106675000D02*
X119390000Y-106675000D01*
X114300000Y-110490000D02*
X118115000Y-106675000D01*
X109220000Y-110490000D02*
X114300000Y-110490000D01*
%TD*%
%TA.AperFunction,Conductor*%
%TO.N,GND*%
G36*
X132023039Y-74949685D02*
G01*
X132068794Y-75002489D01*
X132080000Y-75054000D01*
X132080000Y-120526000D01*
X132060315Y-120593039D01*
X132007511Y-120638794D01*
X131956000Y-120650000D01*
X105534000Y-120650000D01*
X105466961Y-120630315D01*
X105421206Y-120577511D01*
X105410000Y-120526000D01*
X105410000Y-93604578D01*
X106599500Y-93604578D01*
X106599501Y-93607872D01*
X106599853Y-93611152D01*
X106599854Y-93611159D01*
X106604130Y-93650934D01*
X106605909Y-93667483D01*
X106656204Y-93802331D01*
X106742454Y-93917546D01*
X106857669Y-94003796D01*
X106989598Y-94053002D01*
X107045532Y-94094873D01*
X107069949Y-94160337D01*
X107055097Y-94228610D01*
X107033947Y-94256865D01*
X106911888Y-94378924D01*
X106776400Y-94572421D01*
X106676569Y-94786507D01*
X106619364Y-94999999D01*
X106619364Y-95000000D01*
X107516314Y-95000000D01*
X107490507Y-95040156D01*
X107450000Y-95178111D01*
X107450000Y-95321889D01*
X107490507Y-95459844D01*
X107516314Y-95500000D01*
X106619364Y-95500000D01*
X106676569Y-95713492D01*
X106776399Y-95927576D01*
X106911893Y-96121081D01*
X107078918Y-96288106D01*
X107272423Y-96423600D01*
X107486507Y-96523430D01*
X107699998Y-96580634D01*
X107699999Y-96580634D01*
X107699999Y-95685501D01*
X107807685Y-95734680D01*
X107914237Y-95750000D01*
X107985763Y-95750000D01*
X108092315Y-95734680D01*
X108200000Y-95685501D01*
X108200000Y-96580633D01*
X108413490Y-96523430D01*
X108627576Y-96423600D01*
X108821081Y-96288106D01*
X108988106Y-96121081D01*
X109123600Y-95927576D01*
X109223430Y-95713492D01*
X109280636Y-95500000D01*
X108383686Y-95500000D01*
X108409493Y-95459844D01*
X108450000Y-95321889D01*
X108450000Y-95178111D01*
X108409493Y-95040156D01*
X108383686Y-95000000D01*
X109280636Y-95000000D01*
X109280635Y-94999999D01*
X109223430Y-94786507D01*
X109123599Y-94572421D01*
X108988109Y-94378921D01*
X108866053Y-94256865D01*
X108832568Y-94195542D01*
X108837552Y-94125850D01*
X108879424Y-94069917D01*
X108910397Y-94053004D01*
X109042331Y-94003796D01*
X109157546Y-93917546D01*
X109243796Y-93802331D01*
X109294091Y-93667483D01*
X109300500Y-93607873D01*
X109300499Y-93459500D01*
X109320185Y-93392461D01*
X109372989Y-93346706D01*
X109424500Y-93335500D01*
X110179548Y-93335500D01*
X110246587Y-93355185D01*
X110267229Y-93371819D01*
X111108181Y-94212771D01*
X111141666Y-94274094D01*
X111144500Y-94300452D01*
X111144500Y-100170500D01*
X111124815Y-100237539D01*
X111072011Y-100283294D01*
X111020501Y-100294500D01*
X110925439Y-100294500D01*
X110925420Y-100294500D01*
X110922128Y-100294501D01*
X110918848Y-100294853D01*
X110918840Y-100294854D01*
X110862515Y-100300909D01*
X110727667Y-100351204D01*
X110624413Y-100428500D01*
X110558949Y-100452917D01*
X110490676Y-100438065D01*
X110441271Y-100388660D01*
X110426632Y-100340674D01*
X110422386Y-100294854D01*
X110405115Y-100108464D01*
X110382227Y-100028021D01*
X110344230Y-99894473D01*
X110245058Y-99695311D01*
X110110980Y-99517762D01*
X109946562Y-99367875D01*
X109757404Y-99250754D01*
X109696174Y-99227033D01*
X109549940Y-99170382D01*
X109331243Y-99129500D01*
X109108757Y-99129500D01*
X108890060Y-99170382D01*
X108682595Y-99250754D01*
X108493437Y-99367875D01*
X108329019Y-99517762D01*
X108194941Y-99695311D01*
X108095769Y-99894473D01*
X108034885Y-100108462D01*
X108014357Y-100329999D01*
X108034885Y-100551537D01*
X108095769Y-100765526D01*
X108194941Y-100964688D01*
X108329019Y-101142237D01*
X108493437Y-101292124D01*
X108682595Y-101409245D01*
X108682597Y-101409245D01*
X108682599Y-101409247D01*
X108890060Y-101489618D01*
X109108757Y-101530500D01*
X109108759Y-101530500D01*
X109331241Y-101530500D01*
X109331243Y-101530500D01*
X109549940Y-101489618D01*
X109757401Y-101409247D01*
X109946562Y-101292124D01*
X110110981Y-101142236D01*
X110170050Y-101064016D01*
X110246546Y-100962719D01*
X110302654Y-100921082D01*
X110372366Y-100916390D01*
X110433548Y-100950133D01*
X110466776Y-101011596D01*
X110469500Y-101037445D01*
X110469500Y-102439560D01*
X110469500Y-102439578D01*
X110469501Y-102442872D01*
X110475909Y-102502483D01*
X110526204Y-102637331D01*
X110612454Y-102752546D01*
X110727669Y-102838796D01*
X110862517Y-102889091D01*
X110897594Y-102892862D01*
X110962143Y-102919598D01*
X111001993Y-102976989D01*
X111004488Y-103046814D01*
X110968837Y-103106904D01*
X110955463Y-103117725D01*
X110930861Y-103134951D01*
X110769953Y-103295859D01*
X110639432Y-103482264D01*
X110543261Y-103688502D01*
X110484364Y-103908310D01*
X110464531Y-104134999D01*
X110484364Y-104361689D01*
X110543261Y-104581497D01*
X110639432Y-104787735D01*
X110769953Y-104974140D01*
X110930859Y-105135046D01*
X111117263Y-105265566D01*
X111117266Y-105265568D01*
X111175275Y-105292618D01*
X111227714Y-105338791D01*
X111246865Y-105405985D01*
X111226649Y-105472866D01*
X111175275Y-105517382D01*
X111117263Y-105544433D01*
X110930859Y-105674953D01*
X110769953Y-105835859D01*
X110639432Y-106022264D01*
X110543261Y-106228502D01*
X110484364Y-106448310D01*
X110464531Y-106675000D01*
X110484364Y-106901689D01*
X110543261Y-107121497D01*
X110639432Y-107327735D01*
X110769953Y-107514140D01*
X110930859Y-107675046D01*
X111007146Y-107728462D01*
X111117266Y-107805568D01*
X111175275Y-107832618D01*
X111227714Y-107878791D01*
X111246865Y-107945985D01*
X111226649Y-108012866D01*
X111175275Y-108057382D01*
X111117263Y-108084433D01*
X110930859Y-108214953D01*
X110769953Y-108375859D01*
X110639432Y-108562264D01*
X110543261Y-108768502D01*
X110484364Y-108988310D01*
X110464531Y-109215000D01*
X110484364Y-109441689D01*
X110543261Y-109661498D01*
X110555664Y-109688095D01*
X110566156Y-109757173D01*
X110537636Y-109820957D01*
X110479159Y-109859196D01*
X110443282Y-109864500D01*
X110313742Y-109864500D01*
X110246703Y-109844815D01*
X110214788Y-109815227D01*
X110110980Y-109677762D01*
X109946562Y-109527875D01*
X109757404Y-109410754D01*
X109722007Y-109397041D01*
X109563475Y-109335625D01*
X109508076Y-109293054D01*
X109484485Y-109227287D01*
X109500196Y-109159207D01*
X109550220Y-109110428D01*
X109563466Y-109104377D01*
X109757401Y-109029247D01*
X109946562Y-108912124D01*
X110110981Y-108762236D01*
X110245058Y-108584689D01*
X110344229Y-108385528D01*
X110346980Y-108375861D01*
X110367116Y-108305085D01*
X110405115Y-108171536D01*
X110425643Y-107950000D01*
X110405115Y-107728464D01*
X110379958Y-107640046D01*
X110344230Y-107514473D01*
X110245058Y-107315311D01*
X110110980Y-107137762D01*
X109946562Y-106987875D01*
X109757404Y-106870754D01*
X109696174Y-106847033D01*
X109549940Y-106790382D01*
X109331243Y-106749500D01*
X109108757Y-106749500D01*
X108890060Y-106790382D01*
X108682595Y-106870754D01*
X108493437Y-106987875D01*
X108329019Y-107137762D01*
X108194941Y-107315311D01*
X108095769Y-107514473D01*
X108034885Y-107728462D01*
X108014357Y-107950000D01*
X108034885Y-108171537D01*
X108095769Y-108385526D01*
X108194941Y-108584688D01*
X108329019Y-108762237D01*
X108493437Y-108912124D01*
X108616480Y-108988308D01*
X108682599Y-109029247D01*
X108876522Y-109104373D01*
X108931924Y-109146946D01*
X108955514Y-109212713D01*
X108939803Y-109280793D01*
X108889779Y-109329572D01*
X108876526Y-109335624D01*
X108858899Y-109342454D01*
X108682596Y-109410754D01*
X108493437Y-109527875D01*
X108329019Y-109677762D01*
X108194941Y-109855311D01*
X108095769Y-110054473D01*
X108034885Y-110268462D01*
X108014357Y-110489999D01*
X108034885Y-110711537D01*
X108095769Y-110925526D01*
X108194941Y-111124688D01*
X108329019Y-111302237D01*
X108493437Y-111452124D01*
X108682595Y-111569245D01*
X108682597Y-111569245D01*
X108682599Y-111569247D01*
X108890060Y-111649618D01*
X109108757Y-111690500D01*
X109108759Y-111690500D01*
X109331241Y-111690500D01*
X109331243Y-111690500D01*
X109549940Y-111649618D01*
X109757401Y-111569247D01*
X109946562Y-111452124D01*
X110054745Y-111353502D01*
X110110980Y-111302237D01*
X110118783Y-111291905D01*
X110214788Y-111164772D01*
X110270897Y-111123137D01*
X110313742Y-111115500D01*
X110438619Y-111115500D01*
X110505658Y-111135185D01*
X110551413Y-111187989D01*
X110561357Y-111257147D01*
X110551001Y-111291905D01*
X110543261Y-111308501D01*
X110484364Y-111528310D01*
X110464531Y-111754999D01*
X110484364Y-111981689D01*
X110543261Y-112201497D01*
X110639432Y-112407735D01*
X110769953Y-112594140D01*
X110930859Y-112755046D01*
X110995128Y-112800047D01*
X111117266Y-112885568D01*
X111175275Y-112912618D01*
X111227714Y-112958791D01*
X111246865Y-113025985D01*
X111226649Y-113092866D01*
X111175275Y-113137382D01*
X111117263Y-113164433D01*
X110930859Y-113294953D01*
X110769953Y-113455859D01*
X110639432Y-113642264D01*
X110543261Y-113848502D01*
X110484364Y-114068310D01*
X110464531Y-114294999D01*
X110484364Y-114521690D01*
X110502680Y-114590047D01*
X110501017Y-114659897D01*
X110470586Y-114709821D01*
X108836208Y-116344199D01*
X108820110Y-116357096D01*
X108772096Y-116408225D01*
X108769392Y-116411016D01*
X108752628Y-116427780D01*
X108752621Y-116427787D01*
X108749880Y-116430529D01*
X108747499Y-116433597D01*
X108747490Y-116433608D01*
X108747411Y-116433711D01*
X108739842Y-116442572D01*
X108709935Y-116474420D01*
X108700285Y-116491974D01*
X108689609Y-116508228D01*
X108677326Y-116524063D01*
X108659975Y-116564158D01*
X108654838Y-116574644D01*
X108633802Y-116612907D01*
X108628821Y-116632309D01*
X108622520Y-116650711D01*
X108614561Y-116669102D01*
X108607728Y-116712242D01*
X108605360Y-116723674D01*
X108594499Y-116765977D01*
X108594500Y-116786016D01*
X108592973Y-116805414D01*
X108589840Y-116825194D01*
X108593950Y-116868673D01*
X108594500Y-116880343D01*
X108594500Y-117016233D01*
X108574815Y-117083272D01*
X108535778Y-117121659D01*
X108493439Y-117147874D01*
X108329019Y-117297762D01*
X108194941Y-117475311D01*
X108095769Y-117674473D01*
X108034885Y-117888462D01*
X108014357Y-118110000D01*
X108034885Y-118331537D01*
X108095769Y-118545526D01*
X108194941Y-118744688D01*
X108329019Y-118922237D01*
X108493437Y-119072124D01*
X108682595Y-119189245D01*
X108682597Y-119189245D01*
X108682599Y-119189247D01*
X108890060Y-119269618D01*
X109108757Y-119310500D01*
X109108759Y-119310500D01*
X109331241Y-119310500D01*
X109331243Y-119310500D01*
X109549940Y-119269618D01*
X109757401Y-119189247D01*
X109946562Y-119072124D01*
X110110981Y-118922236D01*
X110245058Y-118744689D01*
X110344229Y-118545528D01*
X110405115Y-118331536D01*
X110425643Y-118110000D01*
X110405115Y-117888464D01*
X110382227Y-117808021D01*
X110344230Y-117674473D01*
X110245058Y-117475311D01*
X110110980Y-117297762D01*
X109966760Y-117166289D01*
X109930478Y-117106578D01*
X109932239Y-117036730D01*
X109962615Y-116986973D01*
X110336210Y-116613378D01*
X110397529Y-116579896D01*
X110467220Y-116584880D01*
X110467382Y-116585000D01*
X111454314Y-116585000D01*
X111442359Y-116596955D01*
X111384835Y-116709852D01*
X111365014Y-116835000D01*
X111384835Y-116960148D01*
X111442359Y-117073045D01*
X111454314Y-117085000D01*
X110491128Y-117085000D01*
X110543733Y-117281326D01*
X110639865Y-117487480D01*
X110770341Y-117673819D01*
X110931180Y-117834658D01*
X111117519Y-117965134D01*
X111323673Y-118061266D01*
X111519999Y-118113871D01*
X111520000Y-118113871D01*
X111519999Y-117150685D01*
X111531955Y-117162641D01*
X111644852Y-117220165D01*
X111738519Y-117235000D01*
X111801481Y-117235000D01*
X111895148Y-117220165D01*
X112008045Y-117162641D01*
X112020000Y-117150686D01*
X112020000Y-118113871D01*
X112216326Y-118061266D01*
X112422480Y-117965134D01*
X112608819Y-117834658D01*
X112769658Y-117673819D01*
X112900134Y-117487480D01*
X112996266Y-117281326D01*
X113048872Y-117085000D01*
X112085686Y-117085000D01*
X112097641Y-117073045D01*
X112155165Y-116960148D01*
X112174986Y-116835000D01*
X112155165Y-116709852D01*
X112097641Y-116596955D01*
X112085686Y-116585000D01*
X113048872Y-116585000D01*
X113048871Y-116584999D01*
X112996266Y-116388673D01*
X112900134Y-116182519D01*
X112769658Y-115996180D01*
X112608819Y-115835341D01*
X112422482Y-115704866D01*
X112364133Y-115677657D01*
X112311694Y-115631484D01*
X112292543Y-115564290D01*
X112312759Y-115497409D01*
X112364134Y-115452893D01*
X112422734Y-115425568D01*
X112609139Y-115295047D01*
X112770047Y-115134139D01*
X112900568Y-114947734D01*
X112996739Y-114741496D01*
X113055635Y-114521692D01*
X113075468Y-114295000D01*
X113055635Y-114068308D01*
X113037318Y-113999947D01*
X113038981Y-113930102D01*
X113069410Y-113880178D01*
X116792770Y-110156819D01*
X116854094Y-110123334D01*
X116880452Y-110120500D01*
X116934648Y-110120500D01*
X117058084Y-110094262D01*
X117119803Y-110081144D01*
X117292730Y-110004151D01*
X117445871Y-109892888D01*
X117572533Y-109752216D01*
X117667179Y-109588284D01*
X117725674Y-109408256D01*
X117745460Y-109220000D01*
X117725674Y-109031744D01*
X117667179Y-108851716D01*
X117667179Y-108851715D01*
X117572533Y-108687783D01*
X117445872Y-108547112D01*
X117378916Y-108498466D01*
X117336251Y-108443136D01*
X117330272Y-108373522D01*
X117362878Y-108311727D01*
X117364047Y-108310541D01*
X118190942Y-107483646D01*
X118252263Y-107450163D01*
X118321955Y-107455147D01*
X118377888Y-107497019D01*
X118380195Y-107500205D01*
X118389951Y-107514138D01*
X118550859Y-107675046D01*
X118627146Y-107728462D01*
X118737266Y-107805568D01*
X118795275Y-107832618D01*
X118847714Y-107878791D01*
X118866865Y-107945985D01*
X118846649Y-108012866D01*
X118795275Y-108057382D01*
X118737263Y-108084433D01*
X118550859Y-108214953D01*
X118389953Y-108375859D01*
X118259432Y-108562264D01*
X118163261Y-108768502D01*
X118104364Y-108988310D01*
X118084531Y-109215000D01*
X118104364Y-109441689D01*
X118163261Y-109661497D01*
X118259432Y-109867735D01*
X118389953Y-110054140D01*
X118550859Y-110215046D01*
X118627146Y-110268462D01*
X118737266Y-110345568D01*
X118795275Y-110372618D01*
X118847714Y-110418791D01*
X118866865Y-110485985D01*
X118846649Y-110552866D01*
X118795275Y-110597382D01*
X118737263Y-110624433D01*
X118550859Y-110754953D01*
X118389953Y-110915859D01*
X118259432Y-111102264D01*
X118163261Y-111308502D01*
X118104364Y-111528310D01*
X118084531Y-111755000D01*
X118104364Y-111981689D01*
X118163261Y-112201497D01*
X118259432Y-112407735D01*
X118389953Y-112594140D01*
X118550859Y-112755046D01*
X118615128Y-112800047D01*
X118737266Y-112885568D01*
X118795273Y-112912617D01*
X118847713Y-112958789D01*
X118866865Y-113025982D01*
X118846650Y-113092864D01*
X118795276Y-113137380D01*
X118737266Y-113164431D01*
X118550859Y-113294953D01*
X118389953Y-113455859D01*
X118259432Y-113642264D01*
X118163261Y-113848502D01*
X118104364Y-114068310D01*
X118084531Y-114294999D01*
X118104364Y-114521689D01*
X118163261Y-114741497D01*
X118259432Y-114947735D01*
X118389953Y-115134140D01*
X118550859Y-115295046D01*
X118617853Y-115341955D01*
X118737266Y-115425568D01*
X118795275Y-115452618D01*
X118847714Y-115498791D01*
X118866865Y-115565985D01*
X118846649Y-115632866D01*
X118795275Y-115677382D01*
X118737263Y-115704433D01*
X118550859Y-115834953D01*
X118389953Y-115995859D01*
X118259432Y-116182264D01*
X118163261Y-116388502D01*
X118104364Y-116608310D01*
X118084531Y-116834999D01*
X118104364Y-117061689D01*
X118163261Y-117281497D01*
X118259432Y-117487735D01*
X118389953Y-117674140D01*
X118550859Y-117835046D01*
X118737264Y-117965567D01*
X118737265Y-117965567D01*
X118737266Y-117965568D01*
X118943504Y-118061739D01*
X119163308Y-118120635D01*
X119390000Y-118140468D01*
X119616692Y-118120635D01*
X119619062Y-118120000D01*
X128244531Y-118120000D01*
X128264364Y-118346689D01*
X128323261Y-118566497D01*
X128419432Y-118772735D01*
X128549953Y-118959140D01*
X128710859Y-119120046D01*
X128897264Y-119250567D01*
X128897265Y-119250567D01*
X128897266Y-119250568D01*
X129103504Y-119346739D01*
X129323308Y-119405635D01*
X129474435Y-119418857D01*
X129549999Y-119425468D01*
X129549999Y-119425467D01*
X129550000Y-119425468D01*
X129776692Y-119405635D01*
X129996496Y-119346739D01*
X130202734Y-119250568D01*
X130389139Y-119120047D01*
X130550047Y-118959139D01*
X130680568Y-118772734D01*
X130776739Y-118566496D01*
X130835635Y-118346692D01*
X130855468Y-118120000D01*
X130835635Y-117893308D01*
X130776739Y-117673504D01*
X130680568Y-117467266D01*
X130649124Y-117422358D01*
X130550046Y-117280859D01*
X130389140Y-117119953D01*
X130202736Y-116989433D01*
X130197456Y-116986971D01*
X130144132Y-116962105D01*
X130091695Y-116915933D01*
X130072543Y-116848739D01*
X130092759Y-116781858D01*
X130144135Y-116737342D01*
X130202479Y-116710135D01*
X130388819Y-116579658D01*
X130549658Y-116418819D01*
X130680134Y-116232480D01*
X130776266Y-116026326D01*
X130828872Y-115830000D01*
X129865686Y-115830000D01*
X129877641Y-115818045D01*
X129935165Y-115705148D01*
X129954986Y-115580000D01*
X129935165Y-115454852D01*
X129877641Y-115341955D01*
X129865686Y-115330000D01*
X130828872Y-115330000D01*
X130828871Y-115329999D01*
X130776266Y-115133673D01*
X130680134Y-114927519D01*
X130549658Y-114741180D01*
X130388819Y-114580341D01*
X130202482Y-114449866D01*
X130144133Y-114422657D01*
X130091694Y-114376484D01*
X130072543Y-114309290D01*
X130092759Y-114242409D01*
X130144134Y-114197893D01*
X130202734Y-114170568D01*
X130389139Y-114040047D01*
X130550047Y-113879139D01*
X130680568Y-113692734D01*
X130776739Y-113486496D01*
X130835635Y-113266692D01*
X130855468Y-113040000D01*
X130835635Y-112813308D01*
X130776739Y-112593504D01*
X130680568Y-112387266D01*
X130677544Y-112382946D01*
X130550046Y-112200859D01*
X130389140Y-112039953D01*
X130364537Y-112022726D01*
X130320912Y-111968150D01*
X130313718Y-111898651D01*
X130345241Y-111836296D01*
X130405470Y-111800882D01*
X130422401Y-111797862D01*
X130457483Y-111794091D01*
X130592331Y-111743796D01*
X130707546Y-111657546D01*
X130793796Y-111542331D01*
X130844091Y-111407483D01*
X130850500Y-111347873D01*
X130850499Y-109652128D01*
X130844091Y-109592517D01*
X130793796Y-109457669D01*
X130707546Y-109342454D01*
X130592331Y-109256204D01*
X130457483Y-109205909D01*
X130397873Y-109199500D01*
X130394550Y-109199500D01*
X128705439Y-109199500D01*
X128705420Y-109199500D01*
X128702128Y-109199501D01*
X128698848Y-109199853D01*
X128698840Y-109199854D01*
X128642515Y-109205909D01*
X128507669Y-109256204D01*
X128392454Y-109342454D01*
X128306204Y-109457668D01*
X128255910Y-109592515D01*
X128255909Y-109592517D01*
X128249500Y-109652127D01*
X128249500Y-109655448D01*
X128249500Y-109655449D01*
X128249500Y-111344560D01*
X128249500Y-111344578D01*
X128249501Y-111347872D01*
X128255909Y-111407483D01*
X128306204Y-111542331D01*
X128392454Y-111657546D01*
X128507669Y-111743796D01*
X128642517Y-111794091D01*
X128677594Y-111797862D01*
X128742143Y-111824598D01*
X128781993Y-111881989D01*
X128784488Y-111951814D01*
X128748837Y-112011904D01*
X128735463Y-112022725D01*
X128710861Y-112039951D01*
X128549953Y-112200859D01*
X128419432Y-112387264D01*
X128323261Y-112593502D01*
X128264364Y-112813310D01*
X128244531Y-113040000D01*
X128264364Y-113266689D01*
X128323261Y-113486497D01*
X128419432Y-113692735D01*
X128549953Y-113879140D01*
X128710859Y-114040046D01*
X128897264Y-114170567D01*
X128897265Y-114170567D01*
X128897266Y-114170568D01*
X128955865Y-114197893D01*
X129008304Y-114244065D01*
X129027456Y-114311259D01*
X129007240Y-114378140D01*
X128955866Y-114422656D01*
X128897522Y-114449863D01*
X128711180Y-114580341D01*
X128550341Y-114741180D01*
X128419865Y-114927519D01*
X128323733Y-115133673D01*
X128271128Y-115329999D01*
X128271128Y-115330000D01*
X129234314Y-115330000D01*
X129222359Y-115341955D01*
X129164835Y-115454852D01*
X129145014Y-115580000D01*
X129164835Y-115705148D01*
X129222359Y-115818045D01*
X129234314Y-115830000D01*
X128271128Y-115830000D01*
X128323733Y-116026326D01*
X128419865Y-116232480D01*
X128550341Y-116418819D01*
X128711180Y-116579658D01*
X128897519Y-116710134D01*
X128955865Y-116737342D01*
X129008304Y-116783514D01*
X129027456Y-116850708D01*
X129007240Y-116917589D01*
X128955866Y-116962105D01*
X128897267Y-116989430D01*
X128710859Y-117119953D01*
X128549953Y-117280859D01*
X128419432Y-117467264D01*
X128323261Y-117673502D01*
X128264364Y-117893310D01*
X128244531Y-118120000D01*
X119619062Y-118120000D01*
X119836496Y-118061739D01*
X120042734Y-117965568D01*
X120229139Y-117835047D01*
X120390047Y-117674139D01*
X120520568Y-117487734D01*
X120551055Y-117422354D01*
X120597224Y-117369918D01*
X120664417Y-117350765D01*
X120731299Y-117370980D01*
X120775816Y-117422354D01*
X120789866Y-117452483D01*
X120840972Y-117525471D01*
X120840974Y-117525472D01*
X121522046Y-116844399D01*
X121534835Y-116925148D01*
X121592359Y-117038045D01*
X121681955Y-117127641D01*
X121794852Y-117185165D01*
X121875599Y-117197953D01*
X121194526Y-117879025D01*
X121194526Y-117879026D01*
X121267515Y-117930133D01*
X121473673Y-118026266D01*
X121693397Y-118085141D01*
X121920000Y-118104966D01*
X122146602Y-118085141D01*
X122366326Y-118026266D01*
X122572480Y-117930134D01*
X122645472Y-117879025D01*
X121964401Y-117197953D01*
X122045148Y-117185165D01*
X122158045Y-117127641D01*
X122247641Y-117038045D01*
X122305165Y-116925148D01*
X122317953Y-116844400D01*
X122999025Y-117525472D01*
X123050134Y-117452480D01*
X123146266Y-117246326D01*
X123205141Y-117026602D01*
X123224966Y-116800000D01*
X123205141Y-116573397D01*
X123146266Y-116353673D01*
X123050133Y-116147515D01*
X122999025Y-116074526D01*
X122317953Y-116755598D01*
X122305165Y-116674852D01*
X122247641Y-116561955D01*
X122158045Y-116472359D01*
X122045148Y-116414835D01*
X121964400Y-116402046D01*
X122645472Y-115720974D01*
X122645471Y-115720972D01*
X122572484Y-115669866D01*
X122366326Y-115573733D01*
X122352394Y-115570000D01*
X124524357Y-115570000D01*
X124544885Y-115791537D01*
X124605769Y-116005526D01*
X124704941Y-116204688D01*
X124839019Y-116382237D01*
X125003437Y-116532124D01*
X125192595Y-116649245D01*
X125192597Y-116649245D01*
X125192599Y-116649247D01*
X125400060Y-116729618D01*
X125618757Y-116770500D01*
X125618759Y-116770500D01*
X125841241Y-116770500D01*
X125841243Y-116770500D01*
X126059940Y-116729618D01*
X126267401Y-116649247D01*
X126456562Y-116532124D01*
X126571022Y-116427780D01*
X126620980Y-116382237D01*
X126638366Y-116359214D01*
X126755058Y-116204689D01*
X126854229Y-116005528D01*
X126856980Y-115995861D01*
X126902651Y-115835341D01*
X126915115Y-115791536D01*
X126935643Y-115570000D01*
X126915115Y-115348464D01*
X126867183Y-115180000D01*
X126854230Y-115134473D01*
X126755058Y-114935311D01*
X126620980Y-114757762D01*
X126456562Y-114607875D01*
X126267404Y-114490754D01*
X126206174Y-114467033D01*
X126059940Y-114410382D01*
X125841243Y-114369500D01*
X125618757Y-114369500D01*
X125400059Y-114410381D01*
X125400060Y-114410382D01*
X125192595Y-114490754D01*
X125003437Y-114607875D01*
X124839019Y-114757762D01*
X124704941Y-114935311D01*
X124605769Y-115134473D01*
X124544885Y-115348462D01*
X124524357Y-115570000D01*
X122352394Y-115570000D01*
X122146602Y-115514858D01*
X121920000Y-115495033D01*
X121693397Y-115514858D01*
X121473672Y-115573733D01*
X121267516Y-115669865D01*
X121194527Y-115720973D01*
X121194526Y-115720973D01*
X121875600Y-116402046D01*
X121794852Y-116414835D01*
X121681955Y-116472359D01*
X121592359Y-116561955D01*
X121534835Y-116674852D01*
X121522046Y-116755599D01*
X120840973Y-116074526D01*
X120840973Y-116074527D01*
X120789866Y-116147515D01*
X120759496Y-116212644D01*
X120713323Y-116265083D01*
X120646129Y-116284234D01*
X120579248Y-116264018D01*
X120534733Y-116212643D01*
X120520568Y-116182266D01*
X120445129Y-116074527D01*
X120390046Y-115995859D01*
X120229140Y-115834953D01*
X120042736Y-115704433D01*
X119984723Y-115677381D01*
X119932284Y-115631208D01*
X119913133Y-115564014D01*
X119933349Y-115497133D01*
X119984721Y-115452619D01*
X120042734Y-115425568D01*
X120229139Y-115295047D01*
X120390047Y-115134139D01*
X120520568Y-114947734D01*
X120616739Y-114741496D01*
X120675635Y-114521692D01*
X120695468Y-114295000D01*
X120692995Y-114266739D01*
X120684582Y-114170568D01*
X120675635Y-114068308D01*
X120616739Y-113848504D01*
X120520568Y-113642266D01*
X120411499Y-113486497D01*
X120390046Y-113455859D01*
X120229140Y-113294953D01*
X120042733Y-113164431D01*
X119984725Y-113137382D01*
X119932285Y-113091210D01*
X119913133Y-113024017D01*
X119933348Y-112957135D01*
X119984725Y-112912618D01*
X120042734Y-112885568D01*
X120229139Y-112755047D01*
X120390047Y-112594139D01*
X120520568Y-112407734D01*
X120532127Y-112382945D01*
X120578294Y-112330510D01*
X120645487Y-112311356D01*
X120712369Y-112331570D01*
X120756889Y-112382946D01*
X120789433Y-112452736D01*
X120919953Y-112639140D01*
X121080859Y-112800046D01*
X121267264Y-112930567D01*
X121267265Y-112930567D01*
X121267266Y-112930568D01*
X121473504Y-113026739D01*
X121693308Y-113085635D01*
X121920000Y-113105468D01*
X122146692Y-113085635D01*
X122366496Y-113026739D01*
X122572734Y-112930568D01*
X122759139Y-112800047D01*
X122920047Y-112639139D01*
X123050568Y-112452734D01*
X123146739Y-112246496D01*
X123205635Y-112026692D01*
X123225468Y-111800000D01*
X123205635Y-111573308D01*
X123146739Y-111353504D01*
X123050568Y-111147266D01*
X123032040Y-111120804D01*
X122920046Y-110960859D01*
X122759140Y-110799953D01*
X122572735Y-110669432D01*
X122366497Y-110573261D01*
X122146689Y-110514364D01*
X121920000Y-110494531D01*
X121693310Y-110514364D01*
X121473502Y-110573261D01*
X121267264Y-110669432D01*
X121080859Y-110799953D01*
X120919953Y-110960859D01*
X120789429Y-111147268D01*
X120777871Y-111172055D01*
X120731697Y-111224493D01*
X120664503Y-111243643D01*
X120597623Y-111223425D01*
X120553109Y-111172051D01*
X120549715Y-111164773D01*
X120520568Y-111102266D01*
X120396816Y-110925528D01*
X120390046Y-110915859D01*
X120229140Y-110754953D01*
X120042733Y-110624431D01*
X119984725Y-110597382D01*
X119932285Y-110551210D01*
X119913133Y-110484017D01*
X119933348Y-110417135D01*
X119984725Y-110372618D01*
X120042734Y-110345568D01*
X120229139Y-110215047D01*
X120390047Y-110054139D01*
X120520568Y-109867734D01*
X120616739Y-109661496D01*
X120675635Y-109441692D01*
X120695468Y-109215000D01*
X120675635Y-108988308D01*
X120616739Y-108768504D01*
X120520568Y-108562266D01*
X120509958Y-108547112D01*
X120390046Y-108375859D01*
X120229140Y-108214953D01*
X120042733Y-108084431D01*
X119984725Y-108057382D01*
X119932285Y-108011210D01*
X119914838Y-107949999D01*
X124524357Y-107949999D01*
X124544885Y-108171537D01*
X124605769Y-108385526D01*
X124704941Y-108584688D01*
X124839019Y-108762237D01*
X125003437Y-108912124D01*
X125192595Y-109029245D01*
X125192597Y-109029245D01*
X125192599Y-109029247D01*
X125400060Y-109109618D01*
X125618757Y-109150500D01*
X125618759Y-109150500D01*
X125841241Y-109150500D01*
X125841243Y-109150500D01*
X126059940Y-109109618D01*
X126267401Y-109029247D01*
X126456562Y-108912124D01*
X126620981Y-108762236D01*
X126755058Y-108584689D01*
X126854229Y-108385528D01*
X126856980Y-108375861D01*
X126877116Y-108305085D01*
X126915115Y-108171536D01*
X126935643Y-107950000D01*
X126915115Y-107728464D01*
X126889958Y-107640046D01*
X126854230Y-107514473D01*
X126755058Y-107315311D01*
X126620980Y-107137762D01*
X126456562Y-106987875D01*
X126267404Y-106870754D01*
X126206174Y-106847033D01*
X126059940Y-106790382D01*
X125841243Y-106749500D01*
X125618757Y-106749500D01*
X125400059Y-106790382D01*
X125400060Y-106790382D01*
X125192595Y-106870754D01*
X125003437Y-106987875D01*
X124839019Y-107137762D01*
X124704941Y-107315311D01*
X124605769Y-107514473D01*
X124544885Y-107728462D01*
X124524357Y-107949999D01*
X119914838Y-107949999D01*
X119913133Y-107944017D01*
X119933348Y-107877135D01*
X119984725Y-107832618D01*
X120042734Y-107805568D01*
X120229139Y-107675047D01*
X120390047Y-107514139D01*
X120450468Y-107427847D01*
X120502613Y-107353377D01*
X120557189Y-107309752D01*
X120604188Y-107300500D01*
X120730319Y-107300500D01*
X120797358Y-107320185D01*
X120831894Y-107353377D01*
X120919953Y-107479140D01*
X121080859Y-107640046D01*
X121267264Y-107770567D01*
X121267265Y-107770567D01*
X121267266Y-107770568D01*
X121473504Y-107866739D01*
X121693308Y-107925635D01*
X121920000Y-107945468D01*
X122146692Y-107925635D01*
X122366496Y-107866739D01*
X122572734Y-107770568D01*
X122759139Y-107640047D01*
X122920047Y-107479139D01*
X123050568Y-107292734D01*
X123146739Y-107086496D01*
X123205635Y-106866692D01*
X123225468Y-106640000D01*
X123205635Y-106413308D01*
X123146739Y-106193504D01*
X123050568Y-105987266D01*
X122920047Y-105800861D01*
X122920046Y-105800859D01*
X122759140Y-105639953D01*
X122572735Y-105509432D01*
X122366497Y-105413261D01*
X122146689Y-105354364D01*
X121920000Y-105334531D01*
X121693310Y-105354364D01*
X121473502Y-105413261D01*
X121267264Y-105509432D01*
X121080859Y-105639953D01*
X120919953Y-105800859D01*
X120783209Y-105996153D01*
X120779815Y-105993777D01*
X120747655Y-106030325D01*
X120681415Y-106049500D01*
X120604188Y-106049500D01*
X120537149Y-106029815D01*
X120502613Y-105996623D01*
X120390046Y-105835859D01*
X120229140Y-105674953D01*
X120042733Y-105544431D01*
X119984725Y-105517382D01*
X119932285Y-105471210D01*
X119913133Y-105404017D01*
X119933348Y-105337135D01*
X119984725Y-105292618D01*
X120042734Y-105265568D01*
X120229139Y-105135047D01*
X120390047Y-104974139D01*
X120520568Y-104787734D01*
X120616739Y-104581496D01*
X120675635Y-104361692D01*
X120695468Y-104135000D01*
X120675635Y-103908308D01*
X120616739Y-103688504D01*
X120520568Y-103482266D01*
X120390047Y-103295861D01*
X120390046Y-103295859D01*
X120229140Y-103134953D01*
X120042736Y-103004433D01*
X119984723Y-102977381D01*
X119932284Y-102931208D01*
X119913133Y-102864014D01*
X119933349Y-102797133D01*
X119984721Y-102752619D01*
X120042734Y-102725568D01*
X120229139Y-102595047D01*
X120390047Y-102434139D01*
X120520568Y-102247734D01*
X120532402Y-102222355D01*
X120578572Y-102169918D01*
X120645765Y-102150765D01*
X120712646Y-102170980D01*
X120757165Y-102222356D01*
X120789866Y-102292483D01*
X120840972Y-102365471D01*
X120840974Y-102365472D01*
X121522046Y-101684399D01*
X121534835Y-101765148D01*
X121592359Y-101878045D01*
X121681955Y-101967641D01*
X121794852Y-102025165D01*
X121875599Y-102037953D01*
X121194526Y-102719025D01*
X121194526Y-102719026D01*
X121267515Y-102770133D01*
X121473673Y-102866266D01*
X121693397Y-102925141D01*
X121920000Y-102944966D01*
X122146602Y-102925141D01*
X122366326Y-102866266D01*
X122572480Y-102770134D01*
X122645472Y-102719025D01*
X121964401Y-102037953D01*
X122045148Y-102025165D01*
X122158045Y-101967641D01*
X122247641Y-101878045D01*
X122305165Y-101765148D01*
X122317953Y-101684400D01*
X122999025Y-102365472D01*
X123050134Y-102292480D01*
X123146266Y-102086326D01*
X123205141Y-101866602D01*
X123224966Y-101640000D01*
X123205141Y-101413397D01*
X123146266Y-101193673D01*
X123050133Y-100987515D01*
X122999025Y-100914526D01*
X122317953Y-101595598D01*
X122305165Y-101514852D01*
X122247641Y-101401955D01*
X122158045Y-101312359D01*
X122045148Y-101254835D01*
X121964400Y-101242046D01*
X122645472Y-100560974D01*
X122645471Y-100560972D01*
X122572484Y-100509866D01*
X122366326Y-100413733D01*
X122146602Y-100354858D01*
X121920000Y-100335033D01*
X121693397Y-100354858D01*
X121473672Y-100413733D01*
X121267516Y-100509865D01*
X121194527Y-100560973D01*
X121194526Y-100560973D01*
X121875600Y-101242046D01*
X121794852Y-101254835D01*
X121681955Y-101312359D01*
X121592359Y-101401955D01*
X121534835Y-101514852D01*
X121522046Y-101595599D01*
X120840973Y-100914526D01*
X120840973Y-100914527D01*
X120789865Y-100987517D01*
X120778148Y-101012644D01*
X120731975Y-101065082D01*
X120664781Y-101084233D01*
X120597900Y-101064016D01*
X120553385Y-101012642D01*
X120520567Y-100942264D01*
X120390046Y-100755859D01*
X120229140Y-100594953D01*
X120042735Y-100464432D01*
X119836497Y-100368261D01*
X119693704Y-100330000D01*
X124524357Y-100330000D01*
X124544885Y-100551537D01*
X124605769Y-100765526D01*
X124704941Y-100964688D01*
X124839019Y-101142237D01*
X125003437Y-101292124D01*
X125192595Y-101409245D01*
X125192597Y-101409245D01*
X125192599Y-101409247D01*
X125400060Y-101489618D01*
X125618757Y-101530500D01*
X125618759Y-101530500D01*
X125841241Y-101530500D01*
X125841243Y-101530500D01*
X126059940Y-101489618D01*
X126267401Y-101409247D01*
X126456562Y-101292124D01*
X126620981Y-101142236D01*
X126755058Y-100964689D01*
X126854229Y-100765528D01*
X126856980Y-100755861D01*
X126877116Y-100685085D01*
X126915115Y-100551536D01*
X126935643Y-100330000D01*
X126915115Y-100108464D01*
X126892227Y-100028021D01*
X126854230Y-99894473D01*
X126755058Y-99695311D01*
X126620980Y-99517762D01*
X126456562Y-99367875D01*
X126267404Y-99250754D01*
X126206174Y-99227033D01*
X126059940Y-99170382D01*
X125841243Y-99129500D01*
X125618757Y-99129500D01*
X125400060Y-99170382D01*
X125192595Y-99250754D01*
X125003437Y-99367875D01*
X124839019Y-99517762D01*
X124704941Y-99695311D01*
X124605769Y-99894473D01*
X124544885Y-100108462D01*
X124524357Y-100330000D01*
X119693704Y-100330000D01*
X119616689Y-100309364D01*
X119390000Y-100289531D01*
X119163310Y-100309364D01*
X118943502Y-100368261D01*
X118737264Y-100464432D01*
X118550859Y-100594953D01*
X118389953Y-100755859D01*
X118259432Y-100942264D01*
X118163261Y-101148502D01*
X118104364Y-101368310D01*
X118084531Y-101595000D01*
X118104364Y-101821689D01*
X118163261Y-102041497D01*
X118259432Y-102247735D01*
X118389953Y-102434140D01*
X118550859Y-102595046D01*
X118727923Y-102719026D01*
X118737266Y-102725568D01*
X118795275Y-102752618D01*
X118847714Y-102798791D01*
X118866865Y-102865985D01*
X118846649Y-102932866D01*
X118795275Y-102977382D01*
X118737263Y-103004433D01*
X118550859Y-103134953D01*
X118389953Y-103295859D01*
X118259432Y-103482264D01*
X118163261Y-103688502D01*
X118104364Y-103908310D01*
X118084531Y-104135000D01*
X118104364Y-104361689D01*
X118163261Y-104581497D01*
X118259432Y-104787735D01*
X118389953Y-104974140D01*
X118550859Y-105135046D01*
X118737263Y-105265566D01*
X118737266Y-105265568D01*
X118795275Y-105292618D01*
X118847714Y-105338791D01*
X118866865Y-105405985D01*
X118846649Y-105472866D01*
X118795275Y-105517382D01*
X118737263Y-105544433D01*
X118550859Y-105674953D01*
X118389953Y-105835859D01*
X118279020Y-105994290D01*
X118224443Y-106037915D01*
X118181341Y-106047106D01*
X118111253Y-106049308D01*
X118107111Y-106049439D01*
X118103219Y-106049500D01*
X118075650Y-106049500D01*
X118071794Y-106049986D01*
X118071791Y-106049987D01*
X118071735Y-106049994D01*
X118071662Y-106050003D01*
X118060043Y-106050917D01*
X118016372Y-106052289D01*
X117997128Y-106057880D01*
X117978084Y-106061824D01*
X117958208Y-106064335D01*
X117917600Y-106080413D01*
X117906554Y-106084194D01*
X117864610Y-106096382D01*
X117864607Y-106096383D01*
X117847365Y-106106579D01*
X117829904Y-106115133D01*
X117811267Y-106122512D01*
X117775931Y-106148185D01*
X117766174Y-106154595D01*
X117728580Y-106176829D01*
X117714413Y-106190996D01*
X117699624Y-106203626D01*
X117683413Y-106215404D01*
X117655572Y-106249058D01*
X117647711Y-106257697D01*
X114077228Y-109828181D01*
X114015905Y-109861666D01*
X113989547Y-109864500D01*
X113096718Y-109864500D01*
X113029679Y-109844815D01*
X112983924Y-109792011D01*
X112973980Y-109722853D01*
X112984336Y-109688095D01*
X112996738Y-109661498D01*
X112996737Y-109661498D01*
X112996739Y-109661496D01*
X113055635Y-109441692D01*
X113075468Y-109215000D01*
X113055635Y-108988308D01*
X112996739Y-108768504D01*
X112900568Y-108562266D01*
X112889958Y-108547112D01*
X112770046Y-108375859D01*
X112609140Y-108214953D01*
X112422733Y-108084431D01*
X112364725Y-108057382D01*
X112312285Y-108011210D01*
X112293133Y-107944017D01*
X112313348Y-107877135D01*
X112364725Y-107832618D01*
X112422734Y-107805568D01*
X112609139Y-107675047D01*
X112770047Y-107514139D01*
X112900568Y-107327734D01*
X112996739Y-107121496D01*
X113055635Y-106901692D01*
X113075468Y-106675000D01*
X113055635Y-106448308D01*
X112996739Y-106228504D01*
X112900568Y-106022266D01*
X112880980Y-105994290D01*
X112770046Y-105835859D01*
X112609140Y-105674953D01*
X112422733Y-105544431D01*
X112364725Y-105517382D01*
X112312285Y-105471210D01*
X112293133Y-105404017D01*
X112313348Y-105337135D01*
X112364725Y-105292618D01*
X112422734Y-105265568D01*
X112609139Y-105135047D01*
X112770047Y-104974139D01*
X112900568Y-104787734D01*
X112996739Y-104581496D01*
X113055635Y-104361692D01*
X113075468Y-104135000D01*
X113055635Y-103908308D01*
X112996739Y-103688504D01*
X112900568Y-103482266D01*
X112770047Y-103295861D01*
X112770046Y-103295859D01*
X112609140Y-103134953D01*
X112584537Y-103117726D01*
X112540912Y-103063150D01*
X112533718Y-102993651D01*
X112565241Y-102931296D01*
X112625470Y-102895882D01*
X112642401Y-102892862D01*
X112677483Y-102889091D01*
X112812331Y-102838796D01*
X112927546Y-102752546D01*
X113013796Y-102637331D01*
X113064091Y-102502483D01*
X113070500Y-102442873D01*
X113070499Y-100747128D01*
X113064091Y-100687517D01*
X113013796Y-100552669D01*
X112927546Y-100437454D01*
X112812331Y-100351204D01*
X112677483Y-100300909D01*
X112617873Y-100294500D01*
X112614551Y-100294500D01*
X112519500Y-100294500D01*
X112452461Y-100274815D01*
X112406706Y-100222011D01*
X112395500Y-100170500D01*
X112395500Y-96520000D01*
X113710033Y-96520000D01*
X113729858Y-96746602D01*
X113788733Y-96966326D01*
X113884866Y-97172484D01*
X113935972Y-97245471D01*
X113935974Y-97245472D01*
X114617046Y-96564399D01*
X114629835Y-96645148D01*
X114687359Y-96758045D01*
X114776955Y-96847641D01*
X114889852Y-96905165D01*
X114970599Y-96917953D01*
X114289526Y-97599025D01*
X114289526Y-97599026D01*
X114362515Y-97650133D01*
X114568673Y-97746266D01*
X114788397Y-97805141D01*
X115015000Y-97824966D01*
X115241602Y-97805141D01*
X115461326Y-97746266D01*
X115667480Y-97650134D01*
X115740472Y-97599025D01*
X115059401Y-96917953D01*
X115140148Y-96905165D01*
X115253045Y-96847641D01*
X115342641Y-96758045D01*
X115400165Y-96645148D01*
X115412953Y-96564400D01*
X116094025Y-97245472D01*
X116145134Y-97172480D01*
X116241266Y-96966326D01*
X116300141Y-96746602D01*
X116319966Y-96520000D01*
X116319966Y-96519999D01*
X118709531Y-96519999D01*
X118729364Y-96746689D01*
X118788261Y-96966497D01*
X118884432Y-97172735D01*
X119014953Y-97359140D01*
X119175859Y-97520046D01*
X119362264Y-97650567D01*
X119362265Y-97650567D01*
X119362266Y-97650568D01*
X119568504Y-97746739D01*
X119788308Y-97805635D01*
X120015000Y-97825468D01*
X120241692Y-97805635D01*
X120262722Y-97800000D01*
X128244531Y-97800000D01*
X128264364Y-98026689D01*
X128323261Y-98246497D01*
X128419432Y-98452735D01*
X128549953Y-98639140D01*
X128710859Y-98800046D01*
X128897264Y-98930567D01*
X128897265Y-98930567D01*
X128897266Y-98930568D01*
X129103504Y-99026739D01*
X129323308Y-99085635D01*
X129550000Y-99105468D01*
X129776692Y-99085635D01*
X129996496Y-99026739D01*
X130202734Y-98930568D01*
X130389139Y-98800047D01*
X130550047Y-98639139D01*
X130680568Y-98452734D01*
X130776739Y-98246496D01*
X130835635Y-98026692D01*
X130855468Y-97800000D01*
X130835635Y-97573308D01*
X130776739Y-97353504D01*
X130680568Y-97147266D01*
X130553994Y-96966497D01*
X130550046Y-96960859D01*
X130389140Y-96799953D01*
X130202736Y-96669433D01*
X130150657Y-96645148D01*
X130144132Y-96642105D01*
X130091695Y-96595933D01*
X130072543Y-96528739D01*
X130092759Y-96461858D01*
X130144135Y-96417342D01*
X130202479Y-96390135D01*
X130388819Y-96259658D01*
X130549658Y-96098819D01*
X130680134Y-95912480D01*
X130776266Y-95706326D01*
X130828872Y-95510000D01*
X129865686Y-95510000D01*
X129877641Y-95498045D01*
X129935165Y-95385148D01*
X129954986Y-95260000D01*
X129935165Y-95134852D01*
X129877641Y-95021955D01*
X129865686Y-95010000D01*
X130828872Y-95010000D01*
X130828871Y-95009999D01*
X130776266Y-94813673D01*
X130680134Y-94607519D01*
X130549658Y-94421180D01*
X130388819Y-94260341D01*
X130202482Y-94129866D01*
X130144133Y-94102657D01*
X130091694Y-94056484D01*
X130072543Y-93989290D01*
X130092759Y-93922409D01*
X130144134Y-93877893D01*
X130202734Y-93850568D01*
X130389139Y-93720047D01*
X130550047Y-93559139D01*
X130680568Y-93372734D01*
X130776739Y-93166496D01*
X130835635Y-92946692D01*
X130855468Y-92720000D01*
X130835635Y-92493308D01*
X130776739Y-92273504D01*
X130680568Y-92067266D01*
X130651439Y-92025664D01*
X130550046Y-91880859D01*
X130389140Y-91719953D01*
X130364537Y-91702726D01*
X130320912Y-91648150D01*
X130313718Y-91578651D01*
X130345241Y-91516296D01*
X130405470Y-91480882D01*
X130422401Y-91477862D01*
X130457483Y-91474091D01*
X130592331Y-91423796D01*
X130707546Y-91337546D01*
X130793796Y-91222331D01*
X130844091Y-91087483D01*
X130850500Y-91027873D01*
X130850499Y-89332128D01*
X130844091Y-89272517D01*
X130793796Y-89137669D01*
X130707546Y-89022454D01*
X130592331Y-88936204D01*
X130457483Y-88885909D01*
X130397873Y-88879500D01*
X130394550Y-88879500D01*
X128705439Y-88879500D01*
X128705420Y-88879500D01*
X128702128Y-88879501D01*
X128698848Y-88879853D01*
X128698840Y-88879854D01*
X128642515Y-88885909D01*
X128507669Y-88936204D01*
X128392454Y-89022454D01*
X128306204Y-89137668D01*
X128255910Y-89272515D01*
X128255909Y-89272517D01*
X128249500Y-89332127D01*
X128249500Y-89335448D01*
X128249500Y-89335449D01*
X128249500Y-91024560D01*
X128249500Y-91024578D01*
X128249501Y-91027872D01*
X128249853Y-91031152D01*
X128249854Y-91031159D01*
X128255329Y-91082087D01*
X128255909Y-91087483D01*
X128306204Y-91222331D01*
X128392454Y-91337546D01*
X128507669Y-91423796D01*
X128642517Y-91474091D01*
X128677594Y-91477862D01*
X128742143Y-91504598D01*
X128781993Y-91561989D01*
X128784488Y-91631814D01*
X128748837Y-91691904D01*
X128735463Y-91702725D01*
X128710861Y-91719951D01*
X128549953Y-91880859D01*
X128419432Y-92067264D01*
X128323261Y-92273502D01*
X128264364Y-92493310D01*
X128244531Y-92720000D01*
X128264364Y-92946689D01*
X128323261Y-93166497D01*
X128419432Y-93372735D01*
X128549953Y-93559140D01*
X128710859Y-93720046D01*
X128897264Y-93850567D01*
X128897265Y-93850567D01*
X128897266Y-93850568D01*
X128955865Y-93877893D01*
X129008304Y-93924065D01*
X129027456Y-93991259D01*
X129007240Y-94058140D01*
X128955866Y-94102656D01*
X128897522Y-94129863D01*
X128711180Y-94260341D01*
X128550341Y-94421180D01*
X128419865Y-94607519D01*
X128323733Y-94813673D01*
X128271128Y-95009999D01*
X128271128Y-95010000D01*
X129234314Y-95010000D01*
X129222359Y-95021955D01*
X129164835Y-95134852D01*
X129145014Y-95260000D01*
X129164835Y-95385148D01*
X129222359Y-95498045D01*
X129234314Y-95510000D01*
X128271128Y-95510000D01*
X128323733Y-95706326D01*
X128419865Y-95912480D01*
X128550341Y-96098819D01*
X128711180Y-96259658D01*
X128897519Y-96390134D01*
X128955865Y-96417342D01*
X129008304Y-96463514D01*
X129027456Y-96530708D01*
X129007240Y-96597589D01*
X128955866Y-96642105D01*
X128897267Y-96669430D01*
X128710859Y-96799953D01*
X128549953Y-96960859D01*
X128419432Y-97147264D01*
X128323261Y-97353502D01*
X128264364Y-97573310D01*
X128244531Y-97800000D01*
X120262722Y-97800000D01*
X120461496Y-97746739D01*
X120667734Y-97650568D01*
X120854139Y-97520047D01*
X121015047Y-97359139D01*
X121145568Y-97172734D01*
X121241739Y-96966496D01*
X121300635Y-96746692D01*
X121320468Y-96520000D01*
X121300635Y-96293308D01*
X121241739Y-96073504D01*
X121145568Y-95867266D01*
X121094636Y-95794526D01*
X121015046Y-95680859D01*
X120854140Y-95519953D01*
X120667735Y-95389432D01*
X120461497Y-95293261D01*
X120241689Y-95234364D01*
X120015000Y-95214531D01*
X119788310Y-95234364D01*
X119568502Y-95293261D01*
X119362264Y-95389432D01*
X119175859Y-95519953D01*
X119014953Y-95680859D01*
X118884432Y-95867264D01*
X118788261Y-96073502D01*
X118729364Y-96293310D01*
X118709531Y-96519999D01*
X116319966Y-96519999D01*
X116300141Y-96293397D01*
X116241266Y-96073673D01*
X116145133Y-95867515D01*
X116094025Y-95794526D01*
X115412953Y-96475598D01*
X115400165Y-96394852D01*
X115342641Y-96281955D01*
X115253045Y-96192359D01*
X115140148Y-96134835D01*
X115059400Y-96122046D01*
X115740472Y-95440974D01*
X115740471Y-95440972D01*
X115667484Y-95389866D01*
X115461326Y-95293733D01*
X115241602Y-95234858D01*
X115015000Y-95215033D01*
X114788397Y-95234858D01*
X114568672Y-95293733D01*
X114362516Y-95389865D01*
X114289527Y-95440973D01*
X114289526Y-95440973D01*
X114970600Y-96122046D01*
X114889852Y-96134835D01*
X114776955Y-96192359D01*
X114687359Y-96281955D01*
X114629835Y-96394852D01*
X114617046Y-96475599D01*
X113935973Y-95794526D01*
X113935973Y-95794527D01*
X113884865Y-95867516D01*
X113788733Y-96073672D01*
X113729858Y-96293397D01*
X113710033Y-96520000D01*
X112395500Y-96520000D01*
X112395500Y-94072739D01*
X112397763Y-94052238D01*
X112395561Y-93982143D01*
X112395500Y-93978249D01*
X112395500Y-93954544D01*
X112395500Y-93950650D01*
X112394998Y-93946681D01*
X112394080Y-93935024D01*
X112393736Y-93924065D01*
X112392709Y-93891372D01*
X112387119Y-93872134D01*
X112383174Y-93853082D01*
X112382856Y-93850568D01*
X112380664Y-93833208D01*
X112364578Y-93792581D01*
X112360805Y-93781560D01*
X112348617Y-93739610D01*
X112338421Y-93722369D01*
X112329863Y-93704902D01*
X112322486Y-93686268D01*
X112296798Y-93650912D01*
X112290409Y-93641184D01*
X112268170Y-93603579D01*
X112254006Y-93589415D01*
X112241369Y-93574620D01*
X112229595Y-93558414D01*
X112229594Y-93558413D01*
X112195935Y-93530568D01*
X112187305Y-93522714D01*
X110990802Y-92326211D01*
X110977906Y-92310113D01*
X110926775Y-92262098D01*
X110923978Y-92259387D01*
X110907227Y-92242636D01*
X110904471Y-92239880D01*
X110901326Y-92237440D01*
X110901290Y-92237412D01*
X110892422Y-92229837D01*
X110860582Y-92199938D01*
X110843024Y-92190285D01*
X110826764Y-92179604D01*
X110810936Y-92167327D01*
X110770851Y-92149980D01*
X110760361Y-92144841D01*
X110722091Y-92123802D01*
X110702691Y-92118821D01*
X110684284Y-92112519D01*
X110665897Y-92104562D01*
X110622758Y-92097729D01*
X110611324Y-92095361D01*
X110569019Y-92084500D01*
X110548984Y-92084500D01*
X110529586Y-92082973D01*
X110522162Y-92081797D01*
X110509805Y-92079840D01*
X110509804Y-92079840D01*
X110476751Y-92082964D01*
X110466325Y-92083950D01*
X110454656Y-92084500D01*
X109424499Y-92084500D01*
X109357460Y-92064815D01*
X109311705Y-92012011D01*
X109300499Y-91960500D01*
X109300499Y-91815439D01*
X109300499Y-91812128D01*
X109294091Y-91752517D01*
X109243796Y-91617669D01*
X109157546Y-91502454D01*
X109042331Y-91416204D01*
X108998886Y-91400000D01*
X114900033Y-91400000D01*
X114919858Y-91626602D01*
X114978733Y-91846326D01*
X115074866Y-92052484D01*
X115125972Y-92125471D01*
X115125974Y-92125472D01*
X115807045Y-91444399D01*
X115819835Y-91525148D01*
X115877359Y-91638045D01*
X115966955Y-91727641D01*
X116079852Y-91785165D01*
X116160599Y-91797953D01*
X115479526Y-92479025D01*
X115479526Y-92479026D01*
X115552515Y-92530133D01*
X115758673Y-92626266D01*
X115978397Y-92685141D01*
X116205000Y-92704966D01*
X116431602Y-92685141D01*
X116651326Y-92626266D01*
X116857480Y-92530134D01*
X116930472Y-92479025D01*
X116249401Y-91797953D01*
X116330148Y-91785165D01*
X116443045Y-91727641D01*
X116532641Y-91638045D01*
X116590165Y-91525148D01*
X116602953Y-91444401D01*
X117284025Y-92125472D01*
X117335134Y-92052480D01*
X117431266Y-91846326D01*
X117490141Y-91626602D01*
X117495933Y-91560398D01*
X118514499Y-91560398D01*
X118554134Y-91797915D01*
X118609950Y-91960500D01*
X118632321Y-92025664D01*
X118746928Y-92237439D01*
X118894829Y-92427463D01*
X119071990Y-92590551D01*
X119273578Y-92722255D01*
X119494095Y-92818983D01*
X119727524Y-92878095D01*
X119907400Y-92893000D01*
X119909970Y-92893000D01*
X120120030Y-92893000D01*
X120122600Y-92893000D01*
X120302476Y-92878095D01*
X120535905Y-92818983D01*
X120756422Y-92722255D01*
X120775180Y-92710000D01*
X124524357Y-92710000D01*
X124525493Y-92722255D01*
X124544885Y-92931537D01*
X124605769Y-93145526D01*
X124704941Y-93344688D01*
X124839019Y-93522237D01*
X125003437Y-93672124D01*
X125192595Y-93789245D01*
X125192597Y-93789245D01*
X125192599Y-93789247D01*
X125400060Y-93869618D01*
X125618757Y-93910500D01*
X125618759Y-93910500D01*
X125841241Y-93910500D01*
X125841243Y-93910500D01*
X126059940Y-93869618D01*
X126267401Y-93789247D01*
X126456562Y-93672124D01*
X126620981Y-93522236D01*
X126755058Y-93344689D01*
X126854229Y-93145528D01*
X126915115Y-92931536D01*
X126935643Y-92710000D01*
X126915115Y-92488464D01*
X126863804Y-92308123D01*
X126854230Y-92274473D01*
X126755058Y-92075311D01*
X126620980Y-91897762D01*
X126456562Y-91747875D01*
X126267404Y-91630754D01*
X126160739Y-91589432D01*
X126059940Y-91550382D01*
X125841243Y-91509500D01*
X125618757Y-91509500D01*
X125400060Y-91550382D01*
X125192595Y-91630754D01*
X125003437Y-91747875D01*
X124839019Y-91897762D01*
X124704941Y-92075311D01*
X124605769Y-92274473D01*
X124544885Y-92488462D01*
X124544884Y-92488464D01*
X124544885Y-92488464D01*
X124524357Y-92710000D01*
X120775180Y-92710000D01*
X120958010Y-92590551D01*
X121135171Y-92427463D01*
X121283072Y-92237439D01*
X121397679Y-92025664D01*
X121475866Y-91797913D01*
X121515500Y-91560399D01*
X121515500Y-91319601D01*
X121475866Y-91082087D01*
X121397679Y-90854336D01*
X121283072Y-90642561D01*
X121135171Y-90452537D01*
X120958010Y-90289449D01*
X120958007Y-90289447D01*
X120958006Y-90289446D01*
X120933613Y-90273509D01*
X120888256Y-90220362D01*
X120878833Y-90151131D01*
X120908336Y-90087796D01*
X120933614Y-90065892D01*
X120957700Y-90050155D01*
X121134801Y-89887122D01*
X121282651Y-89697164D01*
X121397219Y-89485460D01*
X121475380Y-89257792D01*
X121493367Y-89150000D01*
X120509852Y-89150000D01*
X120558559Y-89012953D01*
X120568877Y-88862114D01*
X120538116Y-88714085D01*
X120504910Y-88650000D01*
X121493366Y-88650000D01*
X121493366Y-88649999D01*
X121475380Y-88542207D01*
X121397219Y-88314539D01*
X121282651Y-88102835D01*
X121171675Y-87960253D01*
X121146032Y-87895259D01*
X121159598Y-87826719D01*
X121208067Y-87776394D01*
X121226189Y-87767910D01*
X121257331Y-87756296D01*
X121372546Y-87670046D01*
X121458796Y-87554831D01*
X121509091Y-87419983D01*
X121515500Y-87360373D01*
X121515499Y-86359999D01*
X128134699Y-86359999D01*
X128153865Y-86591299D01*
X128153865Y-86591301D01*
X128153866Y-86591305D01*
X128210843Y-86816300D01*
X128210844Y-86816303D01*
X128302199Y-87024569D01*
X128304076Y-87028849D01*
X128431021Y-87223153D01*
X128588216Y-87393913D01*
X128771374Y-87536470D01*
X128975497Y-87646936D01*
X129085258Y-87684616D01*
X129195015Y-87722297D01*
X129195017Y-87722297D01*
X129195019Y-87722298D01*
X129423951Y-87760500D01*
X129423952Y-87760500D01*
X129656048Y-87760500D01*
X129656049Y-87760500D01*
X129884981Y-87722298D01*
X130104503Y-87646936D01*
X130308626Y-87536470D01*
X130491784Y-87393913D01*
X130648979Y-87223153D01*
X130775924Y-87028849D01*
X130869157Y-86816300D01*
X130926134Y-86591305D01*
X130945300Y-86360000D01*
X130926134Y-86128695D01*
X130869157Y-85903700D01*
X130775924Y-85691151D01*
X130648979Y-85496847D01*
X130491784Y-85326087D01*
X130308626Y-85183530D01*
X130104503Y-85073064D01*
X130104499Y-85073062D01*
X130104498Y-85073062D01*
X129884984Y-84997702D01*
X129681242Y-84963704D01*
X129656049Y-84959500D01*
X129423951Y-84959500D01*
X129398758Y-84963704D01*
X129195015Y-84997702D01*
X128975501Y-85073062D01*
X128975497Y-85073063D01*
X128975497Y-85073064D01*
X128899180Y-85114365D01*
X128771372Y-85183531D01*
X128588215Y-85326087D01*
X128431020Y-85496848D01*
X128304076Y-85691150D01*
X128210844Y-85903696D01*
X128210842Y-85903700D01*
X128210843Y-85903700D01*
X128174315Y-86047947D01*
X128153865Y-86128700D01*
X128134699Y-86359999D01*
X121515499Y-86359999D01*
X121515499Y-85359628D01*
X121509091Y-85300017D01*
X121458796Y-85165169D01*
X121372546Y-85049954D01*
X121257331Y-84963704D01*
X121122483Y-84913409D01*
X121062873Y-84907000D01*
X121059550Y-84907000D01*
X118970439Y-84907000D01*
X118970420Y-84907000D01*
X118967128Y-84907001D01*
X118963848Y-84907353D01*
X118963840Y-84907354D01*
X118907515Y-84913409D01*
X118772669Y-84963704D01*
X118657454Y-85049954D01*
X118571204Y-85165168D01*
X118520910Y-85300015D01*
X118520909Y-85300017D01*
X118514500Y-85359627D01*
X118514500Y-85362948D01*
X118514500Y-85362949D01*
X118514500Y-87357060D01*
X118514500Y-87357078D01*
X118514501Y-87360372D01*
X118514853Y-87363652D01*
X118514854Y-87363659D01*
X118518766Y-87400046D01*
X118520909Y-87419983D01*
X118571204Y-87554831D01*
X118657454Y-87670046D01*
X118772669Y-87756296D01*
X118803805Y-87767909D01*
X118859738Y-87809779D01*
X118884155Y-87875243D01*
X118869304Y-87943516D01*
X118858325Y-87960252D01*
X118747347Y-88102836D01*
X118632780Y-88314539D01*
X118554619Y-88542207D01*
X118536633Y-88649999D01*
X118536634Y-88650000D01*
X119520148Y-88650000D01*
X119471441Y-88787047D01*
X119461123Y-88937886D01*
X119491884Y-89085915D01*
X119525090Y-89150000D01*
X118536633Y-89150000D01*
X118554619Y-89257792D01*
X118632780Y-89485460D01*
X118747348Y-89697164D01*
X118895201Y-89887126D01*
X119072294Y-90050153D01*
X119096385Y-90065892D01*
X119141742Y-90119038D01*
X119151166Y-90188269D01*
X119121665Y-90251605D01*
X119096388Y-90273508D01*
X119071992Y-90289446D01*
X118894829Y-90452536D01*
X118746929Y-90642559D01*
X118632319Y-90854340D01*
X118554134Y-91082084D01*
X118514499Y-91319601D01*
X118514499Y-91560398D01*
X117495933Y-91560398D01*
X117509966Y-91400000D01*
X117490141Y-91173397D01*
X117431266Y-90953673D01*
X117335133Y-90747515D01*
X117284025Y-90674526D01*
X116602953Y-91355597D01*
X116590165Y-91274852D01*
X116532641Y-91161955D01*
X116443045Y-91072359D01*
X116330148Y-91014835D01*
X116249400Y-91002046D01*
X116930472Y-90320974D01*
X116930471Y-90320972D01*
X116857484Y-90269866D01*
X116651326Y-90173733D01*
X116431602Y-90114858D01*
X116205000Y-90095033D01*
X115978397Y-90114858D01*
X115758672Y-90173733D01*
X115552516Y-90269865D01*
X115479527Y-90320973D01*
X115479526Y-90320973D01*
X116160600Y-91002046D01*
X116079852Y-91014835D01*
X115966955Y-91072359D01*
X115877359Y-91161955D01*
X115819835Y-91274852D01*
X115807046Y-91355600D01*
X115125973Y-90674526D01*
X115125973Y-90674527D01*
X115074865Y-90747516D01*
X114978733Y-90953672D01*
X114919858Y-91173397D01*
X114900033Y-91400000D01*
X108998886Y-91400000D01*
X108907483Y-91365909D01*
X108847873Y-91359500D01*
X108844550Y-91359500D01*
X107055439Y-91359500D01*
X107055420Y-91359500D01*
X107052128Y-91359501D01*
X107048848Y-91359853D01*
X107048840Y-91359854D01*
X106992515Y-91365909D01*
X106857669Y-91416204D01*
X106742454Y-91502454D01*
X106656204Y-91617668D01*
X106605910Y-91752515D01*
X106605909Y-91752517D01*
X106599500Y-91812127D01*
X106599500Y-91815448D01*
X106599500Y-91815449D01*
X106599500Y-93604560D01*
X106599500Y-93604578D01*
X105410000Y-93604578D01*
X105410000Y-85991122D01*
X109969500Y-85991122D01*
X109969586Y-85992747D01*
X109969587Y-85992772D01*
X109972067Y-86039459D01*
X109972067Y-86039466D01*
X109972295Y-86043741D01*
X109973107Y-86047940D01*
X109973108Y-86047947D01*
X110016754Y-86273622D01*
X110016755Y-86273626D01*
X110099426Y-86492690D01*
X110217930Y-86694632D01*
X110368858Y-86873642D01*
X110547868Y-87024570D01*
X110749810Y-87143074D01*
X110968874Y-87225745D01*
X111198759Y-87270205D01*
X111251378Y-87273000D01*
X111253022Y-87273000D01*
X113186978Y-87273000D01*
X113188622Y-87273000D01*
X113241241Y-87270205D01*
X113471126Y-87225745D01*
X113690190Y-87143074D01*
X113892132Y-87024570D01*
X114071142Y-86873642D01*
X114222070Y-86694632D01*
X114340574Y-86492690D01*
X114375554Y-86400000D01*
X114899531Y-86400000D01*
X114919364Y-86626689D01*
X114978261Y-86846497D01*
X115074432Y-87052735D01*
X115204953Y-87239140D01*
X115365859Y-87400046D01*
X115552264Y-87530567D01*
X115552265Y-87530567D01*
X115552266Y-87530568D01*
X115758504Y-87626739D01*
X115978308Y-87685635D01*
X116129435Y-87698857D01*
X116204999Y-87705468D01*
X116204999Y-87705467D01*
X116205000Y-87705468D01*
X116431692Y-87685635D01*
X116651496Y-87626739D01*
X116857734Y-87530568D01*
X117044139Y-87400047D01*
X117205047Y-87239139D01*
X117335568Y-87052734D01*
X117431739Y-86846496D01*
X117490635Y-86626692D01*
X117510468Y-86400000D01*
X117490635Y-86173308D01*
X117431739Y-85953504D01*
X117335568Y-85747266D01*
X117296277Y-85691151D01*
X117205046Y-85560859D01*
X117044140Y-85399953D01*
X116857735Y-85269432D01*
X116651497Y-85173261D01*
X116431689Y-85114364D01*
X116204999Y-85094531D01*
X115978310Y-85114364D01*
X115758502Y-85173261D01*
X115552264Y-85269432D01*
X115365859Y-85399953D01*
X115204953Y-85560859D01*
X115074432Y-85747264D01*
X114978261Y-85953502D01*
X114919364Y-86173310D01*
X114899531Y-86400000D01*
X114375554Y-86400000D01*
X114423245Y-86273626D01*
X114467705Y-86043741D01*
X114470500Y-85991122D01*
X114470500Y-84053878D01*
X114467705Y-84001259D01*
X114423245Y-83771374D01*
X114340574Y-83552310D01*
X114222070Y-83350368D01*
X114071142Y-83171358D01*
X113892132Y-83020430D01*
X113690190Y-82901926D01*
X113471126Y-82819255D01*
X113471121Y-82819254D01*
X113468475Y-82818742D01*
X113464974Y-82816934D01*
X113461251Y-82815529D01*
X113461414Y-82815095D01*
X113406395Y-82786682D01*
X113371503Y-82726148D01*
X113374876Y-82656360D01*
X113415445Y-82599475D01*
X113480328Y-82573552D01*
X113492007Y-82572999D01*
X117017872Y-82572999D01*
X117077483Y-82566591D01*
X117212331Y-82516296D01*
X117327546Y-82430046D01*
X117413796Y-82314831D01*
X117464091Y-82179983D01*
X117470500Y-82120373D01*
X117470499Y-78524628D01*
X117464091Y-78465017D01*
X117413796Y-78330169D01*
X117327546Y-78214954D01*
X117212331Y-78128704D01*
X117077483Y-78078409D01*
X117077482Y-78078408D01*
X117021166Y-78072354D01*
X117021165Y-78072353D01*
X117017873Y-78072000D01*
X117014550Y-78072000D01*
X113425439Y-78072000D01*
X113425420Y-78072000D01*
X113422128Y-78072001D01*
X113418848Y-78072353D01*
X113418840Y-78072354D01*
X113362515Y-78078409D01*
X113227669Y-78128704D01*
X113112454Y-78214954D01*
X113026204Y-78330168D01*
X112975909Y-78465016D01*
X112970195Y-78518167D01*
X112969500Y-78524627D01*
X112969500Y-78527948D01*
X112969500Y-78527949D01*
X112969500Y-82117060D01*
X112969500Y-82117078D01*
X112969501Y-82120372D01*
X112975909Y-82179983D01*
X113026204Y-82314831D01*
X113112454Y-82430046D01*
X113227669Y-82516296D01*
X113274940Y-82533927D01*
X113330873Y-82575796D01*
X113355291Y-82641261D01*
X113340440Y-82709534D01*
X113291035Y-82758940D01*
X113225033Y-82773934D01*
X113190242Y-82772086D01*
X113190240Y-82772085D01*
X113188622Y-82772000D01*
X111251378Y-82772000D01*
X111249753Y-82772086D01*
X111249727Y-82772087D01*
X111203040Y-82774567D01*
X111203031Y-82774568D01*
X111198759Y-82774795D01*
X111194561Y-82775606D01*
X111194552Y-82775608D01*
X110968877Y-82819254D01*
X110749807Y-82901927D01*
X110547868Y-83020430D01*
X110368858Y-83171358D01*
X110217930Y-83350368D01*
X110099427Y-83552307D01*
X110016754Y-83771377D01*
X109973108Y-83997052D01*
X109973106Y-83997061D01*
X109972295Y-84001259D01*
X109972068Y-84005531D01*
X109972067Y-84005540D01*
X109969587Y-84052227D01*
X109969586Y-84052253D01*
X109969500Y-84053878D01*
X109969500Y-85991122D01*
X105410000Y-85991122D01*
X105410000Y-80072500D01*
X107220000Y-80072500D01*
X108720000Y-80072500D01*
X108720000Y-80572500D01*
X107220001Y-80572500D01*
X107220001Y-81384244D01*
X107220192Y-81389125D01*
X107230400Y-81518831D01*
X107285377Y-81737018D01*
X107378430Y-81941879D01*
X107506565Y-82126832D01*
X107665667Y-82285934D01*
X107850620Y-82414069D01*
X108055481Y-82507122D01*
X108273668Y-82562099D01*
X108403374Y-82572308D01*
X108408254Y-82572499D01*
X108969999Y-82572499D01*
X108970000Y-82572498D01*
X108970000Y-81756186D01*
X109010156Y-81781993D01*
X109148111Y-81822500D01*
X109291889Y-81822500D01*
X109429844Y-81781993D01*
X109470000Y-81756186D01*
X109470000Y-82572499D01*
X110031744Y-82572499D01*
X110036625Y-82572307D01*
X110166331Y-82562099D01*
X110384518Y-82507122D01*
X110589379Y-82414069D01*
X110774332Y-82285934D01*
X110933434Y-82126832D01*
X111061569Y-81941879D01*
X111154622Y-81737018D01*
X111209599Y-81518831D01*
X111219808Y-81389125D01*
X111220000Y-81384245D01*
X111220000Y-80572500D01*
X109720000Y-80572500D01*
X109720000Y-80072500D01*
X111219999Y-80072500D01*
X111219999Y-79260755D01*
X111219807Y-79255874D01*
X111209599Y-79126168D01*
X111154622Y-78907981D01*
X111061569Y-78703120D01*
X110933434Y-78518167D01*
X110774332Y-78359065D01*
X110589379Y-78230930D01*
X110384518Y-78137877D01*
X110166331Y-78082900D01*
X110036625Y-78072691D01*
X110031746Y-78072500D01*
X109470000Y-78072500D01*
X109470000Y-78888813D01*
X109429844Y-78863007D01*
X109291889Y-78822500D01*
X109148111Y-78822500D01*
X109010156Y-78863007D01*
X108970000Y-78888813D01*
X108970000Y-78072500D01*
X108408255Y-78072500D01*
X108403374Y-78072692D01*
X108273668Y-78082900D01*
X108055481Y-78137877D01*
X107850620Y-78230930D01*
X107665667Y-78359065D01*
X107506565Y-78518167D01*
X107378430Y-78703120D01*
X107285377Y-78907981D01*
X107230400Y-79126168D01*
X107220191Y-79255874D01*
X107220000Y-79260754D01*
X107220000Y-80072500D01*
X105410000Y-80072500D01*
X105410000Y-75054000D01*
X105429685Y-74986961D01*
X105482489Y-74941206D01*
X105534000Y-74930000D01*
X131956000Y-74930000D01*
X132023039Y-74949685D01*
G37*
%TD.AperFunction*%
%TD*%
M02*
